<?xml version="1.0" encoding="UTF-8" standalone="no"?>
<!-- Created with Inkscape (http://www.inkscape.org/) -->

<svg
   xmlns:dc="http://purl.org/dc/elements/1.1/"
   xmlns:cc="http://creativecommons.org/ns#"
   xmlns:rdf="http://www.w3.org/1999/02/22-rdf-syntax-ns#"
   xmlns:svg="http://www.w3.org/2000/svg"
   xmlns="http://www.w3.org/2000/svg"
   xmlns:sodipodi="http://sodipodi.sourceforge.net/DTD/sodipodi-0.dtd"
   xmlns:inkscape="http://www.inkscape.org/namespaces/inkscape"
   width="744.09448819"
   height="1052.3622047"
   id="svg2"
   version="1.1"
   inkscape:version="0.48.1 r9760"
   sodipodi:docname="r5.svg">
  <defs
     id="defs4" />
  <sodipodi:namedview
     id="base"
     pagecolor="#ffffff"
     bordercolor="#666666"
     borderopacity="1.0"
     inkscape:pageopacity="0.0"
     inkscape:pageshadow="2"
     inkscape:zoom="1"
     inkscape:cx="328.7191"
     inkscape:cy="810.51353"
     inkscape:document-units="px"
     inkscape:current-layer="layer1"
     showgrid="false"
     inkscape:window-width="1186"
     inkscape:window-height="725"
     inkscape:window-x="0"
     inkscape:window-y="25"
     inkscape:window-maximized="1" />
  <metadata
     id="metadata7">
    <rdf:RDF>
      <cc:Work
         rdf:about="">
        <dc:format>image/svg+xml</dc:format>
        <dc:type
           rdf:resource="http://purl.org/dc/dcmitype/StillImage" />
      </cc:Work>
    </rdf:RDF>
  </metadata>
  <g
     inkscape:label="Layer 1"
     inkscape:groupmode="layer"
     id="layer1">
    <g
       id="g3205">
      <rect
         y="49.362183"
         x="27"
         height="257.40576"
         width="68"
         id="rect2985"
         style="opacity:0.51550389;fill:none;stroke:#000000;stroke-width:0.92629325;stroke-miterlimit:4;stroke-opacity:1;stroke-dasharray:none" />
      <path
         inkscape:connector-curvature="0"
         id="path3113"
         d="M 60,50.362183 C 60,306.78513 60,306.78513 60,306.78513 M 27,63.269379 l 67,0 M 28,77.897533 c 68,0 66,0 66,0"
         style="fill:none;stroke:#000000;stroke-width:0.92762047px;stroke-linecap:butt;stroke-linejoin:miter;stroke-opacity:1" />
      <path
         inkscape:connector-curvature="0"
         id="path3115"
         d="m 26,101.36218 68,0 0,0"
         style="fill:none;stroke:#000000;stroke-width:1px;stroke-linecap:butt;stroke-linejoin:miter;stroke-opacity:1" />
      <path
         inkscape:connector-curvature="0"
         id="path3115-4"
         d="m 26,285.36218 68,0 0,0"
         style="fill:none;stroke:#000000;stroke-width:1px;stroke-linecap:butt;stroke-linejoin:miter;stroke-opacity:1" />
      <path
         inkscape:connector-curvature="0"
         id="path3115-0"
         d="m 26,265.36218 68,0 0,0"
         style="fill:none;stroke:#000000;stroke-width:1px;stroke-linecap:butt;stroke-linejoin:miter;stroke-opacity:1" />
      <path
         inkscape:connector-curvature="0"
         id="path3115-9"
         d="m 27,246.36218 68,0 0,0"
         style="fill:none;stroke:#000000;stroke-width:1px;stroke-linecap:butt;stroke-linejoin:miter;stroke-opacity:1" />
      <path
         inkscape:connector-curvature="0"
         id="path3115-2"
         d="m 27,229.36218 68,0 0,0"
         style="fill:none;stroke:#000000;stroke-width:1px;stroke-linecap:butt;stroke-linejoin:miter;stroke-opacity:1" />
      <path
         inkscape:connector-curvature="0"
         id="path3115-04"
         d="m 25,212.36218 68,0 0,0"
         style="fill:none;stroke:#000000;stroke-width:1px;stroke-linecap:butt;stroke-linejoin:miter;stroke-opacity:1" />
      <path
         inkscape:connector-curvature="0"
         id="path3115-7"
         d="m 25,194.36218 68,0 0,0"
         style="fill:none;stroke:#000000;stroke-width:1px;stroke-linecap:butt;stroke-linejoin:miter;stroke-opacity:1" />
      <path
         inkscape:connector-curvature="0"
         id="path3115-91"
         d="m 27,175.36218 68,0 0,0"
         style="fill:none;stroke:#000000;stroke-width:1px;stroke-linecap:butt;stroke-linejoin:miter;stroke-opacity:1" />
      <path
         inkscape:connector-curvature="0"
         id="path3115-1"
         d="m 27,155.36218 68,0 0,0"
         style="fill:none;stroke:#000000;stroke-width:1px;stroke-linecap:butt;stroke-linejoin:miter;stroke-opacity:1" />
      <path
         inkscape:connector-curvature="0"
         id="path3115-79"
         d="m 27,137.36218 68,0 0,0"
         style="fill:none;stroke:#000000;stroke-width:1px;stroke-linecap:butt;stroke-linejoin:miter;stroke-opacity:1" />
      <path
         inkscape:connector-curvature="0"
         id="path3115-26"
         d="m 25,120.36218 68,0 0,0"
         style="fill:none;stroke:#000000;stroke-width:1px;stroke-linecap:butt;stroke-linejoin:miter;stroke-opacity:1" />
    </g>
    <g
       id="g3509">
      <rect
         transform="matrix(0.00486102,0.99998819,-0.99996639,0.00819814,0,0)"
         y="-534.76764"
         x="113.93575"
         height="198.20985"
         width="67.999443"
         id="rect2985-0"
         style="opacity:0.51550389;fill:none;stroke:#000000;stroke-width:0.81283098;stroke-miterlimit:4;stroke-opacity:1;stroke-dasharray:none" />
    </g>
    <path
       style="fill:none;stroke:#000000;stroke-width:0.97704279px;stroke-linecap:butt;stroke-linejoin:miter;stroke-opacity:1"
       d="m 357.52806,110.04015 0.40979,67.99864 0,0"
       id="path3115-4-8"
       inkscape:connector-curvature="0" />
    <path
       style="fill:none;stroke:#000000;stroke-width:0.97704279px;stroke-linecap:butt;stroke-linejoin:miter;stroke-opacity:1"
       d="m 376.61993,109.91389 0.40979,67.99865 0,0"
       id="path3115-0-7"
       inkscape:connector-curvature="0" />
    <path
       style="fill:none;stroke:#000000;stroke-width:0.97704279px;stroke-linecap:butt;stroke-linejoin:miter;stroke-opacity:1"
       d="m 394.76324,110.79393 0.40979,67.99865 0,0"
       id="path3115-9-8"
       inkscape:connector-curvature="0" />
    <path
       style="fill:none;stroke:#000000;stroke-width:0.97704279px;stroke-linecap:butt;stroke-linejoin:miter;stroke-opacity:1"
       d="m 410.99133,110.68661 0.40979,67.99865 0,0"
       id="path3115-2-7"
       inkscape:connector-curvature="0" />
    <path
       style="fill:none;stroke:#000000;stroke-width:0.97704279px;stroke-linecap:butt;stroke-linejoin:miter;stroke-opacity:1"
       d="m 433.78345,109.87991 0.40978,67.99865 0,0"
       id="path3115-7-3"
       inkscape:connector-curvature="0" />
    <path
       style="fill:none;stroke:#000000;stroke-width:0.97704279px;stroke-linecap:butt;stroke-linejoin:miter;stroke-opacity:1"
       d="m 457.58963,111.75993 0.40979,67.99865 0,0"
       id="path3115-91-0"
       inkscape:connector-curvature="0" />
    <path
       style="fill:none;stroke:#000000;stroke-width:0.97704279px;stroke-linecap:butt;stroke-linejoin:miter;stroke-opacity:1"
       d="m 481.63125,110.21946 0.40979,67.99865 0,0"
       id="path3115-1-2"
       inkscape:connector-curvature="0" />
    <path
       style="fill:none;stroke:#000000;stroke-width:0.97704279px;stroke-linecap:butt;stroke-linejoin:miter;stroke-opacity:1"
       d="m 498.81393,110.10583 0.40979,67.99865 0,0"
       id="path3115-79-6"
       inkscape:connector-curvature="0" />
    <path
       style="fill:none;stroke:#000000;stroke-width:0.97704279px;stroke-linecap:butt;stroke-linejoin:miter;stroke-opacity:1"
       d="m 515.02997,107.99856 0.40979,67.99864 0,0"
       id="path3115-26-2"
       inkscape:connector-curvature="0" />
    <path
       style="fill:none;stroke:#000000;stroke-width:1px;stroke-linecap:butt;stroke-linejoin:miter;stroke-opacity:1"
       d="m 336,144.36218 199,0"
       id="path3290"
       inkscape:connector-curvature="0" />
    <g
       id="g3512">
      <rect
         transform="matrix(0.00486102,0.99998819,-0.99996639,0.00819814,0,0)"
         y="-540.09412"
         x="299.79861"
         height="198.20985"
         width="67.999443"
         id="rect2985-0-5"
         style="opacity:0.51550389;fill:none;stroke:#000000;stroke-width:0.81283098;stroke-miterlimit:4;stroke-opacity:1;stroke-dasharray:none" />
    </g>
    <path
       style="fill:none;stroke:#000000;stroke-width:0.97704279px;stroke-linecap:butt;stroke-linejoin:miter;stroke-opacity:1"
       d="m 363.75783,295.85716 0.40979,67.99864 0,0"
       id="path3115-4-8-2"
       inkscape:connector-curvature="0" />
    <path
       style="fill:none;stroke:#000000;stroke-width:0.97704279px;stroke-linecap:butt;stroke-linejoin:miter;stroke-opacity:1"
       d="m 382.8497,295.7309 0.40979,67.99865 0,0"
       id="path3115-0-7-2"
       inkscape:connector-curvature="0" />
    <path
       style="fill:none;stroke:#000000;stroke-width:0.97704279px;stroke-linecap:butt;stroke-linejoin:miter;stroke-opacity:1"
       d="m 400.99301,296.61094 0.40979,67.99865 0,0"
       id="path3115-9-8-4"
       inkscape:connector-curvature="0" />
    <path
       style="fill:none;stroke:#000000;stroke-width:0.97704279px;stroke-linecap:butt;stroke-linejoin:miter;stroke-opacity:1"
       d="m 420.04953,297.21072 0.40979,67.99865 0,0"
       id="path3115-2-7-1"
       inkscape:connector-curvature="0" />
    <path
       style="fill:none;stroke:#000000;stroke-width:0.97704279px;stroke-linecap:butt;stroke-linejoin:miter;stroke-opacity:1"
       d="m 446.37718,297.11113 0.40978,67.99865 0,0"
       id="path3115-7-3-8"
       inkscape:connector-curvature="0" />
    <path
       style="fill:none;stroke:#000000;stroke-width:0.97704279px;stroke-linecap:butt;stroke-linejoin:miter;stroke-opacity:1"
       d="m 468.76915,296.16273 0.40979,67.99865 0,0"
       id="path3115-91-0-0"
       inkscape:connector-curvature="0" />
    <path
       style="fill:none;stroke:#000000;stroke-width:0.97704279px;stroke-linecap:butt;stroke-linejoin:miter;stroke-opacity:1"
       d="m 487.86102,296.03647 0.40979,67.99865 0,0"
       id="path3115-1-2-0"
       inkscape:connector-curvature="0" />
    <path
       style="fill:none;stroke:#000000;stroke-width:0.97704279px;stroke-linecap:butt;stroke-linejoin:miter;stroke-opacity:1"
       d="m 505.0437,295.92284 0.40979,67.99865 0,0"
       id="path3115-79-6-3"
       inkscape:connector-curvature="0" />
    <path
       style="fill:none;stroke:#000000;stroke-width:0.97704279px;stroke-linecap:butt;stroke-linejoin:miter;stroke-opacity:1"
       d="m 521.25974,293.81557 0.40979,67.99864 0,0"
       id="path3115-26-2-2"
       inkscape:connector-curvature="0" />
    <path
       style="fill:none;stroke:#000000;stroke-width:1px;stroke-linecap:butt;stroke-linejoin:miter;stroke-opacity:1"
       d="m 342.22977,330.17919 199,0"
       id="path3290-2"
       inkscape:connector-curvature="0" />
    <rect
       style="opacity:0.51550389;fill:none;stroke:#000000;stroke-width:0.81283098;stroke-miterlimit:4;stroke-opacity:1;stroke-dasharray:none"
       id="rect2985-0-55"
       width="67.999443"
       height="198.20985"
       x="790.03082"
       y="-567.71198"
       transform="matrix(0.00486102,0.99998819,-0.99996639,0.00819814,0,0)" />
    <path
       style="fill:none;stroke:#000000;stroke-width:0.97704279px;stroke-linecap:butt;stroke-linejoin:miter;stroke-opacity:1"
       d="m 393.75783,785.85716 0.40979,67.99864 0,0"
       id="path3115-4-8-3"
       inkscape:connector-curvature="0" />
    <path
       style="fill:none;stroke:#000000;stroke-width:0.97704279px;stroke-linecap:butt;stroke-linejoin:miter;stroke-opacity:1"
       d="m 412.8497,785.7309 0.40979,67.99865 0,0"
       id="path3115-0-7-9"
       inkscape:connector-curvature="0" />
    <path
       style="fill:none;stroke:#000000;stroke-width:0.97704279px;stroke-linecap:butt;stroke-linejoin:miter;stroke-opacity:1"
       d="m 430.99301,786.61094 0.40979,67.99865 0,0"
       id="path3115-9-8-8"
       inkscape:connector-curvature="0" />
    <path
       style="fill:none;stroke:#000000;stroke-width:0.97704279px;stroke-linecap:butt;stroke-linejoin:miter;stroke-opacity:1"
       d="m 447.2211,786.50362 0.40979,67.99865 0,0"
       id="path3115-2-7-5"
       inkscape:connector-curvature="0" />
    <path
       style="fill:none;stroke:#000000;stroke-width:0.97704279px;stroke-linecap:butt;stroke-linejoin:miter;stroke-opacity:1"
       d="m 463.43713,784.39634 0.40979,67.99865 0,0"
       id="path3115-04-8-9"
       inkscape:connector-curvature="0" />
    <path
       style="fill:none;stroke:#000000;stroke-width:0.97704279px;stroke-linecap:butt;stroke-linejoin:miter;stroke-opacity:1"
       d="m 480.61982,784.28271 0.40978,67.99865 0,0"
       id="path3115-7-3-1"
       inkscape:connector-curvature="0" />
    <path
       style="fill:none;stroke:#000000;stroke-width:0.97704279px;stroke-linecap:butt;stroke-linejoin:miter;stroke-opacity:1"
       d="m 517.86102,786.03647 0.40979,67.99865 0,0"
       id="path3115-1-2-3"
       inkscape:connector-curvature="0" />
    <path
       style="fill:none;stroke:#000000;stroke-width:0.97704279px;stroke-linecap:butt;stroke-linejoin:miter;stroke-opacity:1"
       d="m 535.0437,785.92284 0.40979,67.99865 0,0"
       id="path3115-79-6-37"
       inkscape:connector-curvature="0" />
    <path
       style="fill:none;stroke:#000000;stroke-width:0.97704279px;stroke-linecap:butt;stroke-linejoin:miter;stroke-opacity:1"
       d="m 551.25974,783.81557 0.40979,67.99864 0,0"
       id="path3115-26-2-9"
       inkscape:connector-curvature="0" />
    <path
       style="fill:none;stroke:#000000;stroke-width:1px;stroke-linecap:butt;stroke-linejoin:miter;stroke-opacity:1"
       d="m 372.22977,820.17919 199,0"
       id="path3290-5"
       inkscape:connector-curvature="0" />
    <rect
       style="opacity:0.51550389;fill:none;stroke:#000000;stroke-width:0.82101285;stroke-miterlimit:4;stroke-opacity:1;stroke-dasharray:none"
       id="rect2985-7"
       width="68"
       height="202.21863"
       x="37"
       y="682.23126" />
    <path
       style="fill:none;stroke:#000000;stroke-width:1px;stroke-linecap:butt;stroke-linejoin:miter;stroke-opacity:1"
       d="m 36,725.65037 68,0 0,0"
       id="path3115-12"
       inkscape:connector-curvature="0" />
    <path
       style="fill:none;stroke:#000000;stroke-width:1px;stroke-linecap:butt;stroke-linejoin:miter;stroke-opacity:1"
       d="m 36,860.65037 68,0 0,0"
       id="path3115-4-9"
       inkscape:connector-curvature="0" />
    <path
       style="fill:none;stroke:#000000;stroke-width:1px;stroke-linecap:butt;stroke-linejoin:miter;stroke-opacity:1"
       d="m 36,838.65037 68,0 0,0"
       id="path3115-0-2"
       inkscape:connector-curvature="0" />
    <path
       style="fill:none;stroke:#000000;stroke-width:1px;stroke-linecap:butt;stroke-linejoin:miter;stroke-opacity:1"
       d="m 36,820.65037 68,0 0,0"
       id="path3115-9-4"
       inkscape:connector-curvature="0" />
    <path
       style="fill:none;stroke:#000000;stroke-width:1px;stroke-linecap:butt;stroke-linejoin:miter;stroke-opacity:1"
       d="m 37,799.65037 68,0 0,0"
       id="path3115-91-1"
       inkscape:connector-curvature="0" />
    <path
       style="fill:none;stroke:#000000;stroke-width:1px;stroke-linecap:butt;stroke-linejoin:miter;stroke-opacity:1"
       d="m 37,779.65037 68,0 0,0"
       id="path3115-1-8"
       inkscape:connector-curvature="0" />
    <path
       style="fill:none;stroke:#000000;stroke-width:1px;stroke-linecap:butt;stroke-linejoin:miter;stroke-opacity:1"
       d="m 37,761.65037 68,0 0,0"
       id="path3115-79-9"
       inkscape:connector-curvature="0" />
    <path
       style="fill:none;stroke:#000000;stroke-width:1px;stroke-linecap:butt;stroke-linejoin:miter;stroke-opacity:1"
       d="m 35,744.65037 68,0 0,0"
       id="path3115-26-4"
       inkscape:connector-curvature="0" />
    <path
       style="fill:none;stroke:#000000;stroke-width:1px;stroke-linecap:butt;stroke-linejoin:miter;stroke-opacity:1"
       d="m 44,56.362183 0,-28 322,0 0,105.999997"
       id="path3448"
       inkscape:connector-curvature="0" />
    <path
       style="fill:none;stroke:#00ffff;stroke-width:1px;stroke-linecap:butt;stroke-linejoin:miter;stroke-opacity:1"
       d="m 82,56.362183 263,0 0,76.999997"
       id="path3450"
       inkscape:connector-curvature="0" />
    <path
       style="fill:none;stroke:#008000;stroke-width:1px;stroke-linecap:butt;stroke-linejoin:miter;stroke-opacity:1"
       d="m 507,127.36218 0,-55.999997 -427,0"
       id="path3452"
       inkscape:connector-curvature="0" />
    <path
       style="fill:none;stroke:#0000ff;stroke-width:1px;stroke-linecap:butt;stroke-linejoin:miter;stroke-opacity:1"
       d="m 506,164.36218 0,39 -270,0 0,-114.999997 -156,0"
       id="path3454"
       inkscape:connector-curvature="0" />
    <path
       style="fill:none;stroke:#000000;stroke-width:1px;stroke-linecap:butt;stroke-linejoin:miter;stroke-opacity:1"
       d="m 526,163.36218 0,36 52,0 0,194 -44,0 0,-46"
       id="path3456"
       inkscape:connector-curvature="0" />
    <path
       style="fill:none;stroke:#ff0000;stroke-width:1px;stroke-linecap:butt;stroke-linejoin:miter;stroke-opacity:1"
       d="m 525,127.36218 0,-47.999997 101,0 0,198.999997 -94,0 0,36"
       id="path3458"
       inkscape:connector-curvature="0" />
    <g
       id="g3462"
       transform="translate(3.5355339,2.8284271)">
      <path
         inkscape:connector-curvature="0"
         id="path3460"
         d="m 78,127.36218 133,0 0,114 259,0 7.29708,0 0,69.24499"
         style="fill:none;stroke:#000000;stroke-width:1px;stroke-linecap:butt;stroke-linejoin:miter;stroke-opacity:1" />
    </g>
    <path
       style="fill:none;stroke:#000000;stroke-width:1px;stroke-linecap:butt;stroke-linejoin:miter;stroke-opacity:1"
       d="m 80.610173,146.5584 119.501047,0 0,106.77312 259.50819,0 0,58.68986"
       id="path3465"
       inkscape:connector-curvature="0" />
    <path
       style="fill:none;stroke:#000000;stroke-width:0.99303067px;stroke-linecap:butt;stroke-linejoin:miter;stroke-opacity:1"
       d="m 79.899581,165.6468 102.201039,0 0,99.24679 251.35932,0 0,47.83839"
       id="path3467"
       inkscape:connector-curvature="0" />
    <path
       style="fill:none;stroke:#008000;stroke-width:1px;stroke-linecap:butt;stroke-linejoin:miter;stroke-opacity:1"
       d="m 512.65242,310.60717 0,-91.92388 -346.48233,0 0,-33.23402 -88.388344,0"
       id="path3469"
       inkscape:connector-curvature="0" />
    <path
       style="fill:none;stroke:#0000ff;stroke-width:1px;stroke-linecap:butt;stroke-linejoin:miter;stroke-opacity:1"
       d="m 511.94531,349.49804 0,31.1127 -362.03867,0 0,-176.06959 -70.71068,0"
       id="path3471"
       inkscape:connector-curvature="0" />
    <path
       style="fill:none;stroke:#000000;stroke-width:1px;stroke-linecap:butt;stroke-linejoin:miter;stroke-opacity:1"
       d="m 496.38896,310.60717 0,-77.78175 -359.91735,0 0,-12.02081 -56.568544,0"
       id="path3473"
       inkscape:connector-curvature="0" />
    <path
       style="fill:none;stroke:#000000;stroke-width:1px;stroke-linecap:butt;stroke-linejoin:miter;stroke-opacity:1"
       d="m 391.03005,308.48585 0,-33.94113 -219.91021,0 0,-35.35534 -90.509667,0"
       id="path3477"
       inkscape:connector-curvature="0" />
    <path
       style="fill:none;stroke:#000000;stroke-width:1px;stroke-linecap:butt;stroke-linejoin:miter;stroke-opacity:1"
       d="m 408.70772,309.90006 0,-24.74874 -271.529,0 0,-28.28427 -57.275654,0"
       id="path3479"
       inkscape:connector-curvature="0" />
    <path
       style="fill:none;stroke:#000000;stroke-width:1px;stroke-linecap:butt;stroke-linejoin:miter;stroke-opacity:1"
       d="m 371.93817,311.31428 -0.70711,-21.21321 -241.12341,0 0,-14.84924 -48.79037,0"
       id="path3481"
       inkscape:connector-curvature="0" />
    <path
       style="fill:none;stroke:#00ffff;stroke-width:1px;stroke-linecap:butt;stroke-linejoin:miter;stroke-opacity:1"
       d="m 352.84628,307.77874 -232.63813,0 0,-10.6066 -41.01219,0"
       id="path3483"
       inkscape:connector-curvature="0" />
    <path
       style="fill:none;stroke:#000000;stroke-width:1px;stroke-linecap:butt;stroke-linejoin:miter;stroke-opacity:1"
       d="m 469.5189,126.75941 0,-112.429982 -448.305697,0 0,71.417784 22.627417,0"
       id="path3517"
       inkscape:connector-curvature="0" />
    <path
       style="fill:none;stroke:#000000;stroke-width:1px;stroke-linecap:butt;stroke-linejoin:miter;stroke-opacity:1"
       d="m 445.47727,125.34519 0,-118.793937 -434.163561,0 0,103.944697 28.991378,0"
       id="path3519"
       inkscape:connector-curvature="0" />
    <path
       style="fill:none;stroke:#000000;stroke-width:1px;stroke-linecap:butt;stroke-linejoin:miter;stroke-opacity:1"
       d="m 422.84986,126.0523 0,-131.5218623 -427.7996075,0 0,132.2289723 43.8406205,0"
       id="path3521"
       inkscape:connector-curvature="0" />
    <path
       style="fill:none;stroke:#000000;stroke-width:1px;stroke-linecap:butt;stroke-linejoin:miter;stroke-opacity:1"
       d="m 402.34376,127.46651 0,-144.956888 -418.607216,0 0,163.341668 56.568543,0"
       id="path3523"
       inkscape:connector-curvature="0" />
    <path
       style="fill:none;stroke:#000000;stroke-width:1px;stroke-linecap:butt;stroke-linejoin:miter;stroke-opacity:1"
       d="m 386.0803,130.29494 0,-156.977706 -409.414824,0 0,190.211726 63.639611,0"
       id="path3525"
       inkscape:connector-curvature="0" />
    <path
       style="fill:none;stroke:#000000;stroke-width:1px;stroke-linecap:butt;stroke-linejoin:miter;stroke-opacity:1"
       d="m 344.361,160.70053 -16.26345,0 0,-199.404111 -358.503142,0 0,224.152851 70.710679,0"
       id="path3527"
       inkscape:connector-curvature="0" />
    <path
       style="fill:none;stroke:#00ff00;stroke-width:1px;stroke-linecap:butt;stroke-linejoin:miter;stroke-opacity:1"
       d="m 366.98842,161.40764 0,22.62742 -45.25483,0 0,-231.931029 -363.45289,0 0,248.901589 81.31728,0"
       id="path3529"
       inkscape:connector-curvature="0" />
    <path
       style="fill:none;stroke:#000000;stroke-width:1px;stroke-linecap:butt;stroke-linejoin:miter;stroke-opacity:1"
       d="m 386.0803,162.11474 0,27.57717 -75.66042,0 0,-246.780267 -362.745782,0 0,274.357427 91.923882,0"
       id="path3531"
       inkscape:connector-curvature="0" />
    <path
       style="fill:none;stroke:#000000;stroke-width:1px;stroke-linecap:butt;stroke-linejoin:miter;stroke-opacity:1"
       d="m 403.75797,162.82185 0,30.40559 -102.53048,0 0,-259.508186 -366.988421,0 0,302.641706 106.066018,0"
       id="path3533"
       inkscape:connector-curvature="0" />
    <path
       style="fill:none;stroke:#000000;stroke-width:1px;stroke-linecap:butt;stroke-linejoin:miter;stroke-opacity:1"
       d="m 496,348.36218 0,46 -459,0 0,-99"
       id="path3535"
       inkscape:connector-curvature="0" />
    <g
       id="g3610"
       transform="translate(-149,-244)">
      <g
         id="g3607">
        <rect
           style="opacity:0.51550389;fill:none;stroke:#000000;stroke-width:0.66867203;stroke-miterlimit:4;stroke-opacity:1;stroke-dasharray:none"
           id="rect2985-7-1"
           width="68"
           height="134.13667"
           x="189"
           y="711.91949" />
      </g>
      <path
         inkscape:connector-curvature="0"
         id="path3115-4-9-8"
         d="m 188,824.65037 68,0 0,0"
         style="fill:none;stroke:#000000;stroke-width:1px;stroke-linecap:butt;stroke-linejoin:miter;stroke-opacity:1" />
      <path
         inkscape:connector-curvature="0"
         id="path3115-0-2-1"
         d="m 188,804.65037 68,0 0,0"
         style="fill:none;stroke:#000000;stroke-width:1px;stroke-linecap:butt;stroke-linejoin:miter;stroke-opacity:1" />
      <path
         inkscape:connector-curvature="0"
         id="path3115-9-4-3"
         d="m 188,785.65037 68,0 0,0"
         style="fill:none;stroke:#000000;stroke-width:1px;stroke-linecap:butt;stroke-linejoin:miter;stroke-opacity:1" />
      <path
         inkscape:connector-curvature="0"
         id="path3115-2-9-1"
         d="m 189,768.65037 68,0 0,0"
         style="fill:none;stroke:#000000;stroke-width:1px;stroke-linecap:butt;stroke-linejoin:miter;stroke-opacity:1" />
      <path
         inkscape:connector-curvature="0"
         id="path3115-04-6-4"
         d="m 187,751.65037 68,0 0,0"
         style="fill:none;stroke:#000000;stroke-width:1px;stroke-linecap:butt;stroke-linejoin:miter;stroke-opacity:1" />
      <path
         inkscape:connector-curvature="0"
         id="path3115-7-9-9"
         d="m 187,733.65037 68,0 0,0"
         style="fill:none;stroke:#000000;stroke-width:1px;stroke-linecap:butt;stroke-linejoin:miter;stroke-opacity:1" />
    </g>
    <path
       style="fill:none;stroke:#00ffff;stroke-width:0.97279167000000000px;stroke-linecap:butt;stroke-linejoin:miter;stroke-opacity:1"
       d="m 382,803.36218 0,-115.45149 -293,0"
       id="path3091"
       inkscape:connector-curvature="0" />
    <path
       style="fill:none;stroke:#000000;stroke-width:0.97180015px;stroke-linecap:butt;stroke-linejoin:miter;stroke-opacity:1"
       d="m 527,839.36394 0,33.99824 67,0 0,-170.9356 -506,0"
       id="path3093"
       inkscape:connector-curvature="0" />
    <path
       style="fill:none;stroke:#000000;stroke-width:0.97100306px;stroke-linecap:butt;stroke-linejoin:miter;stroke-opacity:1"
       d="m 508,839.99122 0,43.37096 98,0 0,-165.94107 -519,0"
       id="path3095"
       inkscape:connector-curvature="0" />
    <path
       style="fill:none;stroke:#000000;stroke-width:1px;stroke-linecap:butt;stroke-linejoin:miter;stroke-opacity:1"
       d="m 577,391.36218 0,445 -15,0"
       id="path3107"
       inkscape:connector-curvature="0" />
    <path
       style="fill:none;stroke:#ff0000;stroke-width:1px;stroke-linecap:butt;stroke-linejoin:miter;stroke-opacity:1"
       d="m 561,801.36218 0,-523"
       id="path3109"
       inkscape:connector-curvature="0" />
    <path
       style="fill:none;stroke:#000000;stroke-width:1px;stroke-linecap:butt;stroke-linejoin:miter;stroke-opacity:1"
       d="m 447,163.36218 0,35 -192,0 0,125 -247,0 0,-48 32,0"
       id="path3116"
       inkscape:connector-curvature="0" />
    <path
       style="fill:none;stroke:#000000;stroke-width:1px;stroke-linecap:butt;stroke-linejoin:miter;stroke-opacity:1"
       d="m 423,162.36218 0,48 -191,0 0,125 -245,0 0,-82 53,0"
       id="path3118"
       inkscape:connector-curvature="0" />
    <path
       style="fill:none;stroke:#000000;stroke-width:1.01781285px;stroke-linecap:butt;stroke-linejoin:miter;stroke-opacity:1"
       d="m 353,351.36218 0,128.45692 -268,0"
       id="path3120"
       inkscape:connector-curvature="0" />
    <path
       style="fill:none;stroke:#00ff00;stroke-width:1.01177585000000003px;stroke-linecap:butt;stroke-linejoin:miter;stroke-opacity:1"
       d="m 374,349.36218 0,149.4588 -290,0"
       id="path3122"
       inkscape:connector-curvature="0" />
    <path
       style="fill:none;stroke:#000000;stroke-width:1.00885701px;stroke-linecap:butt;stroke-linejoin:miter;stroke-opacity:1"
       d="m 81,517.36218 312.46232,0 0,-166"
       id="path3124"
       inkscape:connector-curvature="0" />
    <path
       style="fill:none;stroke:#000000;stroke-width:1px;stroke-linecap:butt;stroke-linejoin:miter;stroke-opacity:1"
       d="m 411,350.36218 0,185 -329,0"
       id="path3126"
       inkscape:connector-curvature="0" />
    <path
       style="fill:none;stroke:#000000;stroke-width:1.00495291px;stroke-linecap:butt;stroke-linejoin:miter;stroke-opacity:1"
       d="m 81,552.36218 352.46569,0 0,-200"
       id="path3128"
       inkscape:connector-curvature="0" />
    <path
       style="fill:none;stroke:#000000;stroke-width:1px;stroke-linecap:butt;stroke-linejoin:miter;stroke-opacity:1"
       d="m 457,349.36218 0,221 -375,0"
       id="path3130"
       inkscape:connector-curvature="0" />
    <path
       style="fill:none;stroke:#000000;stroke-width:1.00247502px;stroke-linecap:butt;stroke-linejoin:miter;stroke-opacity:1"
       d="m 82,591.36218 396.95762,0 0,-243"
       id="path3132"
       inkscape:connector-curvature="0" />
    <path
       style="fill:none;stroke:#000000;stroke-width:1px;stroke-linecap:butt;stroke-linejoin:miter;stroke-opacity:1"
       d="m 439,839.36218 0,37 -112,0 0,-87 -237,0"
       id="path3138"
       inkscape:connector-curvature="0" />
    <path
       style="fill:none;stroke:#000000;stroke-width:1px;stroke-linecap:butt;stroke-linejoin:miter;stroke-opacity:1"
       d="m 52,690.36218 0,-23 351,0 0,136"
       id="path3155"
       inkscape:connector-curvature="0" />
    <path
       style="fill:none;stroke:#000000;stroke-width:0.99068391px;stroke-linecap:butt;stroke-linejoin:miter;stroke-opacity:1"
       d="m 53.425094,704.36218 -30.425094,0 0,-65 401.41495,0 0,164"
       id="path3157"
       inkscape:connector-curvature="0" />
    <path
       style="fill:none;stroke:#000000;stroke-width:1px;stroke-linecap:butt;stroke-linejoin:miter;stroke-opacity:1"
       d="m 439,802.36218 0,-172 -449,0 0,88 59,0"
       id="path3159"
       inkscape:connector-curvature="0" />
    <path
       style="fill:none;stroke:#000000;stroke-width:0.99736083px;stroke-linecap:butt;stroke-linejoin:miter;stroke-opacity:1"
       d="m 50.615187,736.36218 -72.615187,0 0,-119 478.46445,0 0,183"
       id="path3161"
       inkscape:connector-curvature="0" />
    <path
       style="fill:none;stroke:#000000;stroke-width:1px;stroke-linecap:butt;stroke-linejoin:miter;stroke-opacity:1"
       d="m 471,799.36218 0,-189 -507,0 0,142 89,0"
       id="path3163"
       inkscape:connector-curvature="0" />
    <path
       style="fill:none;stroke:#000000;stroke-width:1px;stroke-linecap:butt;stroke-linejoin:miter;stroke-opacity:1"
       d="m 491,798.36218 0,-192 -544,0 0,163 103,0"
       id="path3165"
       inkscape:connector-curvature="0" />
    <path
       style="fill:none;stroke:#000000;stroke-width:1px;stroke-linecap:butt;stroke-linejoin:miter;stroke-opacity:1"
       d="m 384,841.36218 -22,0 0,-109 -275,0"
       id="path3169"
       inkscape:connector-curvature="0" />
    <path
       style="fill:none;stroke:#00ff00;stroke-width:1px;stroke-linecap:butt;stroke-linejoin:miter;stroke-opacity:1"
       d="m 404,841.36218 0,20 -50,0 0,-112 -266,0"
       id="path3171"
       inkscape:connector-curvature="0" />
    <path
       style="fill:none;stroke:#000000;stroke-width:1px;stroke-linecap:butt;stroke-linejoin:miter;stroke-opacity:1"
       d="m 422,840.36218 0,27 -83,0 0,-95 -251,0"
       id="path3173"
       inkscape:connector-curvature="0" />
    <path
       style="fill:none;stroke:#000000;stroke-width:1px;stroke-linecap:butt;stroke-linejoin:miter;stroke-opacity:1"
       d="m 455,840.36218 0,46 -150,0 0,-78 -217,0"
       id="path3175"
       inkscape:connector-curvature="0" />
    <path
       style="fill:none;stroke:#000000;stroke-width:1px;stroke-linecap:butt;stroke-linejoin:miter;stroke-opacity:1"
       d="m 36,710.36218 69,0"
       id="path3177"
       inkscape:connector-curvature="0" />
    <path
       style="fill:none;stroke:#000000;stroke-width:1px;stroke-linecap:butt;stroke-linejoin:miter;stroke-opacity:1"
       d="m 37,696.36218 68,0"
       id="path3179"
       inkscape:connector-curvature="0" />
    <path
       style="fill:none;stroke:#000000;stroke-width:1px;stroke-linecap:butt;stroke-linejoin:miter;stroke-opacity:1"
       d="m 71,682.36218 0,201"
       id="path3181"
       inkscape:connector-curvature="0" />
    <path
       style="fill:none;stroke:#000000;stroke-width:1px;stroke-linecap:butt;stroke-linejoin:miter;stroke-opacity:1"
       d="m 473,843.36218 0,52 -189,0 0,-69 -196,0"
       id="path3183"
       inkscape:connector-curvature="0" />
    <path
       style="fill:none;stroke:#008000;stroke-width:1px;stroke-linecap:butt;stroke-linejoin:miter;stroke-opacity:1"
       d="m 542,801.36218 0,-45 79,0 0,154 -357,0 0,-60 -178,0"
       id="path3185"
       inkscape:connector-curvature="0" />
    <path
       style="fill:none;stroke:#0000ff;stroke-width:1px;stroke-linecap:butt;stroke-linejoin:miter;stroke-opacity:1"
       d="m 543,841.36218 0,79 -302,0 0,-49 -154,0"
       id="path3187"
       inkscape:connector-curvature="0" />
    <path
       style="fill:none;stroke:#000000;stroke-width:1px;stroke-linecap:butt;stroke-linejoin:miter;stroke-opacity:1"
       d="m 526,801.36218 0,-203 -608,0 0,188 132,0"
       id="path3201"
       inkscape:connector-curvature="0" />
    <path
       style="fill:none;stroke:#000000;stroke-width:1px;stroke-linecap:butt;stroke-linejoin:miter;stroke-opacity:1"
       d="m 53,809.36218 -77,0 0,133 684,0 0,-754 -192,0 0,-25"
       id="path3203"
       inkscape:connector-curvature="0" />
    <path
       style="fill:none;stroke:#000000;stroke-width:1px;stroke-linecap:butt;stroke-linejoin:miter;stroke-opacity:1"
       d="m 490,162.36218 0,21 187,0 0,777 -723,0 0,-134 95,0"
       id="path3205"
       inkscape:connector-curvature="0" />
    <path
       style="fill:none;stroke:#000000;stroke-width:1px;stroke-linecap:butt;stroke-linejoin:miter;stroke-opacity:1"
       d="m 35,70.362183 0,-48 457,0 0,102.999997"
       id="path3207"
       inkscape:connector-curvature="0" />
    <text
       xml:space="preserve"
       style="font-size:12px;font-style:normal;font-variant:normal;font-weight:normal;font-stretch:normal;text-align:start;line-height:125%;letter-spacing:0px;word-spacing:0px;writing-mode:lr-tb;text-anchor:start;fill:#000000;fill-opacity:1;stroke:none;font-family:Sans;-inkscape-font-specification:Sans"
       x="521"
       y="139.36218"
       id="text3119"
       sodipodi:linespacing="125%"><tspan
         sodipodi:role="line"
         id="tspan3121"
         x="521"
         y="139.36218">1</tspan></text>
    <text
       xml:space="preserve"
       style="font-size:12px;font-style:normal;font-variant:normal;font-weight:normal;font-stretch:normal;text-align:start;line-height:125%;letter-spacing:0px;word-spacing:0px;writing-mode:lr-tb;text-anchor:start;fill:#000000;fill-opacity:1;stroke:none;font-family:Sans;-inkscape-font-specification:Sans"
       x="529.07715"
       y="324.73621"
       id="text3119-9"
       sodipodi:linespacing="125%"><tspan
         sodipodi:role="line"
         id="tspan3121-6"
         x="529.07715"
         y="324.73621">1</tspan></text>
    <text
       xml:space="preserve"
       style="font-size:12px;font-style:normal;font-variant:normal;font-weight:normal;font-stretch:normal;text-align:start;line-height:125%;letter-spacing:0px;word-spacing:0px;writing-mode:lr-tb;text-anchor:start;fill:#000000;fill-opacity:1;stroke:none;font-family:Sans;-inkscape-font-specification:Sans"
       x="558.07715"
       y="813.73621"
       id="text3119-2"
       sodipodi:linespacing="125%"><tspan
         sodipodi:role="line"
         id="tspan3121-2"
         x="558.07715"
         y="813.73621">1</tspan></text>
    <text
       xml:space="preserve"
       style="font-size:12px;font-style:normal;font-variant:normal;font-weight:normal;font-stretch:normal;text-align:start;line-height:125%;letter-spacing:0px;word-spacing:0px;writing-mode:lr-tb;text-anchor:start;fill:#000000;fill-opacity:1;stroke:none;font-family:Sans;-inkscape-font-specification:Sans"
       x="505"
       y="66.362183"
       id="text3153"
       sodipodi:linespacing="125%"><tspan
         sodipodi:role="line"
         id="tspan3155"
         x="505"
         y="66.362183">ser.in</tspan></text>
  </g>
</svg>
