solid OpenSCAD_Model
  facet normal -1 0 0
    outer loop
      vertex -46.6 -47 11.1
      vertex -46.6 -39 14.1
      vertex -46.6 -39 11.1
    endloop
  endfacet
  facet normal -1 0 0
    outer loop
      vertex -46.6 -60.5 14.1
      vertex -46.6 -47 11.1
      vertex -46.6 -60.5 11.1
    endloop
  endfacet
  facet normal -1 0 0
    outer loop
      vertex -46.6 -47 11.1
      vertex -46.6 -60.5 14.1
      vertex -46.6 -39 14.1
    endloop
  endfacet
  facet normal -1 0 0
    outer loop
      vertex -46.6 47 11.1
      vertex -46.6 60.5 14.1
      vertex -46.6 60.5 11.1
    endloop
  endfacet
  facet normal -1 0 0
    outer loop
      vertex -46.6 39 14.1
      vertex -46.6 47 11.1
      vertex -46.6 39 11.1
    endloop
  endfacet
  facet normal -1 0 0
    outer loop
      vertex -46.6 47 11.1
      vertex -46.6 39 14.1
      vertex -46.6 60.5 14.1
    endloop
  endfacet
  facet normal -0 0 1
    outer loop
      vertex -46.6 -39 14.1
      vertex -42.4 -60.5 14.1
      vertex -42.4 -39 14.1
    endloop
  endfacet
  facet normal 0 0 1
    outer loop
      vertex -42.4 -60.5 14.1
      vertex -46.6 -39 14.1
      vertex -46.6 -60.5 14.1
    endloop
  endfacet
  facet normal -0 0 1
    outer loop
      vertex -46.6 60.5 14.1
      vertex -42.4 39 14.1
      vertex -42.4 60.5 14.1
    endloop
  endfacet
  facet normal 0 0 1
    outer loop
      vertex -42.4 39 14.1
      vertex -46.6 60.5 14.1
      vertex -46.6 39 14.1
    endloop
  endfacet
  facet normal 1 0 0
    outer loop
      vertex -42.4 -39 14.1
      vertex -42.4 -47 11.1
      vertex -42.4 -39 0.6
    endloop
  endfacet
  facet normal 1 -0 0
    outer loop
      vertex -42.4 -60.5 14.1
      vertex -42.4 -47 11.1
      vertex -42.4 -39 14.1
    endloop
  endfacet
  facet normal 1 0 0
    outer loop
      vertex -42.4 -47 11.1
      vertex -42.4 -60.5 14.1
      vertex -42.4 -60.5 11.1
    endloop
  endfacet
  facet normal 1 0 0
    outer loop
      vertex -42.4 60.5 14.1
      vertex -42.4 47 11.1
      vertex -42.4 60.5 11.1
    endloop
  endfacet
  facet normal 1 -0 0
    outer loop
      vertex -42.4 39 14.1
      vertex -42.4 47 11.1
      vertex -42.4 60.5 14.1
    endloop
  endfacet
  facet normal 1 0 0
    outer loop
      vertex -42.4 39 0.6
      vertex -42.4 47 11.1
      vertex -42.4 39 14.1
    endloop
  endfacet
  facet normal 1 0 0
    outer loop
      vertex -42.4 47 11.1
      vertex -42.4 39 0.6
      vertex -42.4 47 -4.4
    endloop
  endfacet
  facet normal 1 -0 0
    outer loop
      vertex -42.4 -39 0.6
      vertex -42.4 47 -4.4
      vertex -42.4 39 0.6
    endloop
  endfacet
  facet normal 1 0 0
    outer loop
      vertex -42.4 -39 0.6
      vertex -42.4 -47 -4.4
      vertex -42.4 47 -4.4
    endloop
  endfacet
  facet normal 1 0 0
    outer loop
      vertex -42.4 -47 -4.4
      vertex -42.4 -39 0.6
      vertex -42.4 -47 11.1
    endloop
  endfacet
  facet normal 0 0 -1
    outer loop
      vertex -46.6 -60.5 11.1
      vertex -42.4 -47 11.1
      vertex -42.4 -60.5 11.1
    endloop
  endfacet
  facet normal -0 0 -1
    outer loop
      vertex -42.4 -47 11.1
      vertex -46.6 -60.5 11.1
      vertex -46.6 -47 11.1
    endloop
  endfacet
  facet normal -0 0 1
    outer loop
      vertex -47.6 -39 11.1
      vertex -46.6 -47 11.1
      vertex -46.6 -39 11.1
    endloop
  endfacet
  facet normal 0 0 1
    outer loop
      vertex -46.6 -47 11.1
      vertex -47.6 -39 11.1
      vertex -47.6 -47 11.1
    endloop
  endfacet
  facet normal 0 0 -1
    outer loop
      vertex -46.6 47 11.1
      vertex -42.4 60.5 11.1
      vertex -42.4 47 11.1
    endloop
  endfacet
  facet normal -0 0 -1
    outer loop
      vertex -42.4 60.5 11.1
      vertex -46.6 47 11.1
      vertex -46.6 60.5 11.1
    endloop
  endfacet
  facet normal -0 0 1
    outer loop
      vertex -47.6 47 11.1
      vertex -46.6 39 11.1
      vertex -46.6 47 11.1
    endloop
  endfacet
  facet normal 0 0 1
    outer loop
      vertex -46.6 39 11.1
      vertex -47.6 47 11.1
      vertex -47.6 39 11.1
    endloop
  endfacet
  facet normal 0 -1 0
    outer loop
      vertex -46.6 -60.5 11.1
      vertex -42.4 -60.5 14.1
      vertex -46.6 -60.5 14.1
    endloop
  endfacet
  facet normal 0 -1 -0
    outer loop
      vertex -42.4 -60.5 14.1
      vertex -46.6 -60.5 11.1
      vertex -42.4 -60.5 11.1
    endloop
  endfacet
  facet normal 0 1 -0
    outer loop
      vertex -42.4 60.5 11.1
      vertex -46.6 60.5 14.1
      vertex -42.4 60.5 14.1
    endloop
  endfacet
  facet normal 0 1 0
    outer loop
      vertex -46.6 60.5 14.1
      vertex -42.4 60.5 11.1
      vertex -46.6 60.5 11.1
    endloop
  endfacet
  facet normal -1 0 0
    outer loop
      vertex -47.6 -47 6.1
      vertex -47.6 -39 11.1
      vertex -47.6 -39 6.1
    endloop
  endfacet
  facet normal -1 -0 0
    outer loop
      vertex -47.6 -39 11.1
      vertex -47.6 -47 6.1
      vertex -47.6 -47 11.1
    endloop
  endfacet
  facet normal -1 0 0
    outer loop
      vertex -47.6 39 6.1
      vertex -47.6 47 11.1
      vertex -47.6 47 6.1
    endloop
  endfacet
  facet normal -1 -0 0
    outer loop
      vertex -47.6 47 11.1
      vertex -47.6 39 6.1
      vertex -47.6 39 11.1
    endloop
  endfacet
  facet normal 0 1 -0
    outer loop
      vertex -45.2 47 6.1
      vertex -46.6 47 11.1
      vertex -42.4 47 11.1
    endloop
  endfacet
  facet normal 0 1 0
    outer loop
      vertex -47.6 47 6.1
      vertex -46.6 47 11.1
      vertex -45.2 47 6.1
    endloop
  endfacet
  facet normal 0 1 -0
    outer loop
      vertex -42.4 47 -4.4
      vertex -45.2 47 6.1
      vertex -42.4 47 11.1
    endloop
  endfacet
  facet normal 0 1 0
    outer loop
      vertex -45.2 47 6.1
      vertex -42.4 47 -4.4
      vertex -45.2 47 -4.4
    endloop
  endfacet
  facet normal 0 1 0
    outer loop
      vertex -46.6 47 11.1
      vertex -47.6 47 6.1
      vertex -47.6 47 11.1
    endloop
  endfacet
  facet normal 0 0 -1
    outer loop
      vertex -45.2 -47 -4.4
      vertex -42.4 47 -4.4
      vertex -42.4 -47 -4.4
    endloop
  endfacet
  facet normal -0 0 -1
    outer loop
      vertex -42.4 47 -4.4
      vertex -45.2 -47 -4.4
      vertex -45.2 47 -4.4
    endloop
  endfacet
  facet normal 0 -1 0
    outer loop
      vertex -47.6 -47 6.1
      vertex -46.6 -47 11.1
      vertex -47.6 -47 11.1
    endloop
  endfacet
  facet normal 0 -1 -0
    outer loop
      vertex -46.6 -47 11.1
      vertex -47.6 -47 6.1
      vertex -45.2 -47 6.1
    endloop
  endfacet
  facet normal 0 -1 0
    outer loop
      vertex -46.6 -47 11.1
      vertex -45.2 -47 6.1
      vertex -42.4 -47 11.1
    endloop
  endfacet
  facet normal 0 -1 0
    outer loop
      vertex -42.4 -47 -4.4
      vertex -45.2 -47 6.1
      vertex -45.2 -47 -4.4
    endloop
  endfacet
  facet normal 0 -1 0
    outer loop
      vertex -45.2 -47 6.1
      vertex -42.4 -47 -4.4
      vertex -42.4 -47 11.1
    endloop
  endfacet
  facet normal 0 -1 0
    outer loop
      vertex -47.6 39 11.1
      vertex -47.6 39 6.1
      vertex -46.6 39 11.1
    endloop
  endfacet
  facet normal 0 -1 0
    outer loop
      vertex -46.6 39 11.1
      vertex -42.4 39 14.1
      vertex -46.6 39 14.1
    endloop
  endfacet
  facet normal 0 -1 0
    outer loop
      vertex -45.2 39 6.1
      vertex -46.6 39 11.1
      vertex -47.6 39 6.1
    endloop
  endfacet
  facet normal 0 -1 0
    outer loop
      vertex -46.6 39 11.1
      vertex -45.2 39 6.1
      vertex -42.4 39 14.1
    endloop
  endfacet
  facet normal 0 -1 0
    outer loop
      vertex -42.4 39 0.6
      vertex -45.2 39 6.1
      vertex -45.2 39 0.6
    endloop
  endfacet
  facet normal 0 -1 0
    outer loop
      vertex -45.2 39 6.1
      vertex -42.4 39 0.6
      vertex -42.4 39 14.1
    endloop
  endfacet
  facet normal -0 0 1
    outer loop
      vertex -45.2 39 0.6
      vertex -42.4 -39 0.6
      vertex -42.4 39 0.6
    endloop
  endfacet
  facet normal 0 0 1
    outer loop
      vertex -42.4 -39 0.6
      vertex -45.2 39 0.6
      vertex -45.2 -39 0.6
    endloop
  endfacet
  facet normal 0 1 0
    outer loop
      vertex -42.4 -39 14.1
      vertex -46.6 -39 11.1
      vertex -46.6 -39 14.1
    endloop
  endfacet
  facet normal 0 1 0
    outer loop
      vertex -47.6 -39 6.1
      vertex -46.6 -39 11.1
      vertex -45.2 -39 6.1
    endloop
  endfacet
  facet normal 0 1 0
    outer loop
      vertex -42.4 -39 14.1
      vertex -45.2 -39 6.1
      vertex -46.6 -39 11.1
    endloop
  endfacet
  facet normal 0 1 -0
    outer loop
      vertex -42.4 -39 0.6
      vertex -45.2 -39 6.1
      vertex -42.4 -39 14.1
    endloop
  endfacet
  facet normal 0 1 0
    outer loop
      vertex -45.2 -39 6.1
      vertex -42.4 -39 0.6
      vertex -45.2 -39 0.6
    endloop
  endfacet
  facet normal 0 1 0
    outer loop
      vertex -46.6 -39 11.1
      vertex -47.6 -39 6.1
      vertex -47.6 -39 11.1
    endloop
  endfacet
  facet normal 0 0 -1
    outer loop
      vertex -47.6 -47 6.1
      vertex -45.2 -39 6.1
      vertex -45.2 -47 6.1
    endloop
  endfacet
  facet normal -0 0 -1
    outer loop
      vertex -45.2 -39 6.1
      vertex -47.6 -47 6.1
      vertex -47.6 -39 6.1
    endloop
  endfacet
  facet normal 0 0 -1
    outer loop
      vertex -47.6 39 6.1
      vertex -45.2 47 6.1
      vertex -45.2 39 6.1
    endloop
  endfacet
  facet normal -0 0 -1
    outer loop
      vertex -45.2 47 6.1
      vertex -47.6 39 6.1
      vertex -47.6 47 6.1
    endloop
  endfacet
  facet normal -1 0 0
    outer loop
      vertex -45.2 47 -4.4
      vertex -45.2 39 0.6
      vertex -45.2 47 6.1
    endloop
  endfacet
  facet normal -1 0 0
    outer loop
      vertex -45.2 47 -4.4
      vertex -45.2 -39 0.6
      vertex -45.2 39 0.6
    endloop
  endfacet
  facet normal -1 0 0
    outer loop
      vertex -45.2 -47 -4.4
      vertex -45.2 -39 0.6
      vertex -45.2 47 -4.4
    endloop
  endfacet
  facet normal -1 0 0
    outer loop
      vertex -45.2 -47 6.1
      vertex -45.2 -39 0.6
      vertex -45.2 -47 -4.4
    endloop
  endfacet
  facet normal -1 0 0
    outer loop
      vertex -45.2 -39 0.6
      vertex -45.2 -47 6.1
      vertex -45.2 -39 6.1
    endloop
  endfacet
  facet normal -1 -0 0
    outer loop
      vertex -45.2 47 6.1
      vertex -45.2 39 0.6
      vertex -45.2 39 6.1
    endloop
  endfacet
endsolid OpenSCAD_Model
