solid OpenSCAD_Model
  facet normal 0 -1 0
    outer loop
      vertex -65.4 -54.5 -6.5
      vertex -45.4 -54.5 -7.5
      vertex -45.4 -54.5 -6.5
    endloop
  endfacet
  facet normal 0 -1 0
    outer loop
      vertex -50.4 -54.5 -50.5
      vertex -65.4 -54.5 -6.5
      vertex -70.4 -54.5 -49.5
    endloop
  endfacet
  facet normal 0 -1 0
    outer loop
      vertex -50.4 -54.5 -50.5
      vertex -70.4 -54.5 -49.5
      vertex -70.4 -54.5 -50.5
    endloop
  endfacet
  facet normal 0 -1 0
    outer loop
      vertex -65.4 -54.5 -6.5
      vertex -50.4 -54.5 -50.5
      vertex -45.4 -54.5 -7.5
    endloop
  endfacet
  facet normal 0 0 1
    outer loop
      vertex -45.4 54.5 -6.5
      vertex -62.4 51.5 -6.5
      vertex -45.4 51.5 -6.5
    endloop
  endfacet
  facet normal 0 0 1
    outer loop
      vertex -62.4 51.5 -6.5
      vertex -65.4 54.5 -6.5
      vertex -62.4 -51.5 -6.5
    endloop
  endfacet
  facet normal -0 0 1
    outer loop
      vertex -65.4 54.5 -6.5
      vertex -62.4 51.5 -6.5
      vertex -45.4 54.5 -6.5
    endloop
  endfacet
  facet normal -0 0 1
    outer loop
      vertex -62.4 -51.5 -6.5
      vertex -45.4 -54.5 -6.5
      vertex -45.4 -51.5 -6.5
    endloop
  endfacet
  facet normal 0 0 1
    outer loop
      vertex -62.4 -51.5 -6.5
      vertex -65.4 -54.5 -6.5
      vertex -45.4 -54.5 -6.5
    endloop
  endfacet
  facet normal 0 0 1
    outer loop
      vertex -65.4 -54.5 -6.5
      vertex -62.4 -51.5 -6.5
      vertex -65.4 54.5 -6.5
    endloop
  endfacet
  facet normal -1 0 0
    outer loop
      vertex -70.4 -54.5 -50.5
      vertex -70.4 54.5 -49.5
      vertex -70.4 54.5 -50.5
    endloop
  endfacet
  facet normal -1 -0 0
    outer loop
      vertex -70.4 54.5 -49.5
      vertex -70.4 -54.5 -50.5
      vertex -70.4 -54.5 -49.5
    endloop
  endfacet
  facet normal 0 0 -1
    outer loop
      vertex -50.4 -54.5 -50.5
      vertex -67.4 -51.5 -50.5
      vertex -50.4 -51.5 -50.5
    endloop
  endfacet
  facet normal -0 0 -1
    outer loop
      vertex -67.4 -51.5 -50.5
      vertex -70.4 -54.5 -50.5
      vertex -67.4 51.5 -50.5
    endloop
  endfacet
  facet normal 0 0 -1
    outer loop
      vertex -70.4 -54.5 -50.5
      vertex -67.4 -51.5 -50.5
      vertex -50.4 -54.5 -50.5
    endloop
  endfacet
  facet normal 0 0 -1
    outer loop
      vertex -67.4 51.5 -50.5
      vertex -50.4 54.5 -50.5
      vertex -50.4 51.5 -50.5
    endloop
  endfacet
  facet normal 0 0 -1
    outer loop
      vertex -67.4 51.5 -50.5
      vertex -70.4 54.5 -50.5
      vertex -50.4 54.5 -50.5
    endloop
  endfacet
  facet normal 0 0 -1
    outer loop
      vertex -70.4 54.5 -50.5
      vertex -67.4 51.5 -50.5
      vertex -70.4 -54.5 -50.5
    endloop
  endfacet
  facet normal 0 1 -0
    outer loop
      vertex -45.4 54.5 -7.5
      vertex -65.4 54.5 -6.5
      vertex -45.4 54.5 -6.5
    endloop
  endfacet
  facet normal 0 1 -0
    outer loop
      vertex -50.4 54.5 -50.5
      vertex -65.4 54.5 -6.5
      vertex -45.4 54.5 -7.5
    endloop
  endfacet
  facet normal 0 1 0
    outer loop
      vertex -65.4 54.5 -6.5
      vertex -50.4 54.5 -50.5
      vertex -70.4 54.5 -49.5
    endloop
  endfacet
  facet normal 0 1 0
    outer loop
      vertex -70.4 54.5 -49.5
      vertex -50.4 54.5 -50.5
      vertex -70.4 54.5 -50.5
    endloop
  endfacet
  facet normal -0.993307 0 0.115501
    outer loop
      vertex -70.4 -54.5 -49.5
      vertex -65.4 54.5 -6.5
      vertex -70.4 54.5 -49.5
    endloop
  endfacet
  facet normal -0.993307 0 0.115501
    outer loop
      vertex -65.4 54.5 -6.5
      vertex -70.4 -54.5 -49.5
      vertex -65.4 -54.5 -6.5
    endloop
  endfacet
  facet normal 0.993307 0 -0.1155
    outer loop
      vertex -45.8651 51.5 -11.5
      vertex -45.4 54.5 -7.5
      vertex -45.4 51.5 -7.5
    endloop
  endfacet
  facet normal 0.993307 1.26306e-06 -0.115501
    outer loop
      vertex -46.214 51.5 -14.5
      vertex -45.4 54.5 -7.5
      vertex -45.8651 51.5 -11.5
    endloop
  endfacet
  facet normal 0.993307 2.93734e-08 -0.115501
    outer loop
      vertex -45.4 54.5 -7.5
      vertex -46.214 51.5 -14.5
      vertex -50.4 54.5 -50.5
    endloop
  endfacet
  facet normal 0.993307 0 -0.115501
    outer loop
      vertex -50.4 54.5 -50.5
      vertex -46.214 51.5 -14.5
      vertex -50.4 51.5 -50.5
    endloop
  endfacet
  facet normal 0.993307 0 -0.1155
    outer loop
      vertex -45.4 -54.5 -7.5
      vertex -45.8651 -51.5 -11.5
      vertex -45.4 -51.5 -7.5
    endloop
  endfacet
  facet normal 0.993307 -1.26306e-06 -0.115501
    outer loop
      vertex -45.8651 -51.5 -11.5
      vertex -45.4 -54.5 -7.5
      vertex -46.214 -51.5 -14.5
    endloop
  endfacet
  facet normal 0.993307 -2.93734e-08 -0.115501
    outer loop
      vertex -50.4 -54.5 -50.5
      vertex -46.214 -51.5 -14.5
      vertex -45.4 -54.5 -7.5
    endloop
  endfacet
  facet normal 0.993307 0 -0.115501
    outer loop
      vertex -46.214 -51.5 -14.5
      vertex -50.4 -54.5 -50.5
      vertex -50.4 -51.5 -50.5
    endloop
  endfacet
  facet normal 1 -0 0
    outer loop
      vertex -45.4 51.5 -6.5
      vertex -45.4 54.5 -7.5
      vertex -45.4 54.5 -6.5
    endloop
  endfacet
  facet normal 1 0 0
    outer loop
      vertex -45.4 54.5 -7.5
      vertex -45.4 51.5 -6.5
      vertex -45.4 51.5 -7.5
    endloop
  endfacet
  facet normal 1 -0 0
    outer loop
      vertex -45.4 -54.5 -6.5
      vertex -45.4 -51.5 -7.5
      vertex -45.4 -51.5 -6.5
    endloop
  endfacet
  facet normal 1 0 0
    outer loop
      vertex -45.4 -51.5 -7.5
      vertex -45.4 -54.5 -6.5
      vertex -45.4 -54.5 -7.5
    endloop
  endfacet
  facet normal 0 -1 0
    outer loop
      vertex -45.4 -51.5 -14.5
      vertex -45.8651 -51.5 -11.5
      vertex -46.214 -51.5 -14.5
    endloop
  endfacet
  facet normal 0 -1 0
    outer loop
      vertex -45.8651 -51.5 -11.5
      vertex -45.4 -51.5 -14.5
      vertex -45.4 -51.5 -11.5
    endloop
  endfacet
  facet normal 0 1 -0
    outer loop
      vertex -45.4 -51.5 -7.5
      vertex -62.4 -51.5 -6.5
      vertex -45.4 -51.5 -6.5
    endloop
  endfacet
  facet normal 0 1 -0
    outer loop
      vertex -45.8651 -51.5 -11.5
      vertex -62.4 -51.5 -6.5
      vertex -45.4 -51.5 -7.5
    endloop
  endfacet
  facet normal 0 1 0
    outer loop
      vertex -62.4 -51.5 -6.5
      vertex -45.8651 -51.5 -11.5
      vertex -62.9814 -51.5 -11.5
    endloop
  endfacet
  facet normal 0 1 -0
    outer loop
      vertex -50.4 -51.5 -50.5
      vertex -63.3302 -51.5 -14.5
      vertex -46.214 -51.5 -14.5
    endloop
  endfacet
  facet normal 0 1 0
    outer loop
      vertex -63.3302 -51.5 -14.5
      vertex -50.4 -51.5 -50.5
      vertex -67.4 -51.5 -49.5
    endloop
  endfacet
  facet normal 0 1 0
    outer loop
      vertex -67.4 -51.5 -49.5
      vertex -50.4 -51.5 -50.5
      vertex -67.4 -51.5 -50.5
    endloop
  endfacet
  facet normal 1 -0 0
    outer loop
      vertex -67.4 -51.5 -49.5
      vertex -67.4 51.5 -50.5
      vertex -67.4 51.5 -49.5
    endloop
  endfacet
  facet normal 1 0 0
    outer loop
      vertex -67.4 51.5 -50.5
      vertex -67.4 -51.5 -49.5
      vertex -67.4 -51.5 -50.5
    endloop
  endfacet
  facet normal 0 1 -0
    outer loop
      vertex -45.4 51.5 -14.5
      vertex -45.8651 51.5 -11.5
      vertex -45.4 51.5 -11.5
    endloop
  endfacet
  facet normal 0 1 0
    outer loop
      vertex -45.8651 51.5 -11.5
      vertex -45.4 51.5 -14.5
      vertex -46.214 51.5 -14.5
    endloop
  endfacet
  facet normal 0 -1 0
    outer loop
      vertex -62.4 51.5 -6.5
      vertex -45.4 51.5 -7.5
      vertex -45.4 51.5 -6.5
    endloop
  endfacet
  facet normal 0 -1 0
    outer loop
      vertex -45.8651 51.5 -11.5
      vertex -62.4 51.5 -6.5
      vertex -62.9814 51.5 -11.5
    endloop
  endfacet
  facet normal 0 -1 0
    outer loop
      vertex -62.4 51.5 -6.5
      vertex -45.8651 51.5 -11.5
      vertex -45.4 51.5 -7.5
    endloop
  endfacet
  facet normal 0 -1 0
    outer loop
      vertex -50.4 51.5 -50.5
      vertex -63.3302 51.5 -14.5
      vertex -67.4 51.5 -49.5
    endloop
  endfacet
  facet normal 0 -1 0
    outer loop
      vertex -50.4 51.5 -50.5
      vertex -67.4 51.5 -49.5
      vertex -67.4 51.5 -50.5
    endloop
  endfacet
  facet normal 0 -1 0
    outer loop
      vertex -63.3302 51.5 -14.5
      vertex -50.4 51.5 -50.5
      vertex -46.214 51.5 -14.5
    endloop
  endfacet
  facet normal 0.993307 0 -0.115501
    outer loop
      vertex -62.4 -51.5 -6.5
      vertex -62.9814 51.5 -11.5
      vertex -62.4 51.5 -6.5
    endloop
  endfacet
  facet normal 0.993307 0 -0.115501
    outer loop
      vertex -62.9814 51.5 -11.5
      vertex -62.4 -51.5 -6.5
      vertex -62.9814 -51.5 -11.5
    endloop
  endfacet
  facet normal 0.993307 0 -0.115501
    outer loop
      vertex -63.3302 -51.5 -14.5
      vertex -67.4 51.5 -49.5
      vertex -63.3302 51.5 -14.5
    endloop
  endfacet
  facet normal 0.993307 0 -0.115501
    outer loop
      vertex -67.4 51.5 -49.5
      vertex -63.3302 -51.5 -14.5
      vertex -67.4 -51.5 -49.5
    endloop
  endfacet
  facet normal 0 0 1
    outer loop
      vertex -45.4 51.5 -11.5
      vertex -49.6854 46.8748 -11.5
      vertex -49.6539 46.6256 -11.5
    endloop
  endfacet
  facet normal 0 0 1
    outer loop
      vertex -45.8651 51.5 -11.5
      vertex -49.7479 47.118 -11.5
      vertex -49.6854 46.8748 -11.5
    endloop
  endfacet
  facet normal 0 0 1
    outer loop
      vertex -45.8651 51.5 -11.5
      vertex -49.8403 47.3516 -11.5
      vertex -49.7479 47.118 -11.5
    endloop
  endfacet
  facet normal 0 0 1
    outer loop
      vertex -45.8651 51.5 -11.5
      vertex -49.9613 47.5717 -11.5
      vertex -49.8403 47.3516 -11.5
    endloop
  endfacet
  facet normal 0 0 1
    outer loop
      vertex -45.8651 51.5 -11.5
      vertex -50.109 47.7748 -11.5
      vertex -49.9613 47.5717 -11.5
    endloop
  endfacet
  facet normal 0 0 1
    outer loop
      vertex -45.8651 51.5 -11.5
      vertex -50.2809 47.9579 -11.5
      vertex -50.109 47.7748 -11.5
    endloop
  endfacet
  facet normal 0 0 1
    outer loop
      vertex -45.8651 51.5 -11.5
      vertex -50.4744 48.118 -11.5
      vertex -50.2809 47.9579 -11.5
    endloop
  endfacet
  facet normal 0 0 1
    outer loop
      vertex -45.8651 51.5 -11.5
      vertex -50.6865 48.2526 -11.5
      vertex -50.4744 48.118 -11.5
    endloop
  endfacet
  facet normal 0 0 1
    outer loop
      vertex -45.8651 51.5 -11.5
      vertex -50.9137 48.3596 -11.5
      vertex -50.6865 48.2526 -11.5
    endloop
  endfacet
  facet normal 0 0 1
    outer loop
      vertex -45.8651 51.5 -11.5
      vertex -51.1526 48.4372 -11.5
      vertex -50.9137 48.3596 -11.5
    endloop
  endfacet
  facet normal 0 0 1
    outer loop
      vertex -45.8651 51.5 -11.5
      vertex -51.3993 48.4842 -11.5
      vertex -51.1526 48.4372 -11.5
    endloop
  endfacet
  facet normal 0 0 1
    outer loop
      vertex -45.8651 51.5 -11.5
      vertex -51.65 48.5 -11.5
      vertex -51.3993 48.4842 -11.5
    endloop
  endfacet
  facet normal 0 0 1
    outer loop
      vertex -45.8651 51.5 -11.5
      vertex -51.9007 48.4842 -11.5
      vertex -51.65 48.5 -11.5
    endloop
  endfacet
  facet normal 0 0 1
    outer loop
      vertex -45.8651 51.5 -11.5
      vertex -52.1474 48.4372 -11.5
      vertex -51.9007 48.4842 -11.5
    endloop
  endfacet
  facet normal -0 0 1
    outer loop
      vertex -62.9814 51.5 -11.5
      vertex -52.1474 48.4372 -11.5
      vertex -45.8651 51.5 -11.5
    endloop
  endfacet
  facet normal 0 0 1
    outer loop
      vertex -52.1474 48.4372 -11.5
      vertex -62.9814 51.5 -11.5
      vertex -52.3862 48.3596 -11.5
    endloop
  endfacet
  facet normal 0 0 1
    outer loop
      vertex -62.9814 51.5 -11.5
      vertex -53.6461 46.3744 -11.5
      vertex -53.6461 46.6256 -11.5
    endloop
  endfacet
  facet normal 0 0 1
    outer loop
      vertex -62.9814 51.5 -11.5
      vertex -53.6461 46.6256 -11.5
      vertex -53.6146 46.8748 -11.5
    endloop
  endfacet
  facet normal 0 0 1
    outer loop
      vertex -62.9814 51.5 -11.5
      vertex -53.6146 46.8748 -11.5
      vertex -53.5521 47.118 -11.5
    endloop
  endfacet
  facet normal 0 0 1
    outer loop
      vertex -55.4 41 -11.5
      vertex -62.9814 51.5 -11.5
      vertex -55.4 -41 -11.5
    endloop
  endfacet
  facet normal 0 0 1
    outer loop
      vertex -53.6461 46.3744 -11.5
      vertex -62.9814 51.5 -11.5
      vertex -55.4 41 -11.5
    endloop
  endfacet
  facet normal 0 0 1
    outer loop
      vertex -53.4597 47.3516 -11.5
      vertex -62.9814 51.5 -11.5
      vertex -53.5521 47.118 -11.5
    endloop
  endfacet
  facet normal 0 0 1
    outer loop
      vertex -53.3387 47.5717 -11.5
      vertex -62.9814 51.5 -11.5
      vertex -53.4597 47.3516 -11.5
    endloop
  endfacet
  facet normal 0 0 1
    outer loop
      vertex -53.191 47.7748 -11.5
      vertex -62.9814 51.5 -11.5
      vertex -53.3387 47.5717 -11.5
    endloop
  endfacet
  facet normal 0 0 1
    outer loop
      vertex -53.0191 47.9579 -11.5
      vertex -62.9814 51.5 -11.5
      vertex -53.191 47.7748 -11.5
    endloop
  endfacet
  facet normal 0 0 1
    outer loop
      vertex -52.8256 48.118 -11.5
      vertex -62.9814 51.5 -11.5
      vertex -53.0191 47.9579 -11.5
    endloop
  endfacet
  facet normal 0 0 1
    outer loop
      vertex -52.6135 48.2526 -11.5
      vertex -62.9814 51.5 -11.5
      vertex -52.8256 48.118 -11.5
    endloop
  endfacet
  facet normal 0 0 1
    outer loop
      vertex -52.3862 48.3596 -11.5
      vertex -62.9814 51.5 -11.5
      vertex -52.6135 48.2526 -11.5
    endloop
  endfacet
  facet normal 0 0 1
    outer loop
      vertex -49.6854 46.8748 -11.5
      vertex -45.4 51.5 -11.5
      vertex -45.8651 51.5 -11.5
    endloop
  endfacet
  facet normal 0 0 1
    outer loop
      vertex -45.4 51.5 -11.5
      vertex -49.6539 46.6256 -11.5
      vertex -49.6539 46.3744 -11.5
    endloop
  endfacet
  facet normal 0 0 1
    outer loop
      vertex -45.4 51.5 -11.5
      vertex -49.6539 46.3744 -11.5
      vertex -45.4 41 -11.5
    endloop
  endfacet
  facet normal -0 0 1
    outer loop
      vertex -49.6854 46.1252 -11.5
      vertex -45.4 41 -11.5
      vertex -49.6539 46.3744 -11.5
    endloop
  endfacet
  facet normal -0 0 1
    outer loop
      vertex -49.7479 45.882 -11.5
      vertex -45.4 41 -11.5
      vertex -49.6854 46.1252 -11.5
    endloop
  endfacet
  facet normal -0 0 1
    outer loop
      vertex -49.8403 45.6484 -11.5
      vertex -45.4 41 -11.5
      vertex -49.7479 45.882 -11.5
    endloop
  endfacet
  facet normal -0 0 1
    outer loop
      vertex -49.9613 45.4283 -11.5
      vertex -45.4 41 -11.5
      vertex -49.8403 45.6484 -11.5
    endloop
  endfacet
  facet normal -0 0 1
    outer loop
      vertex -50.109 45.2252 -11.5
      vertex -45.4 41 -11.5
      vertex -49.9613 45.4283 -11.5
    endloop
  endfacet
  facet normal -0 0 1
    outer loop
      vertex -50.2809 45.0421 -11.5
      vertex -45.4 41 -11.5
      vertex -50.109 45.2252 -11.5
    endloop
  endfacet
  facet normal -0 0 1
    outer loop
      vertex -50.4744 44.882 -11.5
      vertex -45.4 41 -11.5
      vertex -50.2809 45.0421 -11.5
    endloop
  endfacet
  facet normal -0 0 1
    outer loop
      vertex -50.6865 44.7474 -11.5
      vertex -45.4 41 -11.5
      vertex -50.4744 44.882 -11.5
    endloop
  endfacet
  facet normal -0 0 1
    outer loop
      vertex -50.9137 44.6404 -11.5
      vertex -45.4 41 -11.5
      vertex -50.6865 44.7474 -11.5
    endloop
  endfacet
  facet normal -0 0 1
    outer loop
      vertex -51.1526 44.5628 -11.5
      vertex -45.4 41 -11.5
      vertex -50.9137 44.6404 -11.5
    endloop
  endfacet
  facet normal -0 0 1
    outer loop
      vertex -51.3993 44.5158 -11.5
      vertex -45.4 41 -11.5
      vertex -51.1526 44.5628 -11.5
    endloop
  endfacet
  facet normal 0 0 1
    outer loop
      vertex -55.4 41 -11.5
      vertex -51.3993 44.5158 -11.5
      vertex -51.65 44.5 -11.5
    endloop
  endfacet
  facet normal 0 0 1
    outer loop
      vertex -55.4 41 -11.5
      vertex -51.65 44.5 -11.5
      vertex -51.9007 44.5158 -11.5
    endloop
  endfacet
  facet normal 0 0 1
    outer loop
      vertex -55.4 41 -11.5
      vertex -51.9007 44.5158 -11.5
      vertex -52.1474 44.5628 -11.5
    endloop
  endfacet
  facet normal 0 0 1
    outer loop
      vertex -55.4 41 -11.5
      vertex -52.1474 44.5628 -11.5
      vertex -52.3862 44.6404 -11.5
    endloop
  endfacet
  facet normal 0 0 1
    outer loop
      vertex -55.4 41 -11.5
      vertex -52.3862 44.6404 -11.5
      vertex -52.6135 44.7474 -11.5
    endloop
  endfacet
  facet normal 0 0 1
    outer loop
      vertex -51.3993 44.5158 -11.5
      vertex -55.4 41 -11.5
      vertex -45.4 41 -11.5
    endloop
  endfacet
  facet normal 0 0 1
    outer loop
      vertex -52.8256 44.882 -11.5
      vertex -55.4 41 -11.5
      vertex -52.6135 44.7474 -11.5
    endloop
  endfacet
  facet normal 0 0 1
    outer loop
      vertex -53.0191 45.0421 -11.5
      vertex -55.4 41 -11.5
      vertex -52.8256 44.882 -11.5
    endloop
  endfacet
  facet normal 0 0 1
    outer loop
      vertex -53.191 45.2252 -11.5
      vertex -55.4 41 -11.5
      vertex -53.0191 45.0421 -11.5
    endloop
  endfacet
  facet normal 0 0 1
    outer loop
      vertex -53.3387 45.4283 -11.5
      vertex -55.4 41 -11.5
      vertex -53.191 45.2252 -11.5
    endloop
  endfacet
  facet normal 0 0 1
    outer loop
      vertex -53.4597 45.6484 -11.5
      vertex -55.4 41 -11.5
      vertex -53.3387 45.4283 -11.5
    endloop
  endfacet
  facet normal 0 0 1
    outer loop
      vertex -53.5521 45.882 -11.5
      vertex -55.4 41 -11.5
      vertex -53.4597 45.6484 -11.5
    endloop
  endfacet
  facet normal 0 0 1
    outer loop
      vertex -53.6146 46.1252 -11.5
      vertex -55.4 41 -11.5
      vertex -53.5521 45.882 -11.5
    endloop
  endfacet
  facet normal 0 0 1
    outer loop
      vertex -55.4 41 -11.5
      vertex -53.6146 46.1252 -11.5
      vertex -53.6461 46.3744 -11.5
    endloop
  endfacet
  facet normal -0 0 1
    outer loop
      vertex -49.6539 -46.3744 -11.5
      vertex -45.4 -51.5 -11.5
      vertex -45.4 -41 -11.5
    endloop
  endfacet
  facet normal -0 0 1
    outer loop
      vertex -49.6539 -46.6256 -11.5
      vertex -45.4 -51.5 -11.5
      vertex -49.6539 -46.3744 -11.5
    endloop
  endfacet
  facet normal 0 0 1
    outer loop
      vertex -45.4 -41 -11.5
      vertex -49.6854 -46.1252 -11.5
      vertex -49.6539 -46.3744 -11.5
    endloop
  endfacet
  facet normal 0 0 1
    outer loop
      vertex -45.4 -41 -11.5
      vertex -49.7479 -45.882 -11.5
      vertex -49.6854 -46.1252 -11.5
    endloop
  endfacet
  facet normal 0 0 1
    outer loop
      vertex -45.4 -41 -11.5
      vertex -49.8403 -45.6484 -11.5
      vertex -49.7479 -45.882 -11.5
    endloop
  endfacet
  facet normal 0 0 1
    outer loop
      vertex -45.4 -41 -11.5
      vertex -49.9613 -45.4283 -11.5
      vertex -49.8403 -45.6484 -11.5
    endloop
  endfacet
  facet normal 0 0 1
    outer loop
      vertex -45.4 -41 -11.5
      vertex -50.109 -45.2252 -11.5
      vertex -49.9613 -45.4283 -11.5
    endloop
  endfacet
  facet normal 0 0 1
    outer loop
      vertex -45.4 -41 -11.5
      vertex -50.2809 -45.0421 -11.5
      vertex -50.109 -45.2252 -11.5
    endloop
  endfacet
  facet normal 0 0 1
    outer loop
      vertex -45.4 -41 -11.5
      vertex -50.4744 -44.882 -11.5
      vertex -50.2809 -45.0421 -11.5
    endloop
  endfacet
  facet normal 0 0 1
    outer loop
      vertex -45.4 -41 -11.5
      vertex -50.6865 -44.7474 -11.5
      vertex -50.4744 -44.882 -11.5
    endloop
  endfacet
  facet normal 0 0 1
    outer loop
      vertex -45.4 -41 -11.5
      vertex -50.9137 -44.6404 -11.5
      vertex -50.6865 -44.7474 -11.5
    endloop
  endfacet
  facet normal 0 0 1
    outer loop
      vertex -45.4 -41 -11.5
      vertex -51.1526 -44.5628 -11.5
      vertex -50.9137 -44.6404 -11.5
    endloop
  endfacet
  facet normal 0 0 1
    outer loop
      vertex -45.4 -41 -11.5
      vertex -51.3993 -44.5158 -11.5
      vertex -51.1526 -44.5628 -11.5
    endloop
  endfacet
  facet normal -0 0 1
    outer loop
      vertex -55.4 -41 -11.5
      vertex -51.3993 -44.5158 -11.5
      vertex -45.4 -41 -11.5
    endloop
  endfacet
  facet normal 0 0 1
    outer loop
      vertex -51.3993 -44.5158 -11.5
      vertex -55.4 -41 -11.5
      vertex -51.65 -44.5 -11.5
    endloop
  endfacet
  facet normal 0 0 1
    outer loop
      vertex -51.65 -44.5 -11.5
      vertex -55.4 -41 -11.5
      vertex -51.9007 -44.5158 -11.5
    endloop
  endfacet
  facet normal 0 0 1
    outer loop
      vertex -51.9007 -44.5158 -11.5
      vertex -55.4 -41 -11.5
      vertex -52.1474 -44.5628 -11.5
    endloop
  endfacet
  facet normal 0 0 1
    outer loop
      vertex -52.1474 -44.5628 -11.5
      vertex -55.4 -41 -11.5
      vertex -52.3862 -44.6404 -11.5
    endloop
  endfacet
  facet normal 0 0 1
    outer loop
      vertex -62.9814 -51.5 -11.5
      vertex -53.6461 -46.3744 -11.5
      vertex -55.4 -41 -11.5
    endloop
  endfacet
  facet normal 0 0 1
    outer loop
      vertex -53.6146 -46.1252 -11.5
      vertex -55.4 -41 -11.5
      vertex -53.6461 -46.3744 -11.5
    endloop
  endfacet
  facet normal 0 0 1
    outer loop
      vertex -53.5521 -45.882 -11.5
      vertex -55.4 -41 -11.5
      vertex -53.6146 -46.1252 -11.5
    endloop
  endfacet
  facet normal 0 0 1
    outer loop
      vertex -53.4597 -45.6484 -11.5
      vertex -55.4 -41 -11.5
      vertex -53.5521 -45.882 -11.5
    endloop
  endfacet
  facet normal 0 0 1
    outer loop
      vertex -53.3387 -45.4283 -11.5
      vertex -55.4 -41 -11.5
      vertex -53.4597 -45.6484 -11.5
    endloop
  endfacet
  facet normal 0 0 1
    outer loop
      vertex -53.191 -45.2252 -11.5
      vertex -55.4 -41 -11.5
      vertex -53.3387 -45.4283 -11.5
    endloop
  endfacet
  facet normal 0 0 1
    outer loop
      vertex -53.0191 -45.0421 -11.5
      vertex -55.4 -41 -11.5
      vertex -53.191 -45.2252 -11.5
    endloop
  endfacet
  facet normal 0 0 1
    outer loop
      vertex -52.8256 -44.882 -11.5
      vertex -55.4 -41 -11.5
      vertex -53.0191 -45.0421 -11.5
    endloop
  endfacet
  facet normal 0 0 1
    outer loop
      vertex -52.6135 -44.7474 -11.5
      vertex -55.4 -41 -11.5
      vertex -52.8256 -44.882 -11.5
    endloop
  endfacet
  facet normal 0 0 1
    outer loop
      vertex -52.3862 -44.6404 -11.5
      vertex -55.4 -41 -11.5
      vertex -52.6135 -44.7474 -11.5
    endloop
  endfacet
  facet normal -0 0 1
    outer loop
      vertex -49.6854 -46.8748 -11.5
      vertex -45.4 -51.5 -11.5
      vertex -49.6539 -46.6256 -11.5
    endloop
  endfacet
  facet normal 0 0 1
    outer loop
      vertex -45.4 -51.5 -11.5
      vertex -49.6854 -46.8748 -11.5
      vertex -45.8651 -51.5 -11.5
    endloop
  endfacet
  facet normal -0 0 1
    outer loop
      vertex -49.7479 -47.118 -11.5
      vertex -45.8651 -51.5 -11.5
      vertex -49.6854 -46.8748 -11.5
    endloop
  endfacet
  facet normal -0 0 1
    outer loop
      vertex -49.8403 -47.3516 -11.5
      vertex -45.8651 -51.5 -11.5
      vertex -49.7479 -47.118 -11.5
    endloop
  endfacet
  facet normal -0 0 1
    outer loop
      vertex -49.9613 -47.5717 -11.5
      vertex -45.8651 -51.5 -11.5
      vertex -49.8403 -47.3516 -11.5
    endloop
  endfacet
  facet normal -0 0 1
    outer loop
      vertex -50.109 -47.7748 -11.5
      vertex -45.8651 -51.5 -11.5
      vertex -49.9613 -47.5717 -11.5
    endloop
  endfacet
  facet normal -0 0 1
    outer loop
      vertex -50.2809 -47.9579 -11.5
      vertex -45.8651 -51.5 -11.5
      vertex -50.109 -47.7748 -11.5
    endloop
  endfacet
  facet normal -0 0 1
    outer loop
      vertex -50.4744 -48.118 -11.5
      vertex -45.8651 -51.5 -11.5
      vertex -50.2809 -47.9579 -11.5
    endloop
  endfacet
  facet normal -0 0 1
    outer loop
      vertex -50.6865 -48.2526 -11.5
      vertex -45.8651 -51.5 -11.5
      vertex -50.4744 -48.118 -11.5
    endloop
  endfacet
  facet normal -0 0 1
    outer loop
      vertex -50.9137 -48.3596 -11.5
      vertex -45.8651 -51.5 -11.5
      vertex -50.6865 -48.2526 -11.5
    endloop
  endfacet
  facet normal -0 0 1
    outer loop
      vertex -51.1526 -48.4372 -11.5
      vertex -45.8651 -51.5 -11.5
      vertex -50.9137 -48.3596 -11.5
    endloop
  endfacet
  facet normal -0 0 1
    outer loop
      vertex -51.3993 -48.4842 -11.5
      vertex -45.8651 -51.5 -11.5
      vertex -51.1526 -48.4372 -11.5
    endloop
  endfacet
  facet normal -0 0 1
    outer loop
      vertex -51.65 -48.5 -11.5
      vertex -45.8651 -51.5 -11.5
      vertex -51.3993 -48.4842 -11.5
    endloop
  endfacet
  facet normal 0 0 1
    outer loop
      vertex -51.9007 -48.4842 -11.5
      vertex -45.8651 -51.5 -11.5
      vertex -51.65 -48.5 -11.5
    endloop
  endfacet
  facet normal 0 0 1
    outer loop
      vertex -52.1474 -48.4372 -11.5
      vertex -45.8651 -51.5 -11.5
      vertex -51.9007 -48.4842 -11.5
    endloop
  endfacet
  facet normal 0 0 1
    outer loop
      vertex -62.9814 -51.5 -11.5
      vertex -52.1474 -48.4372 -11.5
      vertex -52.3862 -48.3596 -11.5
    endloop
  endfacet
  facet normal 0 0 1
    outer loop
      vertex -62.9814 -51.5 -11.5
      vertex -52.3862 -48.3596 -11.5
      vertex -52.6135 -48.2526 -11.5
    endloop
  endfacet
  facet normal 0 0 1
    outer loop
      vertex -53.6461 -46.3744 -11.5
      vertex -62.9814 -51.5 -11.5
      vertex -53.6461 -46.6256 -11.5
    endloop
  endfacet
  facet normal 0 0 1
    outer loop
      vertex -53.6461 -46.6256 -11.5
      vertex -62.9814 -51.5 -11.5
      vertex -53.6146 -46.8748 -11.5
    endloop
  endfacet
  facet normal 0 0 1
    outer loop
      vertex -52.1474 -48.4372 -11.5
      vertex -62.9814 -51.5 -11.5
      vertex -45.8651 -51.5 -11.5
    endloop
  endfacet
  facet normal 0 0 1
    outer loop
      vertex -52.8256 -48.118 -11.5
      vertex -62.9814 -51.5 -11.5
      vertex -52.6135 -48.2526 -11.5
    endloop
  endfacet
  facet normal 0 0 1
    outer loop
      vertex -53.0191 -47.9579 -11.5
      vertex -62.9814 -51.5 -11.5
      vertex -52.8256 -48.118 -11.5
    endloop
  endfacet
  facet normal 0 0 1
    outer loop
      vertex -53.191 -47.7748 -11.5
      vertex -62.9814 -51.5 -11.5
      vertex -53.0191 -47.9579 -11.5
    endloop
  endfacet
  facet normal 0 0 1
    outer loop
      vertex -53.3387 -47.5717 -11.5
      vertex -62.9814 -51.5 -11.5
      vertex -53.191 -47.7748 -11.5
    endloop
  endfacet
  facet normal 0 0 1
    outer loop
      vertex -53.4597 -47.3516 -11.5
      vertex -62.9814 -51.5 -11.5
      vertex -53.3387 -47.5717 -11.5
    endloop
  endfacet
  facet normal 0 0 1
    outer loop
      vertex -53.5521 -47.118 -11.5
      vertex -62.9814 -51.5 -11.5
      vertex -53.4597 -47.3516 -11.5
    endloop
  endfacet
  facet normal 0 0 1
    outer loop
      vertex -53.6146 -46.8748 -11.5
      vertex -62.9814 -51.5 -11.5
      vertex -53.5521 -47.118 -11.5
    endloop
  endfacet
  facet normal 0 0 1
    outer loop
      vertex -62.9814 -51.5 -11.5
      vertex -55.4 -41 -11.5
      vertex -62.9814 51.5 -11.5
    endloop
  endfacet
  facet normal 1 -0 0
    outer loop
      vertex -45.4 -51.5 -11.5
      vertex -45.4 -41 -14.5
      vertex -45.4 -41 -11.5
    endloop
  endfacet
  facet normal 1 0 0
    outer loop
      vertex -45.4 -41 -14.5
      vertex -45.4 -51.5 -11.5
      vertex -45.4 -51.5 -14.5
    endloop
  endfacet
  facet normal 1 -0 0
    outer loop
      vertex -45.4 41 -11.5
      vertex -45.4 51.5 -14.5
      vertex -45.4 51.5 -11.5
    endloop
  endfacet
  facet normal 1 0 0
    outer loop
      vertex -45.4 51.5 -14.5
      vertex -45.4 41 -11.5
      vertex -45.4 41 -14.5
    endloop
  endfacet
  facet normal 0 0 -1
    outer loop
      vertex -45.4 -51.5 -14.5
      vertex -49.6854 -46.8748 -14.5
      vertex -49.6539 -46.6256 -14.5
    endloop
  endfacet
  facet normal 0 0 -1
    outer loop
      vertex -46.214 -51.5 -14.5
      vertex -49.7479 -47.118 -14.5
      vertex -49.6854 -46.8748 -14.5
    endloop
  endfacet
  facet normal 0 0 -1
    outer loop
      vertex -46.214 -51.5 -14.5
      vertex -49.8403 -47.3516 -14.5
      vertex -49.7479 -47.118 -14.5
    endloop
  endfacet
  facet normal 0 0 -1
    outer loop
      vertex -46.214 -51.5 -14.5
      vertex -49.9613 -47.5717 -14.5
      vertex -49.8403 -47.3516 -14.5
    endloop
  endfacet
  facet normal 0 0 -1
    outer loop
      vertex -46.214 -51.5 -14.5
      vertex -50.109 -47.7748 -14.5
      vertex -49.9613 -47.5717 -14.5
    endloop
  endfacet
  facet normal 0 0 -1
    outer loop
      vertex -46.214 -51.5 -14.5
      vertex -50.2809 -47.9579 -14.5
      vertex -50.109 -47.7748 -14.5
    endloop
  endfacet
  facet normal 0 0 -1
    outer loop
      vertex -46.214 -51.5 -14.5
      vertex -50.4744 -48.118 -14.5
      vertex -50.2809 -47.9579 -14.5
    endloop
  endfacet
  facet normal 0 0 -1
    outer loop
      vertex -46.214 -51.5 -14.5
      vertex -50.6865 -48.2526 -14.5
      vertex -50.4744 -48.118 -14.5
    endloop
  endfacet
  facet normal 0 0 -1
    outer loop
      vertex -46.214 -51.5 -14.5
      vertex -50.9137 -48.3596 -14.5
      vertex -50.6865 -48.2526 -14.5
    endloop
  endfacet
  facet normal 0 0 -1
    outer loop
      vertex -46.214 -51.5 -14.5
      vertex -51.1526 -48.4372 -14.5
      vertex -50.9137 -48.3596 -14.5
    endloop
  endfacet
  facet normal 0 0 -1
    outer loop
      vertex -46.214 -51.5 -14.5
      vertex -51.3993 -48.4842 -14.5
      vertex -51.1526 -48.4372 -14.5
    endloop
  endfacet
  facet normal 0 0 -1
    outer loop
      vertex -46.214 -51.5 -14.5
      vertex -51.65 -48.5 -14.5
      vertex -51.3993 -48.4842 -14.5
    endloop
  endfacet
  facet normal 0 0 -1
    outer loop
      vertex -46.214 -51.5 -14.5
      vertex -51.9007 -48.4842 -14.5
      vertex -51.65 -48.5 -14.5
    endloop
  endfacet
  facet normal 0 0 -1
    outer loop
      vertex -46.214 -51.5 -14.5
      vertex -52.1474 -48.4372 -14.5
      vertex -51.9007 -48.4842 -14.5
    endloop
  endfacet
  facet normal 0 0 -1
    outer loop
      vertex -63.3302 -51.5 -14.5
      vertex -52.1474 -48.4372 -14.5
      vertex -46.214 -51.5 -14.5
    endloop
  endfacet
  facet normal -0 0 -1
    outer loop
      vertex -52.1474 -48.4372 -14.5
      vertex -63.3302 -51.5 -14.5
      vertex -52.3862 -48.3596 -14.5
    endloop
  endfacet
  facet normal 0 0 -1
    outer loop
      vertex -63.3302 -51.5 -14.5
      vertex -53.6461 -46.3744 -14.5
      vertex -53.6461 -46.6256 -14.5
    endloop
  endfacet
  facet normal 0 0 -1
    outer loop
      vertex -63.3302 -51.5 -14.5
      vertex -53.6461 -46.6256 -14.5
      vertex -53.6146 -46.8748 -14.5
    endloop
  endfacet
  facet normal 0 0 -1
    outer loop
      vertex -63.3302 -51.5 -14.5
      vertex -53.6146 -46.8748 -14.5
      vertex -53.5521 -47.118 -14.5
    endloop
  endfacet
  facet normal -0 0 -1
    outer loop
      vertex -55.4 -41 -14.5
      vertex -63.3302 -51.5 -14.5
      vertex -55.4 41 -14.5
    endloop
  endfacet
  facet normal -0 0 -1
    outer loop
      vertex -53.6461 -46.3744 -14.5
      vertex -63.3302 -51.5 -14.5
      vertex -55.4 -41 -14.5
    endloop
  endfacet
  facet normal -0 0 -1
    outer loop
      vertex -53.4597 -47.3516 -14.5
      vertex -63.3302 -51.5 -14.5
      vertex -53.5521 -47.118 -14.5
    endloop
  endfacet
  facet normal -0 0 -1
    outer loop
      vertex -53.3387 -47.5717 -14.5
      vertex -63.3302 -51.5 -14.5
      vertex -53.4597 -47.3516 -14.5
    endloop
  endfacet
  facet normal -0 0 -1
    outer loop
      vertex -53.191 -47.7748 -14.5
      vertex -63.3302 -51.5 -14.5
      vertex -53.3387 -47.5717 -14.5
    endloop
  endfacet
  facet normal -0 0 -1
    outer loop
      vertex -53.0191 -47.9579 -14.5
      vertex -63.3302 -51.5 -14.5
      vertex -53.191 -47.7748 -14.5
    endloop
  endfacet
  facet normal -0 0 -1
    outer loop
      vertex -52.8256 -48.118 -14.5
      vertex -63.3302 -51.5 -14.5
      vertex -53.0191 -47.9579 -14.5
    endloop
  endfacet
  facet normal -0 0 -1
    outer loop
      vertex -52.6135 -48.2526 -14.5
      vertex -63.3302 -51.5 -14.5
      vertex -52.8256 -48.118 -14.5
    endloop
  endfacet
  facet normal -0 0 -1
    outer loop
      vertex -52.3862 -48.3596 -14.5
      vertex -63.3302 -51.5 -14.5
      vertex -52.6135 -48.2526 -14.5
    endloop
  endfacet
  facet normal 0 0 -1
    outer loop
      vertex -49.6854 -46.8748 -14.5
      vertex -45.4 -51.5 -14.5
      vertex -46.214 -51.5 -14.5
    endloop
  endfacet
  facet normal 0 0 -1
    outer loop
      vertex -45.4 -51.5 -14.5
      vertex -49.6539 -46.6256 -14.5
      vertex -49.6539 -46.3744 -14.5
    endloop
  endfacet
  facet normal 0 0 -1
    outer loop
      vertex -45.4 -51.5 -14.5
      vertex -49.6539 -46.3744 -14.5
      vertex -45.4 -41 -14.5
    endloop
  endfacet
  facet normal 0 0 -1
    outer loop
      vertex -49.6854 -46.1252 -14.5
      vertex -45.4 -41 -14.5
      vertex -49.6539 -46.3744 -14.5
    endloop
  endfacet
  facet normal 0 0 -1
    outer loop
      vertex -49.7479 -45.882 -14.5
      vertex -45.4 -41 -14.5
      vertex -49.6854 -46.1252 -14.5
    endloop
  endfacet
  facet normal 0 0 -1
    outer loop
      vertex -49.8403 -45.6484 -14.5
      vertex -45.4 -41 -14.5
      vertex -49.7479 -45.882 -14.5
    endloop
  endfacet
  facet normal 0 0 -1
    outer loop
      vertex -49.9613 -45.4283 -14.5
      vertex -45.4 -41 -14.5
      vertex -49.8403 -45.6484 -14.5
    endloop
  endfacet
  facet normal 0 0 -1
    outer loop
      vertex -50.109 -45.2252 -14.5
      vertex -45.4 -41 -14.5
      vertex -49.9613 -45.4283 -14.5
    endloop
  endfacet
  facet normal 0 0 -1
    outer loop
      vertex -50.2809 -45.0421 -14.5
      vertex -45.4 -41 -14.5
      vertex -50.109 -45.2252 -14.5
    endloop
  endfacet
  facet normal 0 0 -1
    outer loop
      vertex -50.4744 -44.882 -14.5
      vertex -45.4 -41 -14.5
      vertex -50.2809 -45.0421 -14.5
    endloop
  endfacet
  facet normal 0 0 -1
    outer loop
      vertex -50.6865 -44.7474 -14.5
      vertex -45.4 -41 -14.5
      vertex -50.4744 -44.882 -14.5
    endloop
  endfacet
  facet normal 0 0 -1
    outer loop
      vertex -50.9137 -44.6404 -14.5
      vertex -45.4 -41 -14.5
      vertex -50.6865 -44.7474 -14.5
    endloop
  endfacet
  facet normal 0 0 -1
    outer loop
      vertex -51.1526 -44.5628 -14.5
      vertex -45.4 -41 -14.5
      vertex -50.9137 -44.6404 -14.5
    endloop
  endfacet
  facet normal 0 0 -1
    outer loop
      vertex -51.3993 -44.5158 -14.5
      vertex -45.4 -41 -14.5
      vertex -51.1526 -44.5628 -14.5
    endloop
  endfacet
  facet normal 0 0 -1
    outer loop
      vertex -55.4 -41 -14.5
      vertex -51.3993 -44.5158 -14.5
      vertex -51.65 -44.5 -14.5
    endloop
  endfacet
  facet normal 0 0 -1
    outer loop
      vertex -55.4 -41 -14.5
      vertex -51.65 -44.5 -14.5
      vertex -51.9007 -44.5158 -14.5
    endloop
  endfacet
  facet normal 0 0 -1
    outer loop
      vertex -55.4 -41 -14.5
      vertex -51.9007 -44.5158 -14.5
      vertex -52.1474 -44.5628 -14.5
    endloop
  endfacet
  facet normal 0 0 -1
    outer loop
      vertex -55.4 -41 -14.5
      vertex -52.1474 -44.5628 -14.5
      vertex -52.3862 -44.6404 -14.5
    endloop
  endfacet
  facet normal 0 0 -1
    outer loop
      vertex -55.4 -41 -14.5
      vertex -52.3862 -44.6404 -14.5
      vertex -52.6135 -44.7474 -14.5
    endloop
  endfacet
  facet normal 0 0 -1
    outer loop
      vertex -51.3993 -44.5158 -14.5
      vertex -55.4 -41 -14.5
      vertex -45.4 -41 -14.5
    endloop
  endfacet
  facet normal 0 0 -1
    outer loop
      vertex -52.8256 -44.882 -14.5
      vertex -55.4 -41 -14.5
      vertex -52.6135 -44.7474 -14.5
    endloop
  endfacet
  facet normal 0 0 -1
    outer loop
      vertex -53.0191 -45.0421 -14.5
      vertex -55.4 -41 -14.5
      vertex -52.8256 -44.882 -14.5
    endloop
  endfacet
  facet normal 0 0 -1
    outer loop
      vertex -53.191 -45.2252 -14.5
      vertex -55.4 -41 -14.5
      vertex -53.0191 -45.0421 -14.5
    endloop
  endfacet
  facet normal 0 0 -1
    outer loop
      vertex -53.3387 -45.4283 -14.5
      vertex -55.4 -41 -14.5
      vertex -53.191 -45.2252 -14.5
    endloop
  endfacet
  facet normal 0 0 -1
    outer loop
      vertex -53.4597 -45.6484 -14.5
      vertex -55.4 -41 -14.5
      vertex -53.3387 -45.4283 -14.5
    endloop
  endfacet
  facet normal 0 0 -1
    outer loop
      vertex -53.5521 -45.882 -14.5
      vertex -55.4 -41 -14.5
      vertex -53.4597 -45.6484 -14.5
    endloop
  endfacet
  facet normal 0 0 -1
    outer loop
      vertex -53.6146 -46.1252 -14.5
      vertex -55.4 -41 -14.5
      vertex -53.5521 -45.882 -14.5
    endloop
  endfacet
  facet normal 0 0 -1
    outer loop
      vertex -55.4 -41 -14.5
      vertex -53.6146 -46.1252 -14.5
      vertex -53.6461 -46.3744 -14.5
    endloop
  endfacet
  facet normal 0 0 -1
    outer loop
      vertex -49.6539 46.3744 -14.5
      vertex -45.4 51.5 -14.5
      vertex -45.4 41 -14.5
    endloop
  endfacet
  facet normal 0 0 -1
    outer loop
      vertex -49.6539 46.6256 -14.5
      vertex -45.4 51.5 -14.5
      vertex -49.6539 46.3744 -14.5
    endloop
  endfacet
  facet normal 0 0 -1
    outer loop
      vertex -45.4 41 -14.5
      vertex -49.6854 46.1252 -14.5
      vertex -49.6539 46.3744 -14.5
    endloop
  endfacet
  facet normal 0 0 -1
    outer loop
      vertex -45.4 41 -14.5
      vertex -49.7479 45.882 -14.5
      vertex -49.6854 46.1252 -14.5
    endloop
  endfacet
  facet normal 0 0 -1
    outer loop
      vertex -45.4 41 -14.5
      vertex -49.8403 45.6484 -14.5
      vertex -49.7479 45.882 -14.5
    endloop
  endfacet
  facet normal 0 0 -1
    outer loop
      vertex -45.4 41 -14.5
      vertex -49.9613 45.4283 -14.5
      vertex -49.8403 45.6484 -14.5
    endloop
  endfacet
  facet normal 0 0 -1
    outer loop
      vertex -45.4 41 -14.5
      vertex -50.109 45.2252 -14.5
      vertex -49.9613 45.4283 -14.5
    endloop
  endfacet
  facet normal 0 0 -1
    outer loop
      vertex -45.4 41 -14.5
      vertex -50.2809 45.0421 -14.5
      vertex -50.109 45.2252 -14.5
    endloop
  endfacet
  facet normal 0 0 -1
    outer loop
      vertex -45.4 41 -14.5
      vertex -50.4744 44.882 -14.5
      vertex -50.2809 45.0421 -14.5
    endloop
  endfacet
  facet normal 0 0 -1
    outer loop
      vertex -45.4 41 -14.5
      vertex -50.6865 44.7474 -14.5
      vertex -50.4744 44.882 -14.5
    endloop
  endfacet
  facet normal 0 0 -1
    outer loop
      vertex -45.4 41 -14.5
      vertex -50.9137 44.6404 -14.5
      vertex -50.6865 44.7474 -14.5
    endloop
  endfacet
  facet normal 0 0 -1
    outer loop
      vertex -45.4 41 -14.5
      vertex -51.1526 44.5628 -14.5
      vertex -50.9137 44.6404 -14.5
    endloop
  endfacet
  facet normal 0 0 -1
    outer loop
      vertex -45.4 41 -14.5
      vertex -51.3993 44.5158 -14.5
      vertex -51.1526 44.5628 -14.5
    endloop
  endfacet
  facet normal 0 0 -1
    outer loop
      vertex -55.4 41 -14.5
      vertex -51.3993 44.5158 -14.5
      vertex -45.4 41 -14.5
    endloop
  endfacet
  facet normal 0 0 -1
    outer loop
      vertex -51.3993 44.5158 -14.5
      vertex -55.4 41 -14.5
      vertex -51.65 44.5 -14.5
    endloop
  endfacet
  facet normal -0 0 -1
    outer loop
      vertex -51.65 44.5 -14.5
      vertex -55.4 41 -14.5
      vertex -51.9007 44.5158 -14.5
    endloop
  endfacet
  facet normal -0 0 -1
    outer loop
      vertex -51.9007 44.5158 -14.5
      vertex -55.4 41 -14.5
      vertex -52.1474 44.5628 -14.5
    endloop
  endfacet
  facet normal -0 0 -1
    outer loop
      vertex -52.1474 44.5628 -14.5
      vertex -55.4 41 -14.5
      vertex -52.3862 44.6404 -14.5
    endloop
  endfacet
  facet normal 0 0 -1
    outer loop
      vertex -63.3302 51.5 -14.5
      vertex -53.6461 46.3744 -14.5
      vertex -55.4 41 -14.5
    endloop
  endfacet
  facet normal -0 0 -1
    outer loop
      vertex -53.6146 46.1252 -14.5
      vertex -55.4 41 -14.5
      vertex -53.6461 46.3744 -14.5
    endloop
  endfacet
  facet normal -0 0 -1
    outer loop
      vertex -53.5521 45.882 -14.5
      vertex -55.4 41 -14.5
      vertex -53.6146 46.1252 -14.5
    endloop
  endfacet
  facet normal -0 0 -1
    outer loop
      vertex -53.4597 45.6484 -14.5
      vertex -55.4 41 -14.5
      vertex -53.5521 45.882 -14.5
    endloop
  endfacet
  facet normal -0 0 -1
    outer loop
      vertex -53.3387 45.4283 -14.5
      vertex -55.4 41 -14.5
      vertex -53.4597 45.6484 -14.5
    endloop
  endfacet
  facet normal -0 0 -1
    outer loop
      vertex -53.191 45.2252 -14.5
      vertex -55.4 41 -14.5
      vertex -53.3387 45.4283 -14.5
    endloop
  endfacet
  facet normal -0 0 -1
    outer loop
      vertex -53.0191 45.0421 -14.5
      vertex -55.4 41 -14.5
      vertex -53.191 45.2252 -14.5
    endloop
  endfacet
  facet normal -0 0 -1
    outer loop
      vertex -52.8256 44.882 -14.5
      vertex -55.4 41 -14.5
      vertex -53.0191 45.0421 -14.5
    endloop
  endfacet
  facet normal -0 0 -1
    outer loop
      vertex -52.6135 44.7474 -14.5
      vertex -55.4 41 -14.5
      vertex -52.8256 44.882 -14.5
    endloop
  endfacet
  facet normal -0 0 -1
    outer loop
      vertex -52.3862 44.6404 -14.5
      vertex -55.4 41 -14.5
      vertex -52.6135 44.7474 -14.5
    endloop
  endfacet
  facet normal 0 0 -1
    outer loop
      vertex -49.6854 46.8748 -14.5
      vertex -45.4 51.5 -14.5
      vertex -49.6539 46.6256 -14.5
    endloop
  endfacet
  facet normal -0 0 -1
    outer loop
      vertex -45.4 51.5 -14.5
      vertex -49.6854 46.8748 -14.5
      vertex -46.214 51.5 -14.5
    endloop
  endfacet
  facet normal 0 0 -1
    outer loop
      vertex -49.7479 47.118 -14.5
      vertex -46.214 51.5 -14.5
      vertex -49.6854 46.8748 -14.5
    endloop
  endfacet
  facet normal 0 0 -1
    outer loop
      vertex -49.8403 47.3516 -14.5
      vertex -46.214 51.5 -14.5
      vertex -49.7479 47.118 -14.5
    endloop
  endfacet
  facet normal 0 0 -1
    outer loop
      vertex -49.9613 47.5717 -14.5
      vertex -46.214 51.5 -14.5
      vertex -49.8403 47.3516 -14.5
    endloop
  endfacet
  facet normal 0 0 -1
    outer loop
      vertex -50.109 47.7748 -14.5
      vertex -46.214 51.5 -14.5
      vertex -49.9613 47.5717 -14.5
    endloop
  endfacet
  facet normal 0 0 -1
    outer loop
      vertex -50.2809 47.9579 -14.5
      vertex -46.214 51.5 -14.5
      vertex -50.109 47.7748 -14.5
    endloop
  endfacet
  facet normal 0 0 -1
    outer loop
      vertex -50.4744 48.118 -14.5
      vertex -46.214 51.5 -14.5
      vertex -50.2809 47.9579 -14.5
    endloop
  endfacet
  facet normal 0 0 -1
    outer loop
      vertex -50.6865 48.2526 -14.5
      vertex -46.214 51.5 -14.5
      vertex -50.4744 48.118 -14.5
    endloop
  endfacet
  facet normal 0 0 -1
    outer loop
      vertex -50.9137 48.3596 -14.5
      vertex -46.214 51.5 -14.5
      vertex -50.6865 48.2526 -14.5
    endloop
  endfacet
  facet normal 0 0 -1
    outer loop
      vertex -51.1526 48.4372 -14.5
      vertex -46.214 51.5 -14.5
      vertex -50.9137 48.3596 -14.5
    endloop
  endfacet
  facet normal 0 0 -1
    outer loop
      vertex -51.3993 48.4842 -14.5
      vertex -46.214 51.5 -14.5
      vertex -51.1526 48.4372 -14.5
    endloop
  endfacet
  facet normal 0 0 -1
    outer loop
      vertex -51.65 48.5 -14.5
      vertex -46.214 51.5 -14.5
      vertex -51.3993 48.4842 -14.5
    endloop
  endfacet
  facet normal 0 0 -1
    outer loop
      vertex -51.9007 48.4842 -14.5
      vertex -46.214 51.5 -14.5
      vertex -51.65 48.5 -14.5
    endloop
  endfacet
  facet normal 0 0 -1
    outer loop
      vertex -52.1474 48.4372 -14.5
      vertex -46.214 51.5 -14.5
      vertex -51.9007 48.4842 -14.5
    endloop
  endfacet
  facet normal 0 0 -1
    outer loop
      vertex -63.3302 51.5 -14.5
      vertex -52.1474 48.4372 -14.5
      vertex -52.3862 48.3596 -14.5
    endloop
  endfacet
  facet normal 0 0 -1
    outer loop
      vertex -63.3302 51.5 -14.5
      vertex -52.3862 48.3596 -14.5
      vertex -52.6135 48.2526 -14.5
    endloop
  endfacet
  facet normal 0 0 -1
    outer loop
      vertex -53.6461 46.3744 -14.5
      vertex -63.3302 51.5 -14.5
      vertex -53.6461 46.6256 -14.5
    endloop
  endfacet
  facet normal 0 0 -1
    outer loop
      vertex -53.6461 46.6256 -14.5
      vertex -63.3302 51.5 -14.5
      vertex -53.6146 46.8748 -14.5
    endloop
  endfacet
  facet normal 0 0 -1
    outer loop
      vertex -52.1474 48.4372 -14.5
      vertex -63.3302 51.5 -14.5
      vertex -46.214 51.5 -14.5
    endloop
  endfacet
  facet normal 0 0 -1
    outer loop
      vertex -52.8256 48.118 -14.5
      vertex -63.3302 51.5 -14.5
      vertex -52.6135 48.2526 -14.5
    endloop
  endfacet
  facet normal 0 0 -1
    outer loop
      vertex -53.0191 47.9579 -14.5
      vertex -63.3302 51.5 -14.5
      vertex -52.8256 48.118 -14.5
    endloop
  endfacet
  facet normal 0 0 -1
    outer loop
      vertex -53.191 47.7748 -14.5
      vertex -63.3302 51.5 -14.5
      vertex -53.0191 47.9579 -14.5
    endloop
  endfacet
  facet normal 0 0 -1
    outer loop
      vertex -53.3387 47.5717 -14.5
      vertex -63.3302 51.5 -14.5
      vertex -53.191 47.7748 -14.5
    endloop
  endfacet
  facet normal 0 0 -1
    outer loop
      vertex -53.4597 47.3516 -14.5
      vertex -63.3302 51.5 -14.5
      vertex -53.3387 47.5717 -14.5
    endloop
  endfacet
  facet normal 0 0 -1
    outer loop
      vertex -53.5521 47.118 -14.5
      vertex -63.3302 51.5 -14.5
      vertex -53.4597 47.3516 -14.5
    endloop
  endfacet
  facet normal 0 0 -1
    outer loop
      vertex -53.6146 46.8748 -14.5
      vertex -63.3302 51.5 -14.5
      vertex -53.5521 47.118 -14.5
    endloop
  endfacet
  facet normal 0 0 -1
    outer loop
      vertex -63.3302 51.5 -14.5
      vertex -55.4 41 -14.5
      vertex -63.3302 -51.5 -14.5
    endloop
  endfacet
  facet normal 1 -0 0
    outer loop
      vertex -55.4 -41 -11.5
      vertex -55.4 41 -14.5
      vertex -55.4 41 -11.5
    endloop
  endfacet
  facet normal 1 0 0
    outer loop
      vertex -55.4 41 -14.5
      vertex -55.4 -41 -11.5
      vertex -55.4 -41 -14.5
    endloop
  endfacet
  facet normal 0 1 -0
    outer loop
      vertex -45.4 -41 -14.5
      vertex -55.4 -41 -11.5
      vertex -45.4 -41 -11.5
    endloop
  endfacet
  facet normal 0 1 0
    outer loop
      vertex -55.4 -41 -11.5
      vertex -45.4 -41 -14.5
      vertex -55.4 -41 -14.5
    endloop
  endfacet
  facet normal 0 -1 0
    outer loop
      vertex -55.4 41 -14.5
      vertex -45.4 41 -11.5
      vertex -55.4 41 -11.5
    endloop
  endfacet
  facet normal 0 -1 -0
    outer loop
      vertex -45.4 41 -11.5
      vertex -55.4 41 -14.5
      vertex -45.4 41 -14.5
    endloop
  endfacet
  facet normal 0.0627887 -0.998027 0
    outer loop
      vertex -51.9007 48.4842 -14.5
      vertex -51.65 48.5 -11.5
      vertex -51.9007 48.4842 -11.5
    endloop
  endfacet
  facet normal 0.0627887 -0.998027 0
    outer loop
      vertex -51.65 48.5 -11.5
      vertex -51.9007 48.4842 -14.5
      vertex -51.65 48.5 -14.5
    endloop
  endfacet
  facet normal -0.0627877 0.998027 0
    outer loop
      vertex -51.3993 44.5158 -14.5
      vertex -51.65 44.5 -11.5
      vertex -51.3993 44.5158 -11.5
    endloop
  endfacet
  facet normal -0.0627877 0.998027 0
    outer loop
      vertex -51.65 44.5 -11.5
      vertex -51.3993 44.5158 -14.5
      vertex -51.65 44.5 -14.5
    endloop
  endfacet
  facet normal -0.992115 -0.125332 0
    outer loop
      vertex -49.6539 46.6256 -14.5
      vertex -49.6854 46.8748 -11.5
      vertex -49.6854 46.8748 -14.5
    endloop
  endfacet
  facet normal -0.992115 -0.125332 0
    outer loop
      vertex -49.6854 46.8748 -11.5
      vertex -49.6539 46.6256 -14.5
      vertex -49.6539 46.6256 -11.5
    endloop
  endfacet
  facet normal 0.809017 -0.587785 0
    outer loop
      vertex -53.3387 47.5717 -11.5
      vertex -53.191 47.7748 -14.5
      vertex -53.191 47.7748 -11.5
    endloop
  endfacet
  facet normal 0.809017 -0.587785 0
    outer loop
      vertex -53.191 47.7748 -14.5
      vertex -53.3387 47.5717 -11.5
      vertex -53.3387 47.5717 -14.5
    endloop
  endfacet
  facet normal 0.425774 -0.904829 0
    outer loop
      vertex -52.6135 48.2526 -14.5
      vertex -52.3862 48.3596 -11.5
      vertex -52.6135 48.2526 -11.5
    endloop
  endfacet
  facet normal 0.425774 -0.904829 0
    outer loop
      vertex -52.3862 48.3596 -11.5
      vertex -52.6135 48.2526 -14.5
      vertex -52.3862 48.3596 -14.5
    endloop
  endfacet
  facet normal 0.187393 -0.982285 0
    outer loop
      vertex -52.1474 48.4372 -14.5
      vertex -51.9007 48.4842 -11.5
      vertex -52.1474 48.4372 -11.5
    endloop
  endfacet
  facet normal 0.187393 -0.982285 0
    outer loop
      vertex -51.9007 48.4842 -11.5
      vertex -52.1474 48.4372 -14.5
      vertex -51.9007 48.4842 -14.5
    endloop
  endfacet
  facet normal 0.968583 -0.248692 0
    outer loop
      vertex -53.6146 46.8748 -11.5
      vertex -53.5521 47.118 -14.5
      vertex -53.5521 47.118 -11.5
    endloop
  endfacet
  facet normal 0.968583 -0.248692 0
    outer loop
      vertex -53.5521 47.118 -14.5
      vertex -53.6146 46.8748 -11.5
      vertex -53.6146 46.8748 -14.5
    endloop
  endfacet
  facet normal 0.992115 -0.125332 0
    outer loop
      vertex -53.6461 46.6256 -11.5
      vertex -53.6146 46.8748 -14.5
      vertex -53.6146 46.8748 -11.5
    endloop
  endfacet
  facet normal 0.992115 -0.125332 0
    outer loop
      vertex -53.6146 46.8748 -14.5
      vertex -53.6461 46.6256 -11.5
      vertex -53.6461 46.6256 -14.5
    endloop
  endfacet
  facet normal 0.876302 -0.481763 0
    outer loop
      vertex -53.4597 47.3516 -11.5
      vertex -53.3387 47.5717 -14.5
      vertex -53.3387 47.5717 -11.5
    endloop
  endfacet
  facet normal 0.876302 -0.481763 0
    outer loop
      vertex -53.3387 47.5717 -14.5
      vertex -53.4597 47.3516 -11.5
      vertex -53.4597 47.3516 -14.5
    endloop
  endfacet
  facet normal 0.425787 0.904824 -0
    outer loop
      vertex -52.3862 44.6404 -14.5
      vertex -52.6135 44.7474 -11.5
      vertex -52.3862 44.6404 -11.5
    endloop
  endfacet
  facet normal 0.425787 0.904824 0
    outer loop
      vertex -52.6135 44.7474 -11.5
      vertex -52.3862 44.6404 -14.5
      vertex -52.6135 44.7474 -14.5
    endloop
  endfacet
  facet normal 0.535825 0.844329 -0
    outer loop
      vertex -52.6135 44.7474 -14.5
      vertex -52.8256 44.882 -11.5
      vertex -52.6135 44.7474 -11.5
    endloop
  endfacet
  facet normal 0.535825 0.844329 0
    outer loop
      vertex -52.8256 44.882 -11.5
      vertex -52.6135 44.7474 -14.5
      vertex -52.8256 44.882 -14.5
    endloop
  endfacet
  facet normal 0.187378 0.982288 -0
    outer loop
      vertex -51.9007 44.5158 -14.5
      vertex -52.1474 44.5628 -11.5
      vertex -51.9007 44.5158 -11.5
    endloop
  endfacet
  facet normal 0.187378 0.982288 0
    outer loop
      vertex -52.1474 44.5628 -11.5
      vertex -51.9007 44.5158 -14.5
      vertex -52.1474 44.5628 -14.5
    endloop
  endfacet
  facet normal -0.876314 -0.48174 0
    outer loop
      vertex -49.8403 47.3516 -14.5
      vertex -49.9613 47.5717 -11.5
      vertex -49.9613 47.5717 -14.5
    endloop
  endfacet
  facet normal -0.876314 -0.48174 0
    outer loop
      vertex -49.9613 47.5717 -11.5
      vertex -49.8403 47.3516 -14.5
      vertex -49.8403 47.3516 -11.5
    endloop
  endfacet
  facet normal 0.309015 -0.951057 0
    outer loop
      vertex -52.3862 48.3596 -14.5
      vertex -52.1474 48.4372 -11.5
      vertex -52.3862 48.3596 -11.5
    endloop
  endfacet
  facet normal 0.309015 -0.951057 0
    outer loop
      vertex -52.1474 48.4372 -11.5
      vertex -52.3862 48.3596 -14.5
      vertex -52.1474 48.4372 -14.5
    endloop
  endfacet
  facet normal 0.637421 -0.770516 0
    outer loop
      vertex -53.0191 47.9579 -14.5
      vertex -52.8256 48.118 -11.5
      vertex -53.0191 47.9579 -11.5
    endloop
  endfacet
  facet normal 0.637421 -0.770516 0
    outer loop
      vertex -52.8256 48.118 -11.5
      vertex -53.0191 47.9579 -14.5
      vertex -52.8256 48.118 -14.5
    endloop
  endfacet
  facet normal 0.72897 -0.684545 0
    outer loop
      vertex -53.191 47.7748 -11.5
      vertex -53.0191 47.9579 -14.5
      vertex -53.0191 47.9579 -11.5
    endloop
  endfacet
  facet normal 0.72897 -0.684545 0
    outer loop
      vertex -53.0191 47.9579 -14.5
      vertex -53.191 47.7748 -11.5
      vertex -53.191 47.7748 -14.5
    endloop
  endfacet
  facet normal 0.535825 -0.844329 0
    outer loop
      vertex -52.8256 48.118 -14.5
      vertex -52.6135 48.2526 -11.5
      vertex -52.8256 48.118 -11.5
    endloop
  endfacet
  facet normal 0.535825 -0.844329 0
    outer loop
      vertex -52.6135 48.2526 -11.5
      vertex -52.8256 48.118 -14.5
      vertex -52.6135 48.2526 -14.5
    endloop
  endfacet
  facet normal 1 -0 0
    outer loop
      vertex -53.6461 46.3744 -11.5
      vertex -53.6461 46.6256 -14.5
      vertex -53.6461 46.6256 -11.5
    endloop
  endfacet
  facet normal 1 0 0
    outer loop
      vertex -53.6461 46.6256 -14.5
      vertex -53.6461 46.3744 -11.5
      vertex -53.6461 46.3744 -14.5
    endloop
  endfacet
  facet normal 0.0627887 0.998027 -0
    outer loop
      vertex -51.65 44.5 -14.5
      vertex -51.9007 44.5158 -11.5
      vertex -51.65 44.5 -11.5
    endloop
  endfacet
  facet normal 0.0627887 0.998027 0
    outer loop
      vertex -51.9007 44.5158 -11.5
      vertex -51.65 44.5 -14.5
      vertex -51.9007 44.5158 -14.5
    endloop
  endfacet
  facet normal 0.637421 0.770516 -0
    outer loop
      vertex -52.8256 44.882 -14.5
      vertex -53.0191 45.0421 -11.5
      vertex -52.8256 44.882 -11.5
    endloop
  endfacet
  facet normal 0.637421 0.770516 0
    outer loop
      vertex -53.0191 45.0421 -11.5
      vertex -52.8256 44.882 -14.5
      vertex -53.0191 45.0421 -14.5
    endloop
  endfacet
  facet normal 0.809017 0.587785 0
    outer loop
      vertex -53.191 45.2252 -11.5
      vertex -53.3387 45.4283 -14.5
      vertex -53.3387 45.4283 -11.5
    endloop
  endfacet
  facet normal 0.809017 0.587785 0
    outer loop
      vertex -53.3387 45.4283 -14.5
      vertex -53.191 45.2252 -11.5
      vertex -53.191 45.2252 -14.5
    endloop
  endfacet
  facet normal 0.72897 0.684545 0
    outer loop
      vertex -53.0191 45.0421 -11.5
      vertex -53.191 45.2252 -14.5
      vertex -53.191 45.2252 -11.5
    endloop
  endfacet
  facet normal 0.72897 0.684545 0
    outer loop
      vertex -53.191 45.2252 -14.5
      vertex -53.0191 45.0421 -11.5
      vertex -53.0191 45.0421 -14.5
    endloop
  endfacet
  facet normal 0.876302 0.481763 0
    outer loop
      vertex -53.3387 45.4283 -11.5
      vertex -53.4597 45.6484 -14.5
      vertex -53.4597 45.6484 -11.5
    endloop
  endfacet
  facet normal 0.876302 0.481763 0
    outer loop
      vertex -53.4597 45.6484 -14.5
      vertex -53.3387 45.4283 -11.5
      vertex -53.3387 45.4283 -14.5
    endloop
  endfacet
  facet normal 0.968583 0.248692 0
    outer loop
      vertex -53.5521 45.882 -11.5
      vertex -53.6146 46.1252 -14.5
      vertex -53.6146 46.1252 -11.5
    endloop
  endfacet
  facet normal 0.968583 0.248692 0
    outer loop
      vertex -53.6146 46.1252 -14.5
      vertex -53.5521 45.882 -11.5
      vertex -53.5521 45.882 -14.5
    endloop
  endfacet
  facet normal -0.0627877 -0.998027 0
    outer loop
      vertex -51.65 48.5 -14.5
      vertex -51.3993 48.4842 -11.5
      vertex -51.65 48.5 -11.5
    endloop
  endfacet
  facet normal -0.0627877 -0.998027 -0
    outer loop
      vertex -51.3993 48.4842 -11.5
      vertex -51.65 48.5 -14.5
      vertex -51.3993 48.4842 -14.5
    endloop
  endfacet
  facet normal -0.637421 -0.770516 0
    outer loop
      vertex -50.4744 48.118 -14.5
      vertex -50.2809 47.9579 -11.5
      vertex -50.4744 48.118 -11.5
    endloop
  endfacet
  facet normal -0.637421 -0.770516 -0
    outer loop
      vertex -50.2809 47.9579 -11.5
      vertex -50.4744 48.118 -14.5
      vertex -50.2809 47.9579 -14.5
    endloop
  endfacet
  facet normal -0.535825 -0.844329 0
    outer loop
      vertex -50.6865 48.2526 -14.5
      vertex -50.4744 48.118 -11.5
      vertex -50.6865 48.2526 -11.5
    endloop
  endfacet
  facet normal -0.535825 -0.844329 -0
    outer loop
      vertex -50.4744 48.118 -11.5
      vertex -50.6865 48.2526 -14.5
      vertex -50.4744 48.118 -14.5
    endloop
  endfacet
  facet normal -0.18739 -0.982286 0
    outer loop
      vertex -51.3993 48.4842 -14.5
      vertex -51.1526 48.4372 -11.5
      vertex -51.3993 48.4842 -11.5
    endloop
  endfacet
  facet normal -0.18739 -0.982286 -0
    outer loop
      vertex -51.1526 48.4372 -11.5
      vertex -51.3993 48.4842 -14.5
      vertex -51.1526 48.4372 -14.5
    endloop
  endfacet
  facet normal 0.992115 0.125332 0
    outer loop
      vertex -53.6146 46.1252 -11.5
      vertex -53.6461 46.3744 -14.5
      vertex -53.6461 46.3744 -11.5
    endloop
  endfacet
  facet normal 0.992115 0.125332 0
    outer loop
      vertex -53.6461 46.3744 -14.5
      vertex -53.6146 46.1252 -11.5
      vertex -53.6146 46.1252 -14.5
    endloop
  endfacet
  facet normal 0.929779 -0.368118 0
    outer loop
      vertex -53.5521 47.118 -11.5
      vertex -53.4597 47.3516 -14.5
      vertex -53.4597 47.3516 -11.5
    endloop
  endfacet
  facet normal 0.929779 -0.368118 0
    outer loop
      vertex -53.4597 47.3516 -14.5
      vertex -53.5521 47.118 -11.5
      vertex -53.5521 47.118 -14.5
    endloop
  endfacet
  facet normal 0.309015 0.951057 -0
    outer loop
      vertex -52.1474 44.5628 -14.5
      vertex -52.3862 44.6404 -11.5
      vertex -52.1474 44.5628 -11.5
    endloop
  endfacet
  facet normal 0.309015 0.951057 0
    outer loop
      vertex -52.3862 44.6404 -11.5
      vertex -52.1474 44.5628 -14.5
      vertex -52.3862 44.6404 -14.5
    endloop
  endfacet
  facet normal 0.929779 0.368118 0
    outer loop
      vertex -53.4597 45.6484 -11.5
      vertex -53.5521 45.882 -14.5
      vertex -53.5521 45.882 -11.5
    endloop
  endfacet
  facet normal 0.929779 0.368118 0
    outer loop
      vertex -53.5521 45.882 -14.5
      vertex -53.4597 45.6484 -11.5
      vertex -53.4597 45.6484 -14.5
    endloop
  endfacet
  facet normal -0.72897 -0.684545 0
    outer loop
      vertex -50.109 47.7748 -14.5
      vertex -50.2809 47.9579 -11.5
      vertex -50.2809 47.9579 -14.5
    endloop
  endfacet
  facet normal -0.72897 -0.684545 0
    outer loop
      vertex -50.2809 47.9579 -11.5
      vertex -50.109 47.7748 -14.5
      vertex -50.109 47.7748 -11.5
    endloop
  endfacet
  facet normal -0.80901 -0.587795 0
    outer loop
      vertex -49.9613 47.5717 -14.5
      vertex -50.109 47.7748 -11.5
      vertex -50.109 47.7748 -14.5
    endloop
  endfacet
  facet normal -0.80901 -0.587795 0
    outer loop
      vertex -50.109 47.7748 -11.5
      vertex -49.9613 47.5717 -14.5
      vertex -49.9613 47.5717 -11.5
    endloop
  endfacet
  facet normal -0.309019 -0.951056 0
    outer loop
      vertex -51.1526 48.4372 -14.5
      vertex -50.9137 48.3596 -11.5
      vertex -51.1526 48.4372 -11.5
    endloop
  endfacet
  facet normal -0.309019 -0.951056 -0
    outer loop
      vertex -50.9137 48.3596 -11.5
      vertex -51.1526 48.4372 -14.5
      vertex -50.9137 48.3596 -14.5
    endloop
  endfacet
  facet normal -0.425774 -0.904829 0
    outer loop
      vertex -50.9137 48.3596 -14.5
      vertex -50.6865 48.2526 -11.5
      vertex -50.9137 48.3596 -11.5
    endloop
  endfacet
  facet normal -0.425774 -0.904829 -0
    outer loop
      vertex -50.6865 48.2526 -11.5
      vertex -50.9137 48.3596 -14.5
      vertex -50.6865 48.2526 -14.5
    endloop
  endfacet
  facet normal -0.72897 0.684545 0
    outer loop
      vertex -50.2809 45.0421 -14.5
      vertex -50.109 45.2252 -11.5
      vertex -50.109 45.2252 -14.5
    endloop
  endfacet
  facet normal -0.72897 0.684545 0
    outer loop
      vertex -50.109 45.2252 -11.5
      vertex -50.2809 45.0421 -14.5
      vertex -50.2809 45.0421 -11.5
    endloop
  endfacet
  facet normal -0.187375 0.982288 0
    outer loop
      vertex -51.1526 44.5628 -14.5
      vertex -51.3993 44.5158 -11.5
      vertex -51.1526 44.5628 -11.5
    endloop
  endfacet
  facet normal -0.187375 0.982288 0
    outer loop
      vertex -51.3993 44.5158 -11.5
      vertex -51.1526 44.5628 -14.5
      vertex -51.3993 44.5158 -14.5
    endloop
  endfacet
  facet normal -0.309019 0.951056 0
    outer loop
      vertex -50.9137 44.6404 -14.5
      vertex -51.1526 44.5628 -11.5
      vertex -50.9137 44.6404 -11.5
    endloop
  endfacet
  facet normal -0.309019 0.951056 0
    outer loop
      vertex -51.1526 44.5628 -11.5
      vertex -50.9137 44.6404 -14.5
      vertex -51.1526 44.5628 -14.5
    endloop
  endfacet
  facet normal -0.425787 0.904824 0
    outer loop
      vertex -50.6865 44.7474 -14.5
      vertex -50.9137 44.6404 -11.5
      vertex -50.6865 44.7474 -11.5
    endloop
  endfacet
  facet normal -0.425787 0.904824 0
    outer loop
      vertex -50.9137 44.6404 -11.5
      vertex -50.6865 44.7474 -14.5
      vertex -50.9137 44.6404 -14.5
    endloop
  endfacet
  facet normal -0.929774 -0.368131 0
    outer loop
      vertex -49.7479 47.118 -14.5
      vertex -49.8403 47.3516 -11.5
      vertex -49.8403 47.3516 -14.5
    endloop
  endfacet
  facet normal -0.929774 -0.368131 0
    outer loop
      vertex -49.8403 47.3516 -11.5
      vertex -49.7479 47.118 -14.5
      vertex -49.7479 47.118 -11.5
    endloop
  endfacet
  facet normal -0.968583 -0.248692 0
    outer loop
      vertex -49.6854 46.8748 -14.5
      vertex -49.7479 47.118 -11.5
      vertex -49.7479 47.118 -14.5
    endloop
  endfacet
  facet normal -0.968583 -0.248692 0
    outer loop
      vertex -49.7479 47.118 -11.5
      vertex -49.6854 46.8748 -14.5
      vertex -49.6854 46.8748 -11.5
    endloop
  endfacet
  facet normal -1 0 0
    outer loop
      vertex -49.6539 46.3744 -14.5
      vertex -49.6539 46.6256 -11.5
      vertex -49.6539 46.6256 -14.5
    endloop
  endfacet
  facet normal -1 -0 0
    outer loop
      vertex -49.6539 46.6256 -11.5
      vertex -49.6539 46.3744 -14.5
      vertex -49.6539 46.3744 -11.5
    endloop
  endfacet
  facet normal -0.929774 0.368131 0
    outer loop
      vertex -49.8403 45.6484 -14.5
      vertex -49.7479 45.882 -11.5
      vertex -49.7479 45.882 -14.5
    endloop
  endfacet
  facet normal -0.929774 0.368131 0
    outer loop
      vertex -49.7479 45.882 -11.5
      vertex -49.8403 45.6484 -14.5
      vertex -49.8403 45.6484 -11.5
    endloop
  endfacet
  facet normal -0.876314 0.48174 0
    outer loop
      vertex -49.9613 45.4283 -14.5
      vertex -49.8403 45.6484 -11.5
      vertex -49.8403 45.6484 -14.5
    endloop
  endfacet
  facet normal -0.876314 0.48174 0
    outer loop
      vertex -49.8403 45.6484 -11.5
      vertex -49.9613 45.4283 -14.5
      vertex -49.9613 45.4283 -11.5
    endloop
  endfacet
  facet normal -0.992115 0.125332 0
    outer loop
      vertex -49.6854 46.1252 -14.5
      vertex -49.6539 46.3744 -11.5
      vertex -49.6539 46.3744 -14.5
    endloop
  endfacet
  facet normal -0.992115 0.125332 0
    outer loop
      vertex -49.6539 46.3744 -11.5
      vertex -49.6854 46.1252 -14.5
      vertex -49.6854 46.1252 -11.5
    endloop
  endfacet
  facet normal -0.80901 0.587795 0
    outer loop
      vertex -50.109 45.2252 -14.5
      vertex -49.9613 45.4283 -11.5
      vertex -49.9613 45.4283 -14.5
    endloop
  endfacet
  facet normal -0.80901 0.587795 0
    outer loop
      vertex -49.9613 45.4283 -11.5
      vertex -50.109 45.2252 -14.5
      vertex -50.109 45.2252 -11.5
    endloop
  endfacet
  facet normal -0.535825 0.844329 0
    outer loop
      vertex -50.4744 44.882 -14.5
      vertex -50.6865 44.7474 -11.5
      vertex -50.4744 44.882 -11.5
    endloop
  endfacet
  facet normal -0.535825 0.844329 0
    outer loop
      vertex -50.6865 44.7474 -11.5
      vertex -50.4744 44.882 -14.5
      vertex -50.6865 44.7474 -14.5
    endloop
  endfacet
  facet normal -0.637421 0.770516 0
    outer loop
      vertex -50.2809 45.0421 -14.5
      vertex -50.4744 44.882 -11.5
      vertex -50.2809 45.0421 -11.5
    endloop
  endfacet
  facet normal -0.637421 0.770516 0
    outer loop
      vertex -50.4744 44.882 -11.5
      vertex -50.2809 45.0421 -14.5
      vertex -50.4744 44.882 -14.5
    endloop
  endfacet
  facet normal -0.968583 0.248692 0
    outer loop
      vertex -49.7479 45.882 -14.5
      vertex -49.6854 46.1252 -11.5
      vertex -49.6854 46.1252 -14.5
    endloop
  endfacet
  facet normal -0.968583 0.248692 0
    outer loop
      vertex -49.6854 46.1252 -11.5
      vertex -49.7479 45.882 -14.5
      vertex -49.7479 45.882 -11.5
    endloop
  endfacet
  facet normal 0.0627887 -0.998027 0
    outer loop
      vertex -51.9007 -44.5158 -14.5
      vertex -51.65 -44.5 -11.5
      vertex -51.9007 -44.5158 -11.5
    endloop
  endfacet
  facet normal 0.0627887 -0.998027 0
    outer loop
      vertex -51.65 -44.5 -11.5
      vertex -51.9007 -44.5158 -14.5
      vertex -51.65 -44.5 -14.5
    endloop
  endfacet
  facet normal 1 -0 0
    outer loop
      vertex -53.6461 -46.6256 -11.5
      vertex -53.6461 -46.3744 -14.5
      vertex -53.6461 -46.3744 -11.5
    endloop
  endfacet
  facet normal 1 0 0
    outer loop
      vertex -53.6461 -46.3744 -14.5
      vertex -53.6461 -46.6256 -11.5
      vertex -53.6461 -46.6256 -14.5
    endloop
  endfacet
  facet normal -1 0 0
    outer loop
      vertex -49.6539 -46.6256 -14.5
      vertex -49.6539 -46.3744 -11.5
      vertex -49.6539 -46.3744 -14.5
    endloop
  endfacet
  facet normal -1 -0 0
    outer loop
      vertex -49.6539 -46.3744 -11.5
      vertex -49.6539 -46.6256 -14.5
      vertex -49.6539 -46.6256 -11.5
    endloop
  endfacet
  facet normal -0.72897 -0.684545 0
    outer loop
      vertex -50.109 -45.2252 -14.5
      vertex -50.2809 -45.0421 -11.5
      vertex -50.2809 -45.0421 -14.5
    endloop
  endfacet
  facet normal -0.72897 -0.684545 0
    outer loop
      vertex -50.2809 -45.0421 -11.5
      vertex -50.109 -45.2252 -14.5
      vertex -50.109 -45.2252 -11.5
    endloop
  endfacet
  facet normal 0.72897 -0.684545 0
    outer loop
      vertex -53.191 -45.2252 -11.5
      vertex -53.0191 -45.0421 -14.5
      vertex -53.0191 -45.0421 -11.5
    endloop
  endfacet
  facet normal 0.72897 -0.684545 0
    outer loop
      vertex -53.0191 -45.0421 -14.5
      vertex -53.191 -45.2252 -11.5
      vertex -53.191 -45.2252 -14.5
    endloop
  endfacet
  facet normal 0.929779 0.368118 0
    outer loop
      vertex -53.4597 -47.3516 -11.5
      vertex -53.5521 -47.118 -14.5
      vertex -53.5521 -47.118 -11.5
    endloop
  endfacet
  facet normal 0.929779 0.368118 0
    outer loop
      vertex -53.5521 -47.118 -14.5
      vertex -53.4597 -47.3516 -11.5
      vertex -53.4597 -47.3516 -14.5
    endloop
  endfacet
  facet normal 0.425787 -0.904824 0
    outer loop
      vertex -52.6135 -44.7474 -14.5
      vertex -52.3862 -44.6404 -11.5
      vertex -52.6135 -44.7474 -11.5
    endloop
  endfacet
  facet normal 0.425787 -0.904824 0
    outer loop
      vertex -52.3862 -44.6404 -11.5
      vertex -52.6135 -44.7474 -14.5
      vertex -52.3862 -44.6404 -14.5
    endloop
  endfacet
  facet normal 0.187378 -0.982288 0
    outer loop
      vertex -52.1474 -44.5628 -14.5
      vertex -51.9007 -44.5158 -11.5
      vertex -52.1474 -44.5628 -11.5
    endloop
  endfacet
  facet normal 0.187378 -0.982288 0
    outer loop
      vertex -51.9007 -44.5158 -11.5
      vertex -52.1474 -44.5628 -14.5
      vertex -51.9007 -44.5158 -14.5
    endloop
  endfacet
  facet normal 0.929779 -0.368118 0
    outer loop
      vertex -53.5521 -45.882 -11.5
      vertex -53.4597 -45.6484 -14.5
      vertex -53.4597 -45.6484 -11.5
    endloop
  endfacet
  facet normal 0.929779 -0.368118 0
    outer loop
      vertex -53.4597 -45.6484 -14.5
      vertex -53.5521 -45.882 -11.5
      vertex -53.5521 -45.882 -14.5
    endloop
  endfacet
  facet normal 0.968583 -0.248692 0
    outer loop
      vertex -53.6146 -46.1252 -11.5
      vertex -53.5521 -45.882 -14.5
      vertex -53.5521 -45.882 -11.5
    endloop
  endfacet
  facet normal 0.968583 -0.248692 0
    outer loop
      vertex -53.5521 -45.882 -14.5
      vertex -53.6146 -46.1252 -11.5
      vertex -53.6146 -46.1252 -14.5
    endloop
  endfacet
  facet normal 0.809017 -0.587785 0
    outer loop
      vertex -53.3387 -45.4283 -11.5
      vertex -53.191 -45.2252 -14.5
      vertex -53.191 -45.2252 -11.5
    endloop
  endfacet
  facet normal 0.809017 -0.587785 0
    outer loop
      vertex -53.191 -45.2252 -14.5
      vertex -53.3387 -45.4283 -11.5
      vertex -53.3387 -45.4283 -14.5
    endloop
  endfacet
  facet normal 0.309015 0.951057 -0
    outer loop
      vertex -52.1474 -48.4372 -14.5
      vertex -52.3862 -48.3596 -11.5
      vertex -52.1474 -48.4372 -11.5
    endloop
  endfacet
  facet normal 0.309015 0.951057 0
    outer loop
      vertex -52.3862 -48.3596 -11.5
      vertex -52.1474 -48.4372 -14.5
      vertex -52.3862 -48.3596 -14.5
    endloop
  endfacet
  facet normal 0.876302 0.481763 0
    outer loop
      vertex -53.3387 -47.5717 -11.5
      vertex -53.4597 -47.3516 -14.5
      vertex -53.4597 -47.3516 -11.5
    endloop
  endfacet
  facet normal 0.876302 0.481763 0
    outer loop
      vertex -53.4597 -47.3516 -14.5
      vertex -53.3387 -47.5717 -11.5
      vertex -53.3387 -47.5717 -14.5
    endloop
  endfacet
  facet normal 0.992115 0.125332 0
    outer loop
      vertex -53.6146 -46.8748 -11.5
      vertex -53.6461 -46.6256 -14.5
      vertex -53.6461 -46.6256 -11.5
    endloop
  endfacet
  facet normal 0.992115 0.125332 0
    outer loop
      vertex -53.6461 -46.6256 -14.5
      vertex -53.6146 -46.8748 -11.5
      vertex -53.6146 -46.8748 -14.5
    endloop
  endfacet
  facet normal -0.929774 -0.368131 0
    outer loop
      vertex -49.7479 -45.882 -14.5
      vertex -49.8403 -45.6484 -11.5
      vertex -49.8403 -45.6484 -14.5
    endloop
  endfacet
  facet normal -0.929774 -0.368131 0
    outer loop
      vertex -49.8403 -45.6484 -11.5
      vertex -49.7479 -45.882 -14.5
      vertex -49.7479 -45.882 -11.5
    endloop
  endfacet
  facet normal 0.309015 -0.951057 0
    outer loop
      vertex -52.3862 -44.6404 -14.5
      vertex -52.1474 -44.5628 -11.5
      vertex -52.3862 -44.6404 -11.5
    endloop
  endfacet
  facet normal 0.309015 -0.951057 0
    outer loop
      vertex -52.1474 -44.5628 -11.5
      vertex -52.3862 -44.6404 -14.5
      vertex -52.1474 -44.5628 -14.5
    endloop
  endfacet
  facet normal 0.637421 -0.770516 0
    outer loop
      vertex -53.0191 -45.0421 -14.5
      vertex -52.8256 -44.882 -11.5
      vertex -53.0191 -45.0421 -11.5
    endloop
  endfacet
  facet normal 0.637421 -0.770516 0
    outer loop
      vertex -52.8256 -44.882 -11.5
      vertex -53.0191 -45.0421 -14.5
      vertex -52.8256 -44.882 -14.5
    endloop
  endfacet
  facet normal 0.535825 -0.844329 0
    outer loop
      vertex -52.8256 -44.882 -14.5
      vertex -52.6135 -44.7474 -11.5
      vertex -52.8256 -44.882 -11.5
    endloop
  endfacet
  facet normal 0.535825 -0.844329 0
    outer loop
      vertex -52.6135 -44.7474 -11.5
      vertex -52.8256 -44.882 -14.5
      vertex -52.6135 -44.7474 -14.5
    endloop
  endfacet
  facet normal 0.992115 -0.125332 0
    outer loop
      vertex -53.6461 -46.3744 -11.5
      vertex -53.6146 -46.1252 -14.5
      vertex -53.6146 -46.1252 -11.5
    endloop
  endfacet
  facet normal 0.992115 -0.125332 0
    outer loop
      vertex -53.6146 -46.1252 -14.5
      vertex -53.6461 -46.3744 -11.5
      vertex -53.6461 -46.3744 -14.5
    endloop
  endfacet
  facet normal 0.876302 -0.481763 0
    outer loop
      vertex -53.4597 -45.6484 -11.5
      vertex -53.3387 -45.4283 -14.5
      vertex -53.3387 -45.4283 -11.5
    endloop
  endfacet
  facet normal 0.876302 -0.481763 0
    outer loop
      vertex -53.3387 -45.4283 -14.5
      vertex -53.4597 -45.6484 -11.5
      vertex -53.4597 -45.6484 -14.5
    endloop
  endfacet
  facet normal 0.637421 0.770516 -0
    outer loop
      vertex -52.8256 -48.118 -14.5
      vertex -53.0191 -47.9579 -11.5
      vertex -52.8256 -48.118 -11.5
    endloop
  endfacet
  facet normal 0.637421 0.770516 0
    outer loop
      vertex -53.0191 -47.9579 -11.5
      vertex -52.8256 -48.118 -14.5
      vertex -53.0191 -47.9579 -14.5
    endloop
  endfacet
  facet normal 0.425774 0.904829 -0
    outer loop
      vertex -52.3862 -48.3596 -14.5
      vertex -52.6135 -48.2526 -11.5
      vertex -52.3862 -48.3596 -11.5
    endloop
  endfacet
  facet normal 0.425774 0.904829 0
    outer loop
      vertex -52.6135 -48.2526 -11.5
      vertex -52.3862 -48.3596 -14.5
      vertex -52.6135 -48.2526 -14.5
    endloop
  endfacet
  facet normal 0.187393 0.982285 -0
    outer loop
      vertex -51.9007 -48.4842 -14.5
      vertex -52.1474 -48.4372 -11.5
      vertex -51.9007 -48.4842 -11.5
    endloop
  endfacet
  facet normal 0.187393 0.982285 0
    outer loop
      vertex -52.1474 -48.4372 -11.5
      vertex -51.9007 -48.4842 -14.5
      vertex -52.1474 -48.4372 -14.5
    endloop
  endfacet
  facet normal 0.809017 0.587785 0
    outer loop
      vertex -53.191 -47.7748 -11.5
      vertex -53.3387 -47.5717 -14.5
      vertex -53.3387 -47.5717 -11.5
    endloop
  endfacet
  facet normal 0.809017 0.587785 0
    outer loop
      vertex -53.3387 -47.5717 -14.5
      vertex -53.191 -47.7748 -11.5
      vertex -53.191 -47.7748 -14.5
    endloop
  endfacet
  facet normal 0.968583 0.248692 0
    outer loop
      vertex -53.5521 -47.118 -11.5
      vertex -53.6146 -46.8748 -14.5
      vertex -53.6146 -46.8748 -11.5
    endloop
  endfacet
  facet normal 0.968583 0.248692 0
    outer loop
      vertex -53.6146 -46.8748 -14.5
      vertex -53.5521 -47.118 -11.5
      vertex -53.5521 -47.118 -14.5
    endloop
  endfacet
  facet normal -0.0627877 -0.998027 0
    outer loop
      vertex -51.65 -44.5 -14.5
      vertex -51.3993 -44.5158 -11.5
      vertex -51.65 -44.5 -11.5
    endloop
  endfacet
  facet normal -0.0627877 -0.998027 -0
    outer loop
      vertex -51.3993 -44.5158 -11.5
      vertex -51.65 -44.5 -14.5
      vertex -51.3993 -44.5158 -14.5
    endloop
  endfacet
  facet normal -0.187375 -0.982288 0
    outer loop
      vertex -51.3993 -44.5158 -14.5
      vertex -51.1526 -44.5628 -11.5
      vertex -51.3993 -44.5158 -11.5
    endloop
  endfacet
  facet normal -0.187375 -0.982288 -0
    outer loop
      vertex -51.1526 -44.5628 -11.5
      vertex -51.3993 -44.5158 -14.5
      vertex -51.1526 -44.5628 -14.5
    endloop
  endfacet
  facet normal -0.309019 -0.951056 0
    outer loop
      vertex -51.1526 -44.5628 -14.5
      vertex -50.9137 -44.6404 -11.5
      vertex -51.1526 -44.5628 -11.5
    endloop
  endfacet
  facet normal -0.309019 -0.951056 -0
    outer loop
      vertex -50.9137 -44.6404 -11.5
      vertex -51.1526 -44.5628 -14.5
      vertex -50.9137 -44.6404 -14.5
    endloop
  endfacet
  facet normal -0.72897 0.684545 0
    outer loop
      vertex -50.2809 -47.9579 -14.5
      vertex -50.109 -47.7748 -11.5
      vertex -50.109 -47.7748 -14.5
    endloop
  endfacet
  facet normal -0.72897 0.684545 0
    outer loop
      vertex -50.109 -47.7748 -11.5
      vertex -50.2809 -47.9579 -14.5
      vertex -50.2809 -47.9579 -11.5
    endloop
  endfacet
  facet normal -0.425774 0.904829 0
    outer loop
      vertex -50.6865 -48.2526 -14.5
      vertex -50.9137 -48.3596 -11.5
      vertex -50.6865 -48.2526 -11.5
    endloop
  endfacet
  facet normal -0.425774 0.904829 0
    outer loop
      vertex -50.9137 -48.3596 -11.5
      vertex -50.6865 -48.2526 -14.5
      vertex -50.9137 -48.3596 -14.5
    endloop
  endfacet
  facet normal -0.535825 0.844329 0
    outer loop
      vertex -50.4744 -48.118 -14.5
      vertex -50.6865 -48.2526 -11.5
      vertex -50.4744 -48.118 -11.5
    endloop
  endfacet
  facet normal -0.535825 0.844329 0
    outer loop
      vertex -50.6865 -48.2526 -11.5
      vertex -50.4744 -48.118 -14.5
      vertex -50.6865 -48.2526 -14.5
    endloop
  endfacet
  facet normal -0.876314 -0.48174 0
    outer loop
      vertex -49.8403 -45.6484 -14.5
      vertex -49.9613 -45.4283 -11.5
      vertex -49.9613 -45.4283 -14.5
    endloop
  endfacet
  facet normal -0.876314 -0.48174 0
    outer loop
      vertex -49.9613 -45.4283 -11.5
      vertex -49.8403 -45.6484 -14.5
      vertex -49.8403 -45.6484 -11.5
    endloop
  endfacet
  facet normal 0.535825 0.844329 -0
    outer loop
      vertex -52.6135 -48.2526 -14.5
      vertex -52.8256 -48.118 -11.5
      vertex -52.6135 -48.2526 -11.5
    endloop
  endfacet
  facet normal 0.535825 0.844329 0
    outer loop
      vertex -52.8256 -48.118 -11.5
      vertex -52.6135 -48.2526 -14.5
      vertex -52.8256 -48.118 -14.5
    endloop
  endfacet
  facet normal 0.0627887 0.998027 -0
    outer loop
      vertex -51.65 -48.5 -14.5
      vertex -51.9007 -48.4842 -11.5
      vertex -51.65 -48.5 -11.5
    endloop
  endfacet
  facet normal 0.0627887 0.998027 0
    outer loop
      vertex -51.9007 -48.4842 -11.5
      vertex -51.65 -48.5 -14.5
      vertex -51.9007 -48.4842 -14.5
    endloop
  endfacet
  facet normal 0.72897 0.684545 0
    outer loop
      vertex -53.0191 -47.9579 -11.5
      vertex -53.191 -47.7748 -14.5
      vertex -53.191 -47.7748 -11.5
    endloop
  endfacet
  facet normal 0.72897 0.684545 0
    outer loop
      vertex -53.191 -47.7748 -14.5
      vertex -53.0191 -47.9579 -11.5
      vertex -53.0191 -47.9579 -14.5
    endloop
  endfacet
  facet normal -0.425787 -0.904824 0
    outer loop
      vertex -50.9137 -44.6404 -14.5
      vertex -50.6865 -44.7474 -11.5
      vertex -50.9137 -44.6404 -11.5
    endloop
  endfacet
  facet normal -0.425787 -0.904824 -0
    outer loop
      vertex -50.6865 -44.7474 -11.5
      vertex -50.9137 -44.6404 -14.5
      vertex -50.6865 -44.7474 -14.5
    endloop
  endfacet
  facet normal -0.929774 0.368131 0
    outer loop
      vertex -49.8403 -47.3516 -14.5
      vertex -49.7479 -47.118 -11.5
      vertex -49.7479 -47.118 -14.5
    endloop
  endfacet
  facet normal -0.929774 0.368131 0
    outer loop
      vertex -49.7479 -47.118 -11.5
      vertex -49.8403 -47.3516 -14.5
      vertex -49.8403 -47.3516 -11.5
    endloop
  endfacet
  facet normal -0.637421 0.770516 0
    outer loop
      vertex -50.2809 -47.9579 -14.5
      vertex -50.4744 -48.118 -11.5
      vertex -50.2809 -47.9579 -11.5
    endloop
  endfacet
  facet normal -0.637421 0.770516 0
    outer loop
      vertex -50.4744 -48.118 -11.5
      vertex -50.2809 -47.9579 -14.5
      vertex -50.4744 -48.118 -14.5
    endloop
  endfacet
  facet normal -0.309019 0.951056 0
    outer loop
      vertex -50.9137 -48.3596 -14.5
      vertex -51.1526 -48.4372 -11.5
      vertex -50.9137 -48.3596 -11.5
    endloop
  endfacet
  facet normal -0.309019 0.951056 0
    outer loop
      vertex -51.1526 -48.4372 -11.5
      vertex -50.9137 -48.3596 -14.5
      vertex -51.1526 -48.4372 -14.5
    endloop
  endfacet
  facet normal -0.80901 -0.587795 0
    outer loop
      vertex -49.9613 -45.4283 -14.5
      vertex -50.109 -45.2252 -11.5
      vertex -50.109 -45.2252 -14.5
    endloop
  endfacet
  facet normal -0.80901 -0.587795 0
    outer loop
      vertex -50.109 -45.2252 -11.5
      vertex -49.9613 -45.4283 -14.5
      vertex -49.9613 -45.4283 -11.5
    endloop
  endfacet
  facet normal -0.968583 -0.248692 0
    outer loop
      vertex -49.6854 -46.1252 -14.5
      vertex -49.7479 -45.882 -11.5
      vertex -49.7479 -45.882 -14.5
    endloop
  endfacet
  facet normal -0.968583 -0.248692 0
    outer loop
      vertex -49.7479 -45.882 -11.5
      vertex -49.6854 -46.1252 -14.5
      vertex -49.6854 -46.1252 -11.5
    endloop
  endfacet
  facet normal -0.992115 -0.125332 0
    outer loop
      vertex -49.6539 -46.3744 -14.5
      vertex -49.6854 -46.1252 -11.5
      vertex -49.6854 -46.1252 -14.5
    endloop
  endfacet
  facet normal -0.992115 -0.125332 0
    outer loop
      vertex -49.6854 -46.1252 -11.5
      vertex -49.6539 -46.3744 -14.5
      vertex -49.6539 -46.3744 -11.5
    endloop
  endfacet
  facet normal -0.535825 -0.844329 0
    outer loop
      vertex -50.6865 -44.7474 -14.5
      vertex -50.4744 -44.882 -11.5
      vertex -50.6865 -44.7474 -11.5
    endloop
  endfacet
  facet normal -0.535825 -0.844329 -0
    outer loop
      vertex -50.4744 -44.882 -11.5
      vertex -50.6865 -44.7474 -14.5
      vertex -50.4744 -44.882 -14.5
    endloop
  endfacet
  facet normal -0.637421 -0.770516 0
    outer loop
      vertex -50.4744 -44.882 -14.5
      vertex -50.2809 -45.0421 -11.5
      vertex -50.4744 -44.882 -11.5
    endloop
  endfacet
  facet normal -0.637421 -0.770516 -0
    outer loop
      vertex -50.2809 -45.0421 -11.5
      vertex -50.4744 -44.882 -14.5
      vertex -50.2809 -45.0421 -14.5
    endloop
  endfacet
  facet normal -0.992115 0.125332 0
    outer loop
      vertex -49.6854 -46.8748 -14.5
      vertex -49.6539 -46.6256 -11.5
      vertex -49.6539 -46.6256 -14.5
    endloop
  endfacet
  facet normal -0.992115 0.125332 0
    outer loop
      vertex -49.6539 -46.6256 -11.5
      vertex -49.6854 -46.8748 -14.5
      vertex -49.6854 -46.8748 -11.5
    endloop
  endfacet
  facet normal -0.876314 0.48174 0
    outer loop
      vertex -49.9613 -47.5717 -14.5
      vertex -49.8403 -47.3516 -11.5
      vertex -49.8403 -47.3516 -14.5
    endloop
  endfacet
  facet normal -0.876314 0.48174 0
    outer loop
      vertex -49.8403 -47.3516 -11.5
      vertex -49.9613 -47.5717 -14.5
      vertex -49.9613 -47.5717 -11.5
    endloop
  endfacet
  facet normal -0.18739 0.982286 0
    outer loop
      vertex -51.1526 -48.4372 -14.5
      vertex -51.3993 -48.4842 -11.5
      vertex -51.1526 -48.4372 -11.5
    endloop
  endfacet
  facet normal -0.18739 0.982286 0
    outer loop
      vertex -51.3993 -48.4842 -11.5
      vertex -51.1526 -48.4372 -14.5
      vertex -51.3993 -48.4842 -14.5
    endloop
  endfacet
  facet normal -0.0627877 0.998027 0
    outer loop
      vertex -51.3993 -48.4842 -14.5
      vertex -51.65 -48.5 -11.5
      vertex -51.3993 -48.4842 -11.5
    endloop
  endfacet
  facet normal -0.0627877 0.998027 0
    outer loop
      vertex -51.65 -48.5 -11.5
      vertex -51.3993 -48.4842 -14.5
      vertex -51.65 -48.5 -14.5
    endloop
  endfacet
  facet normal -0.968583 0.248692 0
    outer loop
      vertex -49.7479 -47.118 -14.5
      vertex -49.6854 -46.8748 -11.5
      vertex -49.6854 -46.8748 -14.5
    endloop
  endfacet
  facet normal -0.968583 0.248692 0
    outer loop
      vertex -49.6854 -46.8748 -11.5
      vertex -49.7479 -47.118 -14.5
      vertex -49.7479 -47.118 -11.5
    endloop
  endfacet
  facet normal -0.80901 0.587795 0
    outer loop
      vertex -50.109 -47.7748 -14.5
      vertex -49.9613 -47.5717 -11.5
      vertex -49.9613 -47.5717 -14.5
    endloop
  endfacet
  facet normal -0.80901 0.587795 0
    outer loop
      vertex -49.9613 -47.5717 -11.5
      vertex -50.109 -47.7748 -14.5
      vertex -50.109 -47.7748 -11.5
    endloop
  endfacet
endsolid OpenSCAD_Model
