solid OpenSCAD_Model
  facet normal -1 0 0
    outer loop
      vertex -1.6 -47.5 9.7
      vertex -1.6 -60.5 9.7
      vertex -1.6 -47.5 10.7
    endloop
  endfacet
  facet normal -1 0 0
    outer loop
      vertex -1.6 47.5 10.7
      vertex -1.6 60.5 9.7
      vertex -1.6 47.5 9.7
    endloop
  endfacet
  facet normal -1 0 0
    outer loop
      vertex -1.6 60.5 9.7
      vertex -1.6 47.5 10.7
      vertex -1.6 60.5 12.7
    endloop
  endfacet
  facet normal -1 0 0
    outer loop
      vertex -1.6 43 10.7
      vertex -1.6 60.5 12.7
      vertex -1.6 47.5 10.7
    endloop
  endfacet
  facet normal -1 0 0
    outer loop
      vertex -1.6 -43 10.7
      vertex -1.6 60.5 12.7
      vertex -1.6 43 10.7
    endloop
  endfacet
  facet normal -1 0 0
    outer loop
      vertex -1.6 -60.5 12.7
      vertex -1.6 -43 10.7
      vertex -1.6 -47.5 10.7
    endloop
  endfacet
  facet normal -1 0 0
    outer loop
      vertex -1.6 -43 10.7
      vertex -1.6 -60.5 12.7
      vertex -1.6 60.5 12.7
    endloop
  endfacet
  facet normal -1 0 0
    outer loop
      vertex -1.6 -60.5 12.7
      vertex -1.6 -47.5 10.7
      vertex -1.6 -60.5 9.7
    endloop
  endfacet
  facet normal -0 0 1
    outer loop
      vertex -1.6 60.5 12.7
      vertex 2.6 -60.5 12.7
      vertex 2.6 60.5 12.7
    endloop
  endfacet
  facet normal 0 0 1
    outer loop
      vertex 2.6 -60.5 12.7
      vertex -1.6 60.5 12.7
      vertex -1.6 -60.5 12.7
    endloop
  endfacet
  facet normal 1 0 0
    outer loop
      vertex 2.6 60.5 12.7
      vertex 2.6 47.5 9.7
      vertex 2.6 60.5 9.7
    endloop
  endfacet
  facet normal 1 0 0
    outer loop
      vertex 2.6 47.5 9.7
      vertex 2.6 32.5 5.7
      vertex 2.6 47.5 5.7
    endloop
  endfacet
  facet normal 1 0 0
    outer loop
      vertex 2.6 32.5 5.7
      vertex 2.6 27.5 5.7
      vertex 2.6 32.5 -2.8
    endloop
  endfacet
  facet normal 1 0 0
    outer loop
      vertex 2.6 47.5 9.7
      vertex 2.6 27.5 5.7
      vertex 2.6 32.5 5.7
    endloop
  endfacet
  facet normal 1 0 0
    outer loop
      vertex 2.6 7.5 5.7
      vertex 2.6 47.5 9.7
      vertex 2.6 60.5 12.7
    endloop
  endfacet
  facet normal 1 0 0
    outer loop
      vertex 2.6 47.5 9.7
      vertex 2.6 22.5 5.7
      vertex 2.6 27.5 5.7
    endloop
  endfacet
  facet normal 1 0 0
    outer loop
      vertex 2.6 22.5 5.7
      vertex 2.6 17.5 5.7
      vertex 2.6 22.5 -2.8
    endloop
  endfacet
  facet normal 1 0 0
    outer loop
      vertex 2.6 47.5 9.7
      vertex 2.6 17.5 5.7
      vertex 2.6 22.5 5.7
    endloop
  endfacet
  facet normal 1 0 0
    outer loop
      vertex 2.6 47.5 9.7
      vertex 2.6 12.5 5.7
      vertex 2.6 17.5 5.7
    endloop
  endfacet
  facet normal 1 0 0
    outer loop
      vertex 2.6 12.5 5.7
      vertex 2.6 7.5 5.7
      vertex 2.6 12.5 -2.8
    endloop
  endfacet
  facet normal 1 0 0
    outer loop
      vertex 2.6 47.5 9.7
      vertex 2.6 7.5 5.7
      vertex 2.6 12.5 5.7
    endloop
  endfacet
  facet normal 1 0 0
    outer loop
      vertex 2.6 60.5 12.7
      vertex 2.6 2.5 5.7
      vertex 2.6 7.5 5.7
    endloop
  endfacet
  facet normal 1 0 0
    outer loop
      vertex 2.6 2.5 5.7
      vertex 2.6 -2.5 5.7
      vertex 2.6 2.5 -2.8
    endloop
  endfacet
  facet normal 1 0 0
    outer loop
      vertex 2.6 60.5 12.7
      vertex 2.6 -2.5 5.7
      vertex 2.6 2.5 5.7
    endloop
  endfacet
  facet normal 1 -0 0
    outer loop
      vertex 2.6 -60.5 12.7
      vertex 2.6 -2.5 5.7
      vertex 2.6 60.5 12.7
    endloop
  endfacet
  facet normal 1 0 0
    outer loop
      vertex 2.6 -7.5 5.7
      vertex 2.6 -12.5 5.7
      vertex 2.6 -7.5 -2.8
    endloop
  endfacet
  facet normal 1 0 0
    outer loop
      vertex 2.6 -2.5 5.7
      vertex 2.6 -60.5 12.7
      vertex 2.6 -7.5 5.7
    endloop
  endfacet
  facet normal 1 -0 -0
    outer loop
      vertex 2.6 -47.5 9.7
      vertex 2.6 -7.5 5.7
      vertex 2.6 -60.5 12.7
    endloop
  endfacet
  facet normal 1 0 0
    outer loop
      vertex 2.6 -17.5 5.7
      vertex 2.6 -22.5 5.7
      vertex 2.6 -17.5 -2.8
    endloop
  endfacet
  facet normal 1 0 0
    outer loop
      vertex 2.6 -12.5 5.7
      vertex 2.6 -47.5 9.7
      vertex 2.6 -17.5 5.7
    endloop
  endfacet
  facet normal 1 0 0
    outer loop
      vertex 2.6 -17.5 5.7
      vertex 2.6 -47.5 9.7
      vertex 2.6 -22.5 5.7
    endloop
  endfacet
  facet normal 1 0 0
    outer loop
      vertex 2.6 -27.5 5.7
      vertex 2.6 -32.5 5.7
      vertex 2.6 -27.5 -2.8
    endloop
  endfacet
  facet normal 1 0 0
    outer loop
      vertex 2.6 -22.5 5.7
      vertex 2.6 -47.5 9.7
      vertex 2.6 -27.5 5.7
    endloop
  endfacet
  facet normal 1 0 0
    outer loop
      vertex 2.6 -27.5 5.7
      vertex 2.6 -47.5 9.7
      vertex 2.6 -32.5 5.7
    endloop
  endfacet
  facet normal 1 0 0
    outer loop
      vertex 2.6 -7.5 5.7
      vertex 2.6 -47.5 9.7
      vertex 2.6 -12.5 5.7
    endloop
  endfacet
  facet normal 1 0 0
    outer loop
      vertex 2.6 -47.5 9.7
      vertex 2.6 -60.5 12.7
      vertex 2.6 -60.5 9.7
    endloop
  endfacet
  facet normal 1 0 0
    outer loop
      vertex 2.6 32.5 -2.8
      vertex 2.6 27.5 5.7
      vertex 2.6 27.5 -2.8
    endloop
  endfacet
  facet normal 1 0 0
    outer loop
      vertex 2.6 22.5 -2.8
      vertex 2.6 17.5 5.7
      vertex 2.6 17.5 -2.8
    endloop
  endfacet
  facet normal 1 0 0
    outer loop
      vertex 2.6 12.5 -2.8
      vertex 2.6 7.5 5.7
      vertex 2.6 7.5 -2.8
    endloop
  endfacet
  facet normal 1 0 0
    outer loop
      vertex 2.6 2.5 -2.8
      vertex 2.6 -2.5 5.7
      vertex 2.6 -2.5 -2.8
    endloop
  endfacet
  facet normal 1 0 0
    outer loop
      vertex 2.6 -7.5 -2.8
      vertex 2.6 -12.5 5.7
      vertex 2.6 -12.5 -2.8
    endloop
  endfacet
  facet normal 1 0 0
    outer loop
      vertex 2.6 -17.5 -2.8
      vertex 2.6 -22.5 5.7
      vertex 2.6 -22.5 -2.8
    endloop
  endfacet
  facet normal 1 0 0
    outer loop
      vertex 2.6 -27.5 -2.8
      vertex 2.6 -32.5 5.7
      vertex 2.6 -32.5 -2.8
    endloop
  endfacet
  facet normal 1 0 0
    outer loop
      vertex 2.6 -32.5 5.7
      vertex 2.6 -47.5 9.7
      vertex 2.6 -47.5 5.7
    endloop
  endfacet
  facet normal 0 1 -0
    outer loop
      vertex 2.6 60.5 9.7
      vertex -1.6 60.5 12.7
      vertex 2.6 60.5 12.7
    endloop
  endfacet
  facet normal 0 1 0
    outer loop
      vertex -1.6 60.5 12.7
      vertex 2.6 60.5 9.7
      vertex -1.6 60.5 9.7
    endloop
  endfacet
  facet normal 0 0 -1
    outer loop
      vertex -1.6 -60.5 9.7
      vertex 2.6 -47.5 9.7
      vertex 2.6 -60.5 9.7
    endloop
  endfacet
  facet normal -0 0 -1
    outer loop
      vertex 2.6 -47.5 9.7
      vertex -1.6 -60.5 9.7
      vertex -1.6 -47.5 9.7
    endloop
  endfacet
  facet normal 0 0 -1
    outer loop
      vertex -1.6 47.5 9.7
      vertex 2.6 60.5 9.7
      vertex 2.6 47.5 9.7
    endloop
  endfacet
  facet normal -0 0 -1
    outer loop
      vertex 2.6 60.5 9.7
      vertex -1.6 47.5 9.7
      vertex -1.6 60.5 9.7
    endloop
  endfacet
  facet normal 0 -1 0
    outer loop
      vertex -1.6 -60.5 9.7
      vertex 2.6 -60.5 12.7
      vertex -1.6 -60.5 12.7
    endloop
  endfacet
  facet normal 0 -1 -0
    outer loop
      vertex 2.6 -60.5 12.7
      vertex -1.6 -60.5 9.7
      vertex 2.6 -60.5 9.7
    endloop
  endfacet
  facet normal -1 0 0
    outer loop
      vertex -2.6 -47.5 5.7
      vertex -2.6 -43 10.7
      vertex -2.6 -43 5.7
    endloop
  endfacet
  facet normal -1 -0 0
    outer loop
      vertex -2.6 -43 10.7
      vertex -2.6 -47.5 5.7
      vertex -2.6 -47.5 10.7
    endloop
  endfacet
  facet normal -1 0 0
    outer loop
      vertex -2.6 43 5.7
      vertex -2.6 47.5 10.7
      vertex -2.6 47.5 5.7
    endloop
  endfacet
  facet normal -1 -0 0
    outer loop
      vertex -2.6 47.5 10.7
      vertex -2.6 43 5.7
      vertex -2.6 43 10.7
    endloop
  endfacet
  facet normal -0 0 1
    outer loop
      vertex -2.6 -43 10.7
      vertex -1.6 -47.5 10.7
      vertex -1.6 -43 10.7
    endloop
  endfacet
  facet normal 0 0 1
    outer loop
      vertex -1.6 -47.5 10.7
      vertex -2.6 -43 10.7
      vertex -2.6 -47.5 10.7
    endloop
  endfacet
  facet normal -0 0 1
    outer loop
      vertex -2.6 47.5 10.7
      vertex -1.6 43 10.7
      vertex -1.6 47.5 10.7
    endloop
  endfacet
  facet normal 0 0 1
    outer loop
      vertex -1.6 43 10.7
      vertex -2.6 47.5 10.7
      vertex -2.6 43 10.7
    endloop
  endfacet
  facet normal 0 0 -1
    outer loop
      vertex -1.6 -43 5.7
      vertex 2.6 -32.5 5.7
      vertex 2.6 -47.5 5.7
    endloop
  endfacet
  facet normal 0 0 -1
    outer loop
      vertex -1.6 -43 5.7
      vertex 0.599999 -27.5 5.7
      vertex 0.599999 -32.5 5.7
    endloop
  endfacet
  facet normal -0 0 -1
    outer loop
      vertex 0.599999 -27.5 5.7
      vertex -1.6 -43 5.7
      vertex 0.599999 -22.5 5.7
    endloop
  endfacet
  facet normal -0 0 -1
    outer loop
      vertex 0.599999 -22.5 5.7
      vertex -1.6 -43 5.7
      vertex 0.599999 -17.5 5.7
    endloop
  endfacet
  facet normal -0 0 -1
    outer loop
      vertex 0.599999 -17.5 5.7
      vertex -1.6 -43 5.7
      vertex 0.599999 -12.5 5.7
    endloop
  endfacet
  facet normal -0 0 -1
    outer loop
      vertex 0.599999 -12.5 5.7
      vertex -1.6 -43 5.7
      vertex 0.599999 -7.5 5.7
    endloop
  endfacet
  facet normal -0 0 -1
    outer loop
      vertex 0.599999 -7.5 5.7
      vertex -1.6 -43 5.7
      vertex 0.599999 -2.5 5.7
    endloop
  endfacet
  facet normal -0 0 -1
    outer loop
      vertex 0.599999 -2.5 5.7
      vertex -1.6 -43 5.7
      vertex 0.599999 2.5 5.7
    endloop
  endfacet
  facet normal 0 0 -1
    outer loop
      vertex -1.6 43 5.7
      vertex 0.599999 2.5 5.7
      vertex -1.6 -43 5.7
    endloop
  endfacet
  facet normal 0 0 -1
    outer loop
      vertex 0.599999 2.5 5.7
      vertex -1.6 43 5.7
      vertex 0.599999 7.5 5.7
    endloop
  endfacet
  facet normal 0 0 -1
    outer loop
      vertex 0.599999 7.5 5.7
      vertex -1.6 43 5.7
      vertex 0.599999 12.5 5.7
    endloop
  endfacet
  facet normal 0 0 -1
    outer loop
      vertex 0.599999 12.5 5.7
      vertex -1.6 43 5.7
      vertex 0.599999 17.5 5.7
    endloop
  endfacet
  facet normal 0 0 -1
    outer loop
      vertex 0.599999 17.5 5.7
      vertex -1.6 43 5.7
      vertex 0.599999 22.5 5.7
    endloop
  endfacet
  facet normal 0 0 -1
    outer loop
      vertex 0.599999 22.5 5.7
      vertex -1.6 43 5.7
      vertex 0.599999 27.5 5.7
    endloop
  endfacet
  facet normal -0 0 -1
    outer loop
      vertex 2.6 -32.5 5.7
      vertex -1.6 -43 5.7
      vertex 0.599999 -32.5 5.7
    endloop
  endfacet
  facet normal 0 0 -1
    outer loop
      vertex -2.6 -47.5 5.7
      vertex -1.6 -43 5.7
      vertex 2.6 -47.5 5.7
    endloop
  endfacet
  facet normal -0 0 -1
    outer loop
      vertex -1.6 -43 5.7
      vertex -2.6 -47.5 5.7
      vertex -2.6 -43 5.7
    endloop
  endfacet
  facet normal 0 0 -1
    outer loop
      vertex 0.599999 -27.5 5.7
      vertex 2.6 -22.5 5.7
      vertex 2.6 -27.5 5.7
    endloop
  endfacet
  facet normal -0 0 -1
    outer loop
      vertex 2.6 -22.5 5.7
      vertex 0.599999 -27.5 5.7
      vertex 0.599999 -22.5 5.7
    endloop
  endfacet
  facet normal 0 0 -1
    outer loop
      vertex 0.599999 -17.5 5.7
      vertex 2.6 -12.5 5.7
      vertex 2.6 -17.5 5.7
    endloop
  endfacet
  facet normal -0 0 -1
    outer loop
      vertex 2.6 -12.5 5.7
      vertex 0.599999 -17.5 5.7
      vertex 0.599999 -12.5 5.7
    endloop
  endfacet
  facet normal 0 0 -1
    outer loop
      vertex 0.599999 -7.5 5.7
      vertex 2.6 -2.5 5.7
      vertex 2.6 -7.5 5.7
    endloop
  endfacet
  facet normal -0 0 -1
    outer loop
      vertex 2.6 -2.5 5.7
      vertex 0.599999 -7.5 5.7
      vertex 0.599999 -2.5 5.7
    endloop
  endfacet
  facet normal 0 0 -1
    outer loop
      vertex 0.599999 2.5 5.7
      vertex 2.6 7.5 5.7
      vertex 2.6 2.5 5.7
    endloop
  endfacet
  facet normal -0 0 -1
    outer loop
      vertex 2.6 7.5 5.7
      vertex 0.599999 2.5 5.7
      vertex 0.599999 7.5 5.7
    endloop
  endfacet
  facet normal 0 0 -1
    outer loop
      vertex 0.599999 12.5 5.7
      vertex 2.6 17.5 5.7
      vertex 2.6 12.5 5.7
    endloop
  endfacet
  facet normal -0 0 -1
    outer loop
      vertex 2.6 17.5 5.7
      vertex 0.599999 12.5 5.7
      vertex 0.599999 17.5 5.7
    endloop
  endfacet
  facet normal 0 0 -1
    outer loop
      vertex 0.599999 22.5 5.7
      vertex 2.6 27.5 5.7
      vertex 2.6 22.5 5.7
    endloop
  endfacet
  facet normal -0 0 -1
    outer loop
      vertex 2.6 27.5 5.7
      vertex 0.599999 22.5 5.7
      vertex 0.599999 27.5 5.7
    endloop
  endfacet
  facet normal 0 0 -1
    outer loop
      vertex -1.6 43 5.7
      vertex 2.6 32.5 5.7
      vertex 0.599999 32.5 5.7
    endloop
  endfacet
  facet normal 0 0 -1
    outer loop
      vertex 0.599999 27.5 5.7
      vertex -1.6 43 5.7
      vertex 0.599999 32.5 5.7
    endloop
  endfacet
  facet normal 0 0 -1
    outer loop
      vertex 2.6 32.5 5.7
      vertex -1.6 43 5.7
      vertex 2.6 47.5 5.7
    endloop
  endfacet
  facet normal 0 0 -1
    outer loop
      vertex -2.6 47.5 5.7
      vertex -1.6 43 5.7
      vertex -2.6 43 5.7
    endloop
  endfacet
  facet normal 0 0 -1
    outer loop
      vertex -1.6 43 5.7
      vertex -2.6 47.5 5.7
      vertex 2.6 47.5 5.7
    endloop
  endfacet
  facet normal 0 -1 0
    outer loop
      vertex -2.6 -47.5 10.7
      vertex -1.6 -47.5 9.7
      vertex -1.6 -47.5 10.7
    endloop
  endfacet
  facet normal 0 -1 0
    outer loop
      vertex -2.6 -47.5 5.7
      vertex -1.6 -47.5 9.7
      vertex -2.6 -47.5 10.7
    endloop
  endfacet
  facet normal 0 -1 0
    outer loop
      vertex 2.6 -47.5 5.7
      vertex -1.6 -47.5 9.7
      vertex -2.6 -47.5 5.7
    endloop
  endfacet
  facet normal 0 -1 0
    outer loop
      vertex -1.6 -47.5 9.7
      vertex 2.6 -47.5 5.7
      vertex 2.6 -47.5 9.7
    endloop
  endfacet
  facet normal 0 1 0
    outer loop
      vertex 2.6 47.5 9.7
      vertex 2.6 47.5 5.7
      vertex -1.6 47.5 9.7
    endloop
  endfacet
  facet normal 0 1 -0
    outer loop
      vertex -1.6 47.5 9.7
      vertex -2.6 47.5 10.7
      vertex -1.6 47.5 10.7
    endloop
  endfacet
  facet normal 0 1 0
    outer loop
      vertex -1.6 47.5 9.7
      vertex -2.6 47.5 5.7
      vertex -2.6 47.5 10.7
    endloop
  endfacet
  facet normal 0 1 0
    outer loop
      vertex -2.6 47.5 5.7
      vertex -1.6 47.5 9.7
      vertex 2.6 47.5 5.7
    endloop
  endfacet
  facet normal -1 0 0
    outer loop
      vertex -1.6 -43 5.7
      vertex -1.6 43 10.7
      vertex -1.6 43 5.7
    endloop
  endfacet
  facet normal -1 -0 0
    outer loop
      vertex -1.6 43 10.7
      vertex -1.6 -43 5.7
      vertex -1.6 -43 10.7
    endloop
  endfacet
  facet normal 0 -1 0
    outer loop
      vertex -2.6 43 5.7
      vertex -1.6 43 10.7
      vertex -2.6 43 10.7
    endloop
  endfacet
  facet normal 0 -1 -0
    outer loop
      vertex -1.6 43 10.7
      vertex -2.6 43 5.7
      vertex -1.6 43 5.7
    endloop
  endfacet
  facet normal 0 1 -0
    outer loop
      vertex -1.6 -43 5.7
      vertex -2.6 -43 10.7
      vertex -1.6 -43 10.7
    endloop
  endfacet
  facet normal 0 1 0
    outer loop
      vertex -2.6 -43 10.7
      vertex -1.6 -43 5.7
      vertex -2.6 -43 5.7
    endloop
  endfacet
  facet normal -1 0 0
    outer loop
      vertex 0.599999 -32.5 -2.8
      vertex 0.599999 -27.5 5.7
      vertex 0.599999 -27.5 -2.8
    endloop
  endfacet
  facet normal -1 -0 0
    outer loop
      vertex 0.599999 -27.5 5.7
      vertex 0.599999 -32.5 -2.8
      vertex 0.599999 -32.5 5.7
    endloop
  endfacet
  facet normal 0 1 -0
    outer loop
      vertex 2.6 -27.5 -2.8
      vertex 0.599999 -27.5 5.7
      vertex 2.6 -27.5 5.7
    endloop
  endfacet
  facet normal 0 1 0
    outer loop
      vertex 0.599999 -27.5 5.7
      vertex 2.6 -27.5 -2.8
      vertex 0.599999 -27.5 -2.8
    endloop
  endfacet
  facet normal 0 0 -1
    outer loop
      vertex 0.599999 -32.5 -2.8
      vertex 2.6 -27.5 -2.8
      vertex 2.6 -32.5 -2.8
    endloop
  endfacet
  facet normal -0 0 -1
    outer loop
      vertex 2.6 -27.5 -2.8
      vertex 0.599999 -32.5 -2.8
      vertex 0.599999 -27.5 -2.8
    endloop
  endfacet
  facet normal 0 -1 0
    outer loop
      vertex 0.599999 -32.5 -2.8
      vertex 2.6 -32.5 5.7
      vertex 0.599999 -32.5 5.7
    endloop
  endfacet
  facet normal 0 -1 -0
    outer loop
      vertex 2.6 -32.5 5.7
      vertex 0.599999 -32.5 -2.8
      vertex 2.6 -32.5 -2.8
    endloop
  endfacet
  facet normal -1 0 0
    outer loop
      vertex 0.599999 -22.5 -2.8
      vertex 0.599999 -17.5 5.7
      vertex 0.599999 -17.5 -2.8
    endloop
  endfacet
  facet normal -1 -0 0
    outer loop
      vertex 0.599999 -17.5 5.7
      vertex 0.599999 -22.5 -2.8
      vertex 0.599999 -22.5 5.7
    endloop
  endfacet
  facet normal 0 0 -1
    outer loop
      vertex 0.599999 -22.5 -2.8
      vertex 2.6 -17.5 -2.8
      vertex 2.6 -22.5 -2.8
    endloop
  endfacet
  facet normal -0 0 -1
    outer loop
      vertex 2.6 -17.5 -2.8
      vertex 0.599999 -22.5 -2.8
      vertex 0.599999 -17.5 -2.8
    endloop
  endfacet
  facet normal 0 -1 0
    outer loop
      vertex 0.599999 -22.5 -2.8
      vertex 2.6 -22.5 5.7
      vertex 0.599999 -22.5 5.7
    endloop
  endfacet
  facet normal 0 -1 -0
    outer loop
      vertex 2.6 -22.5 5.7
      vertex 0.599999 -22.5 -2.8
      vertex 2.6 -22.5 -2.8
    endloop
  endfacet
  facet normal 0 1 -0
    outer loop
      vertex 2.6 -17.5 -2.8
      vertex 0.599999 -17.5 5.7
      vertex 2.6 -17.5 5.7
    endloop
  endfacet
  facet normal 0 1 0
    outer loop
      vertex 0.599999 -17.5 5.7
      vertex 2.6 -17.5 -2.8
      vertex 0.599999 -17.5 -2.8
    endloop
  endfacet
  facet normal -1 0 0
    outer loop
      vertex 0.599999 -12.5 -2.8
      vertex 0.599999 -7.5 5.7
      vertex 0.599999 -7.5 -2.8
    endloop
  endfacet
  facet normal -1 -0 0
    outer loop
      vertex 0.599999 -7.5 5.7
      vertex 0.599999 -12.5 -2.8
      vertex 0.599999 -12.5 5.7
    endloop
  endfacet
  facet normal 0 1 -0
    outer loop
      vertex 2.6 -7.5 -2.8
      vertex 0.599999 -7.5 5.7
      vertex 2.6 -7.5 5.7
    endloop
  endfacet
  facet normal 0 1 0
    outer loop
      vertex 0.599999 -7.5 5.7
      vertex 2.6 -7.5 -2.8
      vertex 0.599999 -7.5 -2.8
    endloop
  endfacet
  facet normal 0 0 -1
    outer loop
      vertex 0.599999 -12.5 -2.8
      vertex 2.6 -7.5 -2.8
      vertex 2.6 -12.5 -2.8
    endloop
  endfacet
  facet normal -0 0 -1
    outer loop
      vertex 2.6 -7.5 -2.8
      vertex 0.599999 -12.5 -2.8
      vertex 0.599999 -7.5 -2.8
    endloop
  endfacet
  facet normal 0 -1 0
    outer loop
      vertex 0.599999 -12.5 -2.8
      vertex 2.6 -12.5 5.7
      vertex 0.599999 -12.5 5.7
    endloop
  endfacet
  facet normal 0 -1 -0
    outer loop
      vertex 2.6 -12.5 5.7
      vertex 0.599999 -12.5 -2.8
      vertex 2.6 -12.5 -2.8
    endloop
  endfacet
  facet normal -1 0 0
    outer loop
      vertex 0.599999 -2.5 -2.8
      vertex 0.599999 2.5 5.7
      vertex 0.599999 2.5 -2.8
    endloop
  endfacet
  facet normal -1 -0 0
    outer loop
      vertex 0.599999 2.5 5.7
      vertex 0.599999 -2.5 -2.8
      vertex 0.599999 -2.5 5.7
    endloop
  endfacet
  facet normal 0 0 -1
    outer loop
      vertex 0.599999 -2.5 -2.8
      vertex 2.6 2.5 -2.8
      vertex 2.6 -2.5 -2.8
    endloop
  endfacet
  facet normal -0 0 -1
    outer loop
      vertex 2.6 2.5 -2.8
      vertex 0.599999 -2.5 -2.8
      vertex 0.599999 2.5 -2.8
    endloop
  endfacet
  facet normal 0 -1 0
    outer loop
      vertex 0.599999 -2.5 -2.8
      vertex 2.6 -2.5 5.7
      vertex 0.599999 -2.5 5.7
    endloop
  endfacet
  facet normal 0 -1 -0
    outer loop
      vertex 2.6 -2.5 5.7
      vertex 0.599999 -2.5 -2.8
      vertex 2.6 -2.5 -2.8
    endloop
  endfacet
  facet normal 0 1 -0
    outer loop
      vertex 2.6 2.5 -2.8
      vertex 0.599999 2.5 5.7
      vertex 2.6 2.5 5.7
    endloop
  endfacet
  facet normal 0 1 0
    outer loop
      vertex 0.599999 2.5 5.7
      vertex 2.6 2.5 -2.8
      vertex 0.599999 2.5 -2.8
    endloop
  endfacet
  facet normal -1 0 0
    outer loop
      vertex 0.599999 7.5 -2.8
      vertex 0.599999 12.5 5.7
      vertex 0.599999 12.5 -2.8
    endloop
  endfacet
  facet normal -1 -0 0
    outer loop
      vertex 0.599999 12.5 5.7
      vertex 0.599999 7.5 -2.8
      vertex 0.599999 7.5 5.7
    endloop
  endfacet
  facet normal 0 0 -1
    outer loop
      vertex 0.599999 7.5 -2.8
      vertex 2.6 12.5 -2.8
      vertex 2.6 7.5 -2.8
    endloop
  endfacet
  facet normal -0 0 -1
    outer loop
      vertex 2.6 12.5 -2.8
      vertex 0.599999 7.5 -2.8
      vertex 0.599999 12.5 -2.8
    endloop
  endfacet
  facet normal 0 -1 0
    outer loop
      vertex 0.599999 7.5 -2.8
      vertex 2.6 7.5 5.7
      vertex 0.599999 7.5 5.7
    endloop
  endfacet
  facet normal 0 -1 -0
    outer loop
      vertex 2.6 7.5 5.7
      vertex 0.599999 7.5 -2.8
      vertex 2.6 7.5 -2.8
    endloop
  endfacet
  facet normal 0 1 -0
    outer loop
      vertex 2.6 12.5 -2.8
      vertex 0.599999 12.5 5.7
      vertex 2.6 12.5 5.7
    endloop
  endfacet
  facet normal 0 1 0
    outer loop
      vertex 0.599999 12.5 5.7
      vertex 2.6 12.5 -2.8
      vertex 0.599999 12.5 -2.8
    endloop
  endfacet
  facet normal -1 0 0
    outer loop
      vertex 0.599999 17.5 -2.8
      vertex 0.599999 22.5 5.7
      vertex 0.599999 22.5 -2.8
    endloop
  endfacet
  facet normal -1 -0 0
    outer loop
      vertex 0.599999 22.5 5.7
      vertex 0.599999 17.5 -2.8
      vertex 0.599999 17.5 5.7
    endloop
  endfacet
  facet normal 0 1 -0
    outer loop
      vertex 2.6 22.5 -2.8
      vertex 0.599999 22.5 5.7
      vertex 2.6 22.5 5.7
    endloop
  endfacet
  facet normal 0 1 0
    outer loop
      vertex 0.599999 22.5 5.7
      vertex 2.6 22.5 -2.8
      vertex 0.599999 22.5 -2.8
    endloop
  endfacet
  facet normal 0 0 -1
    outer loop
      vertex 0.599999 17.5 -2.8
      vertex 2.6 22.5 -2.8
      vertex 2.6 17.5 -2.8
    endloop
  endfacet
  facet normal -0 0 -1
    outer loop
      vertex 2.6 22.5 -2.8
      vertex 0.599999 17.5 -2.8
      vertex 0.599999 22.5 -2.8
    endloop
  endfacet
  facet normal 0 -1 0
    outer loop
      vertex 0.599999 17.5 -2.8
      vertex 2.6 17.5 5.7
      vertex 0.599999 17.5 5.7
    endloop
  endfacet
  facet normal 0 -1 -0
    outer loop
      vertex 2.6 17.5 5.7
      vertex 0.599999 17.5 -2.8
      vertex 2.6 17.5 -2.8
    endloop
  endfacet
  facet normal -1 0 0
    outer loop
      vertex 0.599999 27.5 -2.8
      vertex 0.599999 32.5 5.7
      vertex 0.599999 32.5 -2.8
    endloop
  endfacet
  facet normal -1 -0 0
    outer loop
      vertex 0.599999 32.5 5.7
      vertex 0.599999 27.5 -2.8
      vertex 0.599999 27.5 5.7
    endloop
  endfacet
  facet normal 0 0 -1
    outer loop
      vertex 0.599999 27.5 -2.8
      vertex 2.6 32.5 -2.8
      vertex 2.6 27.5 -2.8
    endloop
  endfacet
  facet normal -0 0 -1
    outer loop
      vertex 2.6 32.5 -2.8
      vertex 0.599999 27.5 -2.8
      vertex 0.599999 32.5 -2.8
    endloop
  endfacet
  facet normal 0 -1 0
    outer loop
      vertex 0.599999 27.5 -2.8
      vertex 2.6 27.5 5.7
      vertex 0.599999 27.5 5.7
    endloop
  endfacet
  facet normal 0 -1 -0
    outer loop
      vertex 2.6 27.5 5.7
      vertex 0.599999 27.5 -2.8
      vertex 2.6 27.5 -2.8
    endloop
  endfacet
  facet normal 0 1 -0
    outer loop
      vertex 2.6 32.5 -2.8
      vertex 0.599999 32.5 5.7
      vertex 2.6 32.5 5.7
    endloop
  endfacet
  facet normal 0 1 0
    outer loop
      vertex 0.599999 32.5 5.7
      vertex 2.6 32.5 -2.8
      vertex 0.599999 32.5 -2.8
    endloop
  endfacet
endsolid OpenSCAD_Model
