solid OpenSCAD_Model
  facet normal -1 0 0
    outer loop
      vertex 52.65 28.5 18
      vertex 52.65 25.5 21
      vertex 52.65 28.5 28
    endloop
  endfacet
  facet normal -1 0 0
    outer loop
      vertex 52.65 14.5 18
      vertex 52.65 25.5 21
      vertex 52.65 28.5 18
    endloop
  endfacet
  facet normal -1 -0 0
    outer loop
      vertex 52.65 25.5 21
      vertex 52.65 14.5 18
      vertex 52.65 14.5 21
    endloop
  endfacet
  facet normal -1 0 0
    outer loop
      vertex 52.65 28.5 28
      vertex 52.65 50.5 31
      vertex 52.65 50.5 28
    endloop
  endfacet
  facet normal -1 0 0
    outer loop
      vertex 52.65 28.5 28
      vertex 52.65 25.5 31
      vertex 52.65 50.5 31
    endloop
  endfacet
  facet normal -1 0 0
    outer loop
      vertex 52.65 25.5 31
      vertex 52.65 28.5 28
      vertex 52.65 25.5 21
    endloop
  endfacet
  facet normal 0 0 1
    outer loop
      vertex 65.9 53.5 31
      vertex 62.9 25.5 31
      vertex 65.9 14.5 31
    endloop
  endfacet
  facet normal 0 0 1
    outer loop
      vertex 65.9 53.5 31
      vertex 52.65 50.5 31
      vertex 62.9 25.5 31
    endloop
  endfacet
  facet normal -0 0 1
    outer loop
      vertex 49.65 53.5 31
      vertex 52.65 50.5 31
      vertex 65.9 53.5 31
    endloop
  endfacet
  facet normal 0 0 1
    outer loop
      vertex 52.65 50.5 31
      vertex 49.65 53.5 31
      vertex 49.65 50.5 31
    endloop
  endfacet
  facet normal 0 0 1
    outer loop
      vertex 65.9 14.5 31
      vertex 62.9 25.5 31
      vertex 62.9 14.5 31
    endloop
  endfacet
  facet normal 0 0 1
    outer loop
      vertex 62.9 25.5 31
      vertex 52.65 50.5 31
      vertex 52.65 25.5 31
    endloop
  endfacet
  facet normal 0 1 -0
    outer loop
      vertex 62.9 28.5 18
      vertex 52.65 28.5 28
      vertex 62.9 28.5 28
    endloop
  endfacet
  facet normal 0 1 0
    outer loop
      vertex 52.65 28.5 28
      vertex 62.9 28.5 18
      vertex 52.65 28.5 18
    endloop
  endfacet
  facet normal -0 0 1
    outer loop
      vertex 59.1342 18.7507 21
      vertex 62.9 14.5 21
      vertex 62.9 25.5 21
    endloop
  endfacet
  facet normal 0 0 1
    outer loop
      vertex 62.9 14.5 21
      vertex 59.1342 18.7507 21
      vertex 59.15 18.5 21
    endloop
  endfacet
  facet normal 0 0 1
    outer loop
      vertex 62.9 25.5 21
      vertex 59.0872 18.9974 21
      vertex 59.1342 18.7507 21
    endloop
  endfacet
  facet normal 0 0 1
    outer loop
      vertex 62.9 25.5 21
      vertex 59.0096 19.2362 21
      vertex 59.0872 18.9974 21
    endloop
  endfacet
  facet normal 0 0 1
    outer loop
      vertex 62.9 25.5 21
      vertex 58.9026 19.4635 21
      vertex 59.0096 19.2362 21
    endloop
  endfacet
  facet normal 0 0 1
    outer loop
      vertex 62.9 25.5 21
      vertex 58.768 19.6756 21
      vertex 58.9026 19.4635 21
    endloop
  endfacet
  facet normal 0 0 1
    outer loop
      vertex 62.9 25.5 21
      vertex 58.6079 19.8691 21
      vertex 58.768 19.6756 21
    endloop
  endfacet
  facet normal 0 0 1
    outer loop
      vertex 62.9 25.5 21
      vertex 58.4248 20.041 21
      vertex 58.6079 19.8691 21
    endloop
  endfacet
  facet normal 0 0 1
    outer loop
      vertex 62.9 25.5 21
      vertex 58.2217 20.1887 21
      vertex 58.4248 20.041 21
    endloop
  endfacet
  facet normal 0 0 1
    outer loop
      vertex 62.9 25.5 21
      vertex 58.0016 20.3097 21
      vertex 58.2217 20.1887 21
    endloop
  endfacet
  facet normal 0 0 1
    outer loop
      vertex 62.9 25.5 21
      vertex 57.768 20.4021 21
      vertex 58.0016 20.3097 21
    endloop
  endfacet
  facet normal 0 0 1
    outer loop
      vertex 62.9 25.5 21
      vertex 57.5248 20.4646 21
      vertex 57.768 20.4021 21
    endloop
  endfacet
  facet normal 0 0 1
    outer loop
      vertex 62.9 25.5 21
      vertex 57.2756 20.4961 21
      vertex 57.5248 20.4646 21
    endloop
  endfacet
  facet normal -0 0 1
    outer loop
      vertex 52.65 25.5 21
      vertex 57.2756 20.4961 21
      vertex 62.9 25.5 21
    endloop
  endfacet
  facet normal 0 0 1
    outer loop
      vertex 57.2756 20.4961 21
      vertex 52.65 25.5 21
      vertex 57.0244 20.4961 21
    endloop
  endfacet
  facet normal 0 0 1
    outer loop
      vertex 57.0244 20.4961 21
      vertex 52.65 25.5 21
      vertex 56.7752 20.4646 21
    endloop
  endfacet
  facet normal 0 0 1
    outer loop
      vertex 56.7752 20.4646 21
      vertex 52.65 25.5 21
      vertex 56.532 20.4021 21
    endloop
  endfacet
  facet normal 0 0 1
    outer loop
      vertex 56.532 20.4021 21
      vertex 52.65 25.5 21
      vertex 56.2984 20.3097 21
    endloop
  endfacet
  facet normal 0 0 1
    outer loop
      vertex 56.2984 20.3097 21
      vertex 52.65 25.5 21
      vertex 56.0783 20.1887 21
    endloop
  endfacet
  facet normal 0 0 1
    outer loop
      vertex 52.65 14.5 21
      vertex 55.1658 18.7507 21
      vertex 52.65 25.5 21
    endloop
  endfacet
  facet normal 0 0 1
    outer loop
      vertex 55.2128 18.9974 21
      vertex 52.65 25.5 21
      vertex 55.1658 18.7507 21
    endloop
  endfacet
  facet normal 0 0 1
    outer loop
      vertex 55.2904 19.2362 21
      vertex 52.65 25.5 21
      vertex 55.2128 18.9974 21
    endloop
  endfacet
  facet normal 0 0 1
    outer loop
      vertex 55.3974 19.4635 21
      vertex 52.65 25.5 21
      vertex 55.2904 19.2362 21
    endloop
  endfacet
  facet normal 0 0 1
    outer loop
      vertex 55.532 19.6756 21
      vertex 52.65 25.5 21
      vertex 55.3974 19.4635 21
    endloop
  endfacet
  facet normal 0 0 1
    outer loop
      vertex 55.6921 19.8691 21
      vertex 52.65 25.5 21
      vertex 55.532 19.6756 21
    endloop
  endfacet
  facet normal 0 0 1
    outer loop
      vertex 55.8752 20.041 21
      vertex 52.65 25.5 21
      vertex 55.6921 19.8691 21
    endloop
  endfacet
  facet normal 0 0 1
    outer loop
      vertex 56.0783 20.1887 21
      vertex 52.65 25.5 21
      vertex 55.8752 20.041 21
    endloop
  endfacet
  facet normal -0 0 1
    outer loop
      vertex 59.1342 18.2493 21
      vertex 62.9 14.5 21
      vertex 59.15 18.5 21
    endloop
  endfacet
  facet normal -0 0 1
    outer loop
      vertex 59.0872 18.0026 21
      vertex 62.9 14.5 21
      vertex 59.1342 18.2493 21
    endloop
  endfacet
  facet normal -0 0 1
    outer loop
      vertex 59.0096 17.7638 21
      vertex 62.9 14.5 21
      vertex 59.0872 18.0026 21
    endloop
  endfacet
  facet normal -0 0 1
    outer loop
      vertex 58.9026 17.5365 21
      vertex 62.9 14.5 21
      vertex 59.0096 17.7638 21
    endloop
  endfacet
  facet normal -0 0 1
    outer loop
      vertex 58.768 17.3244 21
      vertex 62.9 14.5 21
      vertex 58.9026 17.5365 21
    endloop
  endfacet
  facet normal -0 0 1
    outer loop
      vertex 58.6079 17.1309 21
      vertex 62.9 14.5 21
      vertex 58.768 17.3244 21
    endloop
  endfacet
  facet normal -0 0 1
    outer loop
      vertex 58.4248 16.959 21
      vertex 62.9 14.5 21
      vertex 58.6079 17.1309 21
    endloop
  endfacet
  facet normal -0 0 1
    outer loop
      vertex 58.2217 16.8113 21
      vertex 62.9 14.5 21
      vertex 58.4248 16.959 21
    endloop
  endfacet
  facet normal -0 0 1
    outer loop
      vertex 58.0016 16.6903 21
      vertex 62.9 14.5 21
      vertex 58.2217 16.8113 21
    endloop
  endfacet
  facet normal -0 0 1
    outer loop
      vertex 57.768 16.5979 21
      vertex 62.9 14.5 21
      vertex 58.0016 16.6903 21
    endloop
  endfacet
  facet normal -0 0 1
    outer loop
      vertex 57.5248 16.5354 21
      vertex 62.9 14.5 21
      vertex 57.768 16.5979 21
    endloop
  endfacet
  facet normal -0 0 1
    outer loop
      vertex 57.2756 16.5039 21
      vertex 62.9 14.5 21
      vertex 57.5248 16.5354 21
    endloop
  endfacet
  facet normal 0 0 1
    outer loop
      vertex 52.65 14.5 21
      vertex 57.2756 16.5039 21
      vertex 57.0244 16.5039 21
    endloop
  endfacet
  facet normal 0 0 1
    outer loop
      vertex 52.65 14.5 21
      vertex 57.0244 16.5039 21
      vertex 56.7752 16.5354 21
    endloop
  endfacet
  facet normal 0 0 1
    outer loop
      vertex 52.65 14.5 21
      vertex 56.7752 16.5354 21
      vertex 56.532 16.5979 21
    endloop
  endfacet
  facet normal 0 0 1
    outer loop
      vertex 55.1658 18.7507 21
      vertex 52.65 14.5 21
      vertex 55.15 18.5 21
    endloop
  endfacet
  facet normal 0 0 1
    outer loop
      vertex 55.15 18.5 21
      vertex 52.65 14.5 21
      vertex 55.1658 18.2493 21
    endloop
  endfacet
  facet normal 0 0 1
    outer loop
      vertex 55.1658 18.2493 21
      vertex 52.65 14.5 21
      vertex 55.2128 18.0026 21
    endloop
  endfacet
  facet normal 0 0 1
    outer loop
      vertex 57.2756 16.5039 21
      vertex 52.65 14.5 21
      vertex 62.9 14.5 21
    endloop
  endfacet
  facet normal 0 0 1
    outer loop
      vertex 56.2984 16.6903 21
      vertex 52.65 14.5 21
      vertex 56.532 16.5979 21
    endloop
  endfacet
  facet normal 0 0 1
    outer loop
      vertex 56.0783 16.8113 21
      vertex 52.65 14.5 21
      vertex 56.2984 16.6903 21
    endloop
  endfacet
  facet normal 0 0 1
    outer loop
      vertex 55.8752 16.959 21
      vertex 52.65 14.5 21
      vertex 56.0783 16.8113 21
    endloop
  endfacet
  facet normal 0 0 1
    outer loop
      vertex 55.6921 17.1309 21
      vertex 52.65 14.5 21
      vertex 55.8752 16.959 21
    endloop
  endfacet
  facet normal 0 0 1
    outer loop
      vertex 55.532 17.3244 21
      vertex 52.65 14.5 21
      vertex 55.6921 17.1309 21
    endloop
  endfacet
  facet normal 0 0 1
    outer loop
      vertex 55.3974 17.5365 21
      vertex 52.65 14.5 21
      vertex 55.532 17.3244 21
    endloop
  endfacet
  facet normal 0 0 1
    outer loop
      vertex 55.2904 17.7638 21
      vertex 52.65 14.5 21
      vertex 55.3974 17.5365 21
    endloop
  endfacet
  facet normal 0 0 1
    outer loop
      vertex 55.2128 18.0026 21
      vertex 52.65 14.5 21
      vertex 55.2904 17.7638 21
    endloop
  endfacet
  facet normal 0 -1 0
    outer loop
      vertex 52.65 25.5 21
      vertex 62.9 25.5 31
      vertex 52.65 25.5 31
    endloop
  endfacet
  facet normal 0 -1 -0
    outer loop
      vertex 62.9 25.5 31
      vertex 52.65 25.5 21
      vertex 62.9 25.5 21
    endloop
  endfacet
  facet normal 0 0 -1
    outer loop
      vertex 59.1342 18.7507 18
      vertex 62.9 14.5 18
      vertex 59.15 18.5 18
    endloop
  endfacet
  facet normal 0 0 -1
    outer loop
      vertex 62.9 14.5 18
      vertex 59.1342 18.2493 18
      vertex 59.15 18.5 18
    endloop
  endfacet
  facet normal 0 0 -1
    outer loop
      vertex 62.9 14.5 18
      vertex 59.0872 18.0026 18
      vertex 59.1342 18.2493 18
    endloop
  endfacet
  facet normal 0 0 -1
    outer loop
      vertex 62.9 14.5 18
      vertex 59.0096 17.7638 18
      vertex 59.0872 18.0026 18
    endloop
  endfacet
  facet normal 0 0 -1
    outer loop
      vertex 62.9 14.5 18
      vertex 58.9026 17.5365 18
      vertex 59.0096 17.7638 18
    endloop
  endfacet
  facet normal 0 0 -1
    outer loop
      vertex 62.9 14.5 18
      vertex 58.768 17.3244 18
      vertex 58.9026 17.5365 18
    endloop
  endfacet
  facet normal 0 0 -1
    outer loop
      vertex 62.9 14.5 18
      vertex 58.6079 17.1309 18
      vertex 58.768 17.3244 18
    endloop
  endfacet
  facet normal 0 0 -1
    outer loop
      vertex 62.9 14.5 18
      vertex 58.4248 16.959 18
      vertex 58.6079 17.1309 18
    endloop
  endfacet
  facet normal 0 0 -1
    outer loop
      vertex 62.9 14.5 18
      vertex 58.2217 16.8113 18
      vertex 58.4248 16.959 18
    endloop
  endfacet
  facet normal 0 0 -1
    outer loop
      vertex 62.9 14.5 18
      vertex 58.0016 16.6903 18
      vertex 58.2217 16.8113 18
    endloop
  endfacet
  facet normal 0 0 -1
    outer loop
      vertex 62.9 14.5 18
      vertex 57.768 16.5979 18
      vertex 58.0016 16.6903 18
    endloop
  endfacet
  facet normal 0 0 -1
    outer loop
      vertex 62.9 14.5 18
      vertex 57.5248 16.5354 18
      vertex 57.768 16.5979 18
    endloop
  endfacet
  facet normal 0 0 -1
    outer loop
      vertex 62.9 14.5 18
      vertex 57.2756 16.5039 18
      vertex 57.5248 16.5354 18
    endloop
  endfacet
  facet normal 0 0 -1
    outer loop
      vertex 52.65 14.5 18
      vertex 57.2756 16.5039 18
      vertex 62.9 14.5 18
    endloop
  endfacet
  facet normal -0 0 -1
    outer loop
      vertex 57.2756 16.5039 18
      vertex 52.65 14.5 18
      vertex 57.0244 16.5039 18
    endloop
  endfacet
  facet normal -0 0 -1
    outer loop
      vertex 57.0244 16.5039 18
      vertex 52.65 14.5 18
      vertex 56.7752 16.5354 18
    endloop
  endfacet
  facet normal -0 0 -1
    outer loop
      vertex 55.1658 18.2493 18
      vertex 52.65 14.5 18
      vertex 55.15 18.5 18
    endloop
  endfacet
  facet normal -0 0 -1
    outer loop
      vertex 55.2128 18.0026 18
      vertex 52.65 14.5 18
      vertex 55.1658 18.2493 18
    endloop
  endfacet
  facet normal -0 0 -1
    outer loop
      vertex 55.2904 17.7638 18
      vertex 52.65 14.5 18
      vertex 55.2128 18.0026 18
    endloop
  endfacet
  facet normal -0 0 -1
    outer loop
      vertex 55.3974 17.5365 18
      vertex 52.65 14.5 18
      vertex 55.2904 17.7638 18
    endloop
  endfacet
  facet normal -0 0 -1
    outer loop
      vertex 55.532 17.3244 18
      vertex 52.65 14.5 18
      vertex 55.3974 17.5365 18
    endloop
  endfacet
  facet normal -0 0 -1
    outer loop
      vertex 55.6921 17.1309 18
      vertex 52.65 14.5 18
      vertex 55.532 17.3244 18
    endloop
  endfacet
  facet normal -0 0 -1
    outer loop
      vertex 55.8752 16.959 18
      vertex 52.65 14.5 18
      vertex 55.6921 17.1309 18
    endloop
  endfacet
  facet normal -0 0 -1
    outer loop
      vertex 56.0783 16.8113 18
      vertex 52.65 14.5 18
      vertex 55.8752 16.959 18
    endloop
  endfacet
  facet normal -0 0 -1
    outer loop
      vertex 56.2984 16.6903 18
      vertex 52.65 14.5 18
      vertex 56.0783 16.8113 18
    endloop
  endfacet
  facet normal -0 0 -1
    outer loop
      vertex 56.532 16.5979 18
      vertex 52.65 14.5 18
      vertex 56.2984 16.6903 18
    endloop
  endfacet
  facet normal -0 0 -1
    outer loop
      vertex 56.7752 16.5354 18
      vertex 52.65 14.5 18
      vertex 56.532 16.5979 18
    endloop
  endfacet
  facet normal 0 0 -1
    outer loop
      vertex 59.0872 18.9974 18
      vertex 62.9 14.5 18
      vertex 59.1342 18.7507 18
    endloop
  endfacet
  facet normal 0 0 -1
    outer loop
      vertex 62.9 14.5 18
      vertex 59.0872 18.9974 18
      vertex 62.9 28.5 18
    endloop
  endfacet
  facet normal 0 0 -1
    outer loop
      vertex 59.0096 19.2362 18
      vertex 62.9 28.5 18
      vertex 59.0872 18.9974 18
    endloop
  endfacet
  facet normal 0 0 -1
    outer loop
      vertex 58.9026 19.4635 18
      vertex 62.9 28.5 18
      vertex 59.0096 19.2362 18
    endloop
  endfacet
  facet normal 0 0 -1
    outer loop
      vertex 58.768 19.6756 18
      vertex 62.9 28.5 18
      vertex 58.9026 19.4635 18
    endloop
  endfacet
  facet normal 0 0 -1
    outer loop
      vertex 58.6079 19.8691 18
      vertex 62.9 28.5 18
      vertex 58.768 19.6756 18
    endloop
  endfacet
  facet normal 0 0 -1
    outer loop
      vertex 58.4248 20.041 18
      vertex 62.9 28.5 18
      vertex 58.6079 19.8691 18
    endloop
  endfacet
  facet normal 0 0 -1
    outer loop
      vertex 58.2217 20.1887 18
      vertex 62.9 28.5 18
      vertex 58.4248 20.041 18
    endloop
  endfacet
  facet normal 0 0 -1
    outer loop
      vertex 58.0016 20.3097 18
      vertex 62.9 28.5 18
      vertex 58.2217 20.1887 18
    endloop
  endfacet
  facet normal 0 0 -1
    outer loop
      vertex 57.768 20.4021 18
      vertex 62.9 28.5 18
      vertex 58.0016 20.3097 18
    endloop
  endfacet
  facet normal 0 0 -1
    outer loop
      vertex 57.5248 20.4646 18
      vertex 62.9 28.5 18
      vertex 57.768 20.4021 18
    endloop
  endfacet
  facet normal 0 0 -1
    outer loop
      vertex 57.2756 20.4961 18
      vertex 62.9 28.5 18
      vertex 57.5248 20.4646 18
    endloop
  endfacet
  facet normal 0 0 -1
    outer loop
      vertex 52.65 28.5 18
      vertex 57.2756 20.4961 18
      vertex 57.0244 20.4961 18
    endloop
  endfacet
  facet normal 0 0 -1
    outer loop
      vertex 52.65 28.5 18
      vertex 57.0244 20.4961 18
      vertex 56.7752 20.4646 18
    endloop
  endfacet
  facet normal 0 0 -1
    outer loop
      vertex 52.65 28.5 18
      vertex 56.7752 20.4646 18
      vertex 56.532 20.4021 18
    endloop
  endfacet
  facet normal 0 0 -1
    outer loop
      vertex 52.65 28.5 18
      vertex 56.532 20.4021 18
      vertex 56.2984 20.3097 18
    endloop
  endfacet
  facet normal 0 0 -1
    outer loop
      vertex 52.65 28.5 18
      vertex 56.2984 20.3097 18
      vertex 56.0783 20.1887 18
    endloop
  endfacet
  facet normal 0 0 -1
    outer loop
      vertex 52.65 28.5 18
      vertex 56.0783 20.1887 18
      vertex 55.8752 20.041 18
    endloop
  endfacet
  facet normal 0 0 -1
    outer loop
      vertex 52.65 28.5 18
      vertex 55.8752 20.041 18
      vertex 55.6921 19.8691 18
    endloop
  endfacet
  facet normal 0 0 -1
    outer loop
      vertex 52.65 14.5 18
      vertex 55.1658 18.7507 18
      vertex 55.15 18.5 18
    endloop
  endfacet
  facet normal 0 0 -1
    outer loop
      vertex 52.65 14.5 18
      vertex 55.2128 18.9974 18
      vertex 55.1658 18.7507 18
    endloop
  endfacet
  facet normal 0 0 -1
    outer loop
      vertex 52.65 28.5 18
      vertex 55.2128 18.9974 18
      vertex 52.65 14.5 18
    endloop
  endfacet
  facet normal 0 0 -1
    outer loop
      vertex 55.2128 18.9974 18
      vertex 52.65 28.5 18
      vertex 55.2904 19.2362 18
    endloop
  endfacet
  facet normal 0 0 -1
    outer loop
      vertex 57.2756 20.4961 18
      vertex 52.65 28.5 18
      vertex 62.9 28.5 18
    endloop
  endfacet
  facet normal 0 0 -1
    outer loop
      vertex 55.532 19.6756 18
      vertex 52.65 28.5 18
      vertex 55.6921 19.8691 18
    endloop
  endfacet
  facet normal 0 0 -1
    outer loop
      vertex 55.3974 19.4635 18
      vertex 52.65 28.5 18
      vertex 55.532 19.6756 18
    endloop
  endfacet
  facet normal 0 0 -1
    outer loop
      vertex 55.2904 19.2362 18
      vertex 52.65 28.5 18
      vertex 55.3974 19.4635 18
    endloop
  endfacet
  facet normal 0 -1 0
    outer loop
      vertex 52.65 14.5 21
      vertex 52.65 14.5 18
      vertex 62.9 14.5 21
    endloop
  endfacet
  facet normal 0 -1 0
    outer loop
      vertex 62.9 14.5 21
      vertex 65.9 14.5 31
      vertex 62.9 14.5 31
    endloop
  endfacet
  facet normal 0 -1 0
    outer loop
      vertex 62.9 14.5 18
      vertex 62.9 14.5 21
      vertex 52.65 14.5 18
    endloop
  endfacet
  facet normal 0 -1 0
    outer loop
      vertex 65.9 14.5 15
      vertex 62.9 14.5 21
      vertex 62.9 14.5 18
    endloop
  endfacet
  facet normal 0 -1 0
    outer loop
      vertex 65.9 14.5 15
      vertex 62.9 14.5 18
      vertex 62.9 14.5 15
    endloop
  endfacet
  facet normal 0 -1 0
    outer loop
      vertex 62.9 14.5 21
      vertex 65.9 14.5 15
      vertex 65.9 14.5 31
    endloop
  endfacet
  facet normal -1 0 0
    outer loop
      vertex 62.9 50.5 15
      vertex 62.9 28.5 18
      vertex 62.9 50.5 28
    endloop
  endfacet
  facet normal -1 0 0
    outer loop
      vertex 62.9 14.5 15
      vertex 62.9 28.5 18
      vertex 62.9 50.5 15
    endloop
  endfacet
  facet normal -1 -0 0
    outer loop
      vertex 62.9 28.5 18
      vertex 62.9 14.5 15
      vertex 62.9 14.5 18
    endloop
  endfacet
  facet normal -1 -0 0
    outer loop
      vertex 62.9 50.5 28
      vertex 62.9 28.5 18
      vertex 62.9 28.5 28
    endloop
  endfacet
  facet normal -1 0 0
    outer loop
      vertex 62.9 14.5 21
      vertex 62.9 25.5 31
      vertex 62.9 25.5 21
    endloop
  endfacet
  facet normal -1 -0 0
    outer loop
      vertex 62.9 25.5 31
      vertex 62.9 14.5 21
      vertex 62.9 14.5 31
    endloop
  endfacet
  facet normal 1 -0 0
    outer loop
      vertex 65.9 14.5 31
      vertex 65.9 53.5 15
      vertex 65.9 53.5 31
    endloop
  endfacet
  facet normal 1 0 0
    outer loop
      vertex 65.9 53.5 15
      vertex 65.9 14.5 31
      vertex 65.9 14.5 15
    endloop
  endfacet
  facet normal 0 0 -1
    outer loop
      vertex 62.9 50.5 15
      vertex 65.9 14.5 15
      vertex 62.9 14.5 15
    endloop
  endfacet
  facet normal 0 0 -1
    outer loop
      vertex 65.9 14.5 15
      vertex 62.9 50.5 15
      vertex 65.9 53.5 15
    endloop
  endfacet
  facet normal 0 0 -1
    outer loop
      vertex 49.65 53.5 15
      vertex 62.9 50.5 15
      vertex 49.65 50.5 15
    endloop
  endfacet
  facet normal 0 0 -1
    outer loop
      vertex 62.9 50.5 15
      vertex 49.65 53.5 15
      vertex 65.9 53.5 15
    endloop
  endfacet
  facet normal 0 1 0
    outer loop
      vertex 65.9 53.5 31
      vertex 55.9 53.5 26.75
      vertex 49.65 53.5 31
    endloop
  endfacet
  facet normal 0 1 0
    outer loop
      vertex 65.9 53.5 31
      vertex 55.9 53.5 24.25
      vertex 55.9 53.5 26.75
    endloop
  endfacet
  facet normal 0 1 -0
    outer loop
      vertex 65.9 53.5 15
      vertex 55.9 53.5 24.25
      vertex 65.9 53.5 31
    endloop
  endfacet
  facet normal 0 1 0
    outer loop
      vertex 49.65 53.5 15
      vertex 55.9 53.5 24.25
      vertex 65.9 53.5 15
    endloop
  endfacet
  facet normal 0 1 0
    outer loop
      vertex 55.9 53.5 24.25
      vertex 49.65 53.5 15
      vertex 49.65 53.5 24.25
    endloop
  endfacet
  facet normal 0 1 0
    outer loop
      vertex 49.65 53.5 31
      vertex 55.9 53.5 26.75
      vertex 49.65 53.5 26.75
    endloop
  endfacet
  facet normal -1 0 0
    outer loop
      vertex 49.65 50.5 15
      vertex 49.65 53.5 24.25
      vertex 49.65 53.5 15
    endloop
  endfacet
  facet normal -1 -0 0
    outer loop
      vertex 49.65 53.5 24.25
      vertex 49.65 50.5 15
      vertex 49.65 50.5 24.25
    endloop
  endfacet
  facet normal -1 0 0
    outer loop
      vertex 49.65 50.5 26.75
      vertex 49.65 53.5 31
      vertex 49.65 53.5 26.75
    endloop
  endfacet
  facet normal -1 -0 0
    outer loop
      vertex 49.65 53.5 31
      vertex 49.65 50.5 26.75
      vertex 49.65 50.5 31
    endloop
  endfacet
  facet normal 0 -1 0
    outer loop
      vertex 49.65 50.5 24.25
      vertex 49.65 50.5 15
      vertex 55.9 50.5 24.25
    endloop
  endfacet
  facet normal 0 -1 0
    outer loop
      vertex 49.65 50.5 31
      vertex 52.65 50.5 28
      vertex 52.65 50.5 31
    endloop
  endfacet
  facet normal 0 -1 0
    outer loop
      vertex 49.65 50.5 26.75
      vertex 52.65 50.5 28
      vertex 49.65 50.5 31
    endloop
  endfacet
  facet normal 0 -1 0
    outer loop
      vertex 55.9 50.5 26.75
      vertex 52.65 50.5 28
      vertex 49.65 50.5 26.75
    endloop
  endfacet
  facet normal 0 -1 0
    outer loop
      vertex 52.65 50.5 28
      vertex 55.9 50.5 26.75
      vertex 62.9 50.5 28
    endloop
  endfacet
  facet normal 0 -1 0
    outer loop
      vertex 55.9 50.5 24.25
      vertex 62.9 50.5 28
      vertex 55.9 50.5 26.75
    endloop
  endfacet
  facet normal 0 -1 0
    outer loop
      vertex 62.9 50.5 15
      vertex 55.9 50.5 24.25
      vertex 49.65 50.5 15
    endloop
  endfacet
  facet normal 0 -1 0
    outer loop
      vertex 55.9 50.5 24.25
      vertex 62.9 50.5 15
      vertex 62.9 50.5 28
    endloop
  endfacet
  facet normal 0 0 -1
    outer loop
      vertex 52.65 28.5 28
      vertex 62.9 50.5 28
      vertex 62.9 28.5 28
    endloop
  endfacet
  facet normal -0 0 -1
    outer loop
      vertex 62.9 50.5 28
      vertex 52.65 28.5 28
      vertex 52.65 50.5 28
    endloop
  endfacet
  facet normal -0.998026 -0.0628028 0
    outer loop
      vertex 59.15 18.5 18
      vertex 59.1342 18.7507 21
      vertex 59.1342 18.7507 18
    endloop
  endfacet
  facet normal -0.998026 -0.0628028 0
    outer loop
      vertex 59.1342 18.7507 21
      vertex 59.15 18.5 18
      vertex 59.15 18.5 21
    endloop
  endfacet
  facet normal 0.125334 -0.992115 0
    outer loop
      vertex 56.7752 20.4646 18
      vertex 57.0244 20.4961 21
      vertex 56.7752 20.4646 21
    endloop
  endfacet
  facet normal 0.125334 -0.992115 0
    outer loop
      vertex 57.0244 20.4961 21
      vertex 56.7752 20.4646 18
      vertex 57.0244 20.4961 18
    endloop
  endfacet
  facet normal -0.125334 0.992115 0
    outer loop
      vertex 57.5248 16.5354 18
      vertex 57.2756 16.5039 21
      vertex 57.5248 16.5354 21
    endloop
  endfacet
  facet normal -0.125334 0.992115 0
    outer loop
      vertex 57.2756 16.5039 21
      vertex 57.5248 16.5354 18
      vertex 57.2756 16.5039 18
    endloop
  endfacet
  facet normal -0.684545 -0.72897 0
    outer loop
      vertex 58.4248 20.041 18
      vertex 58.6079 19.8691 21
      vertex 58.4248 20.041 21
    endloop
  endfacet
  facet normal -0.684545 -0.72897 -0
    outer loop
      vertex 58.6079 19.8691 21
      vertex 58.4248 20.041 18
      vertex 58.6079 19.8691 18
    endloop
  endfacet
  facet normal 0.770516 -0.637421 0
    outer loop
      vertex 55.532 19.6756 21
      vertex 55.6921 19.8691 18
      vertex 55.6921 19.8691 21
    endloop
  endfacet
  facet normal 0.770516 -0.637421 0
    outer loop
      vertex 55.6921 19.8691 18
      vertex 55.532 19.6756 21
      vertex 55.532 19.6756 18
    endloop
  endfacet
  facet normal 0.481751 -0.876308 0
    outer loop
      vertex 56.0783 20.1887 18
      vertex 56.2984 20.3097 21
      vertex 56.0783 20.1887 21
    endloop
  endfacet
  facet normal 0.481751 -0.876308 0
    outer loop
      vertex 56.2984 20.3097 21
      vertex 56.0783 20.1887 18
      vertex 56.2984 20.3097 18
    endloop
  endfacet
  facet normal -0.951056 0.309019 0
    outer loop
      vertex 59.0096 17.7638 18
      vertex 59.0872 18.0026 21
      vertex 59.0872 18.0026 18
    endloop
  endfacet
  facet normal -0.951056 0.309019 0
    outer loop
      vertex 59.0872 18.0026 21
      vertex 59.0096 17.7638 18
      vertex 59.0096 17.7638 21
    endloop
  endfacet
  facet normal -0.904831 -0.425771 0
    outer loop
      vertex 59.0096 19.2362 18
      vertex 58.9026 19.4635 21
      vertex 58.9026 19.4635 18
    endloop
  endfacet
  facet normal -0.904831 -0.425771 0
    outer loop
      vertex 58.9026 19.4635 21
      vertex 59.0096 19.2362 18
      vertex 59.0096 19.2362 21
    endloop
  endfacet
  facet normal -0.982288 -0.187378 0
    outer loop
      vertex 59.1342 18.7507 18
      vertex 59.0872 18.9974 21
      vertex 59.0872 18.9974 18
    endloop
  endfacet
  facet normal -0.982288 -0.187378 0
    outer loop
      vertex 59.0872 18.9974 21
      vertex 59.1342 18.7507 18
      vertex 59.1342 18.7507 21
    endloop
  endfacet
  facet normal -0.368131 -0.929774 0
    outer loop
      vertex 57.768 20.4021 18
      vertex 58.0016 20.3097 21
      vertex 57.768 20.4021 21
    endloop
  endfacet
  facet normal -0.368131 -0.929774 -0
    outer loop
      vertex 58.0016 20.3097 21
      vertex 57.768 20.4021 18
      vertex 58.0016 20.3097 18
    endloop
  endfacet
  facet normal -0.587785 -0.809017 0
    outer loop
      vertex 58.2217 20.1887 18
      vertex 58.4248 20.041 21
      vertex 58.2217 20.1887 21
    endloop
  endfacet
  facet normal -0.587785 -0.809017 -0
    outer loop
      vertex 58.4248 20.041 21
      vertex 58.2217 20.1887 18
      vertex 58.4248 20.041 18
    endloop
  endfacet
  facet normal 0.951056 -0.309017 0
    outer loop
      vertex 55.2128 18.9974 21
      vertex 55.2904 19.2362 18
      vertex 55.2904 19.2362 21
    endloop
  endfacet
  facet normal 0.951056 -0.309017 0
    outer loop
      vertex 55.2904 19.2362 18
      vertex 55.2128 18.9974 21
      vertex 55.2128 18.9974 18
    endloop
  endfacet
  facet normal 0.844322 -0.535836 0
    outer loop
      vertex 55.3974 19.4635 21
      vertex 55.532 19.6756 18
      vertex 55.532 19.6756 21
    endloop
  endfacet
  facet normal 0.844322 -0.535836 0
    outer loop
      vertex 55.532 19.6756 18
      vertex 55.3974 19.4635 21
      vertex 55.3974 19.4635 18
    endloop
  endfacet
  facet normal 0.982288 -0.187378 0
    outer loop
      vertex 55.1658 18.7507 21
      vertex 55.2128 18.9974 18
      vertex 55.2128 18.9974 21
    endloop
  endfacet
  facet normal 0.982288 -0.187378 0
    outer loop
      vertex 55.2128 18.9974 18
      vertex 55.1658 18.7507 21
      vertex 55.1658 18.7507 18
    endloop
  endfacet
  facet normal 0.248685 -0.968585 0
    outer loop
      vertex 56.532 20.4021 18
      vertex 56.7752 20.4646 21
      vertex 56.532 20.4021 21
    endloop
  endfacet
  facet normal 0.248685 -0.968585 0
    outer loop
      vertex 56.7752 20.4646 21
      vertex 56.532 20.4021 18
      vertex 56.7752 20.4646 18
    endloop
  endfacet
  facet normal -0.248685 0.968585 0
    outer loop
      vertex 57.768 16.5979 18
      vertex 57.5248 16.5354 21
      vertex 57.768 16.5979 21
    endloop
  endfacet
  facet normal -0.248685 0.968585 0
    outer loop
      vertex 57.5248 16.5354 21
      vertex 57.768 16.5979 18
      vertex 57.5248 16.5354 18
    endloop
  endfacet
  facet normal -0.481751 0.876308 0
    outer loop
      vertex 58.2217 16.8113 18
      vertex 58.0016 16.6903 21
      vertex 58.2217 16.8113 21
    endloop
  endfacet
  facet normal -0.481751 0.876308 0
    outer loop
      vertex 58.0016 16.6903 21
      vertex 58.2217 16.8113 18
      vertex 58.0016 16.6903 18
    endloop
  endfacet
  facet normal -0.951056 -0.309017 0
    outer loop
      vertex 59.0872 18.9974 18
      vertex 59.0096 19.2362 21
      vertex 59.0096 19.2362 18
    endloop
  endfacet
  facet normal -0.951056 -0.309017 0
    outer loop
      vertex 59.0096 19.2362 21
      vertex 59.0872 18.9974 18
      vertex 59.0872 18.9974 21
    endloop
  endfacet
  facet normal -0.770516 -0.637421 0
    outer loop
      vertex 58.768 19.6756 18
      vertex 58.6079 19.8691 21
      vertex 58.6079 19.8691 18
    endloop
  endfacet
  facet normal -0.770516 -0.637421 0
    outer loop
      vertex 58.6079 19.8691 21
      vertex 58.768 19.6756 18
      vertex 58.768 19.6756 21
    endloop
  endfacet
  facet normal -0.844322 -0.535836 0
    outer loop
      vertex 58.9026 19.4635 18
      vertex 58.768 19.6756 21
      vertex 58.768 19.6756 18
    endloop
  endfacet
  facet normal -0.844322 -0.535836 0
    outer loop
      vertex 58.768 19.6756 21
      vertex 58.9026 19.4635 18
      vertex 58.9026 19.4635 21
    endloop
  endfacet
  facet normal -0.125334 -0.992115 0
    outer loop
      vertex 57.2756 20.4961 18
      vertex 57.5248 20.4646 21
      vertex 57.2756 20.4961 21
    endloop
  endfacet
  facet normal -0.125334 -0.992115 -0
    outer loop
      vertex 57.5248 20.4646 21
      vertex 57.2756 20.4961 18
      vertex 57.5248 20.4646 18
    endloop
  endfacet
  facet normal -0.248685 -0.968585 0
    outer loop
      vertex 57.5248 20.4646 18
      vertex 57.768 20.4021 21
      vertex 57.5248 20.4646 21
    endloop
  endfacet
  facet normal -0.248685 -0.968585 -0
    outer loop
      vertex 57.768 20.4021 21
      vertex 57.5248 20.4646 18
      vertex 57.768 20.4021 18
    endloop
  endfacet
  facet normal 0 -1 0
    outer loop
      vertex 57.0244 20.4961 18
      vertex 57.2756 20.4961 21
      vertex 57.0244 20.4961 21
    endloop
  endfacet
  facet normal 0 -1 -0
    outer loop
      vertex 57.2756 20.4961 21
      vertex 57.0244 20.4961 18
      vertex 57.2756 20.4961 18
    endloop
  endfacet
  facet normal -0.481751 -0.876308 0
    outer loop
      vertex 58.0016 20.3097 18
      vertex 58.2217 20.1887 21
      vertex 58.0016 20.3097 21
    endloop
  endfacet
  facet normal -0.481751 -0.876308 -0
    outer loop
      vertex 58.2217 20.1887 21
      vertex 58.0016 20.3097 18
      vertex 58.2217 20.1887 18
    endloop
  endfacet
  facet normal 0.904831 -0.425771 0
    outer loop
      vertex 55.2904 19.2362 21
      vertex 55.3974 19.4635 18
      vertex 55.3974 19.4635 21
    endloop
  endfacet
  facet normal 0.904831 -0.425771 0
    outer loop
      vertex 55.3974 19.4635 18
      vertex 55.2904 19.2362 21
      vertex 55.2904 19.2362 18
    endloop
  endfacet
  facet normal 0.998027 -0.0627877 0
    outer loop
      vertex 55.15 18.5 21
      vertex 55.1658 18.7507 18
      vertex 55.1658 18.7507 21
    endloop
  endfacet
  facet normal 0.998027 -0.0627877 0
    outer loop
      vertex 55.1658 18.7507 18
      vertex 55.15 18.5 21
      vertex 55.15 18.5 18
    endloop
  endfacet
  facet normal 0.587785 -0.809017 0
    outer loop
      vertex 55.8752 20.041 18
      vertex 56.0783 20.1887 21
      vertex 55.8752 20.041 21
    endloop
  endfacet
  facet normal 0.587785 -0.809017 0
    outer loop
      vertex 56.0783 20.1887 21
      vertex 55.8752 20.041 18
      vertex 56.0783 20.1887 18
    endloop
  endfacet
  facet normal 0.684545 -0.72897 0
    outer loop
      vertex 55.6921 19.8691 18
      vertex 55.8752 20.041 21
      vertex 55.6921 19.8691 21
    endloop
  endfacet
  facet normal 0.684545 -0.72897 0
    outer loop
      vertex 55.8752 20.041 21
      vertex 55.6921 19.8691 18
      vertex 55.8752 20.041 18
    endloop
  endfacet
  facet normal 0.368131 -0.929774 0
    outer loop
      vertex 56.2984 20.3097 18
      vertex 56.532 20.4021 21
      vertex 56.2984 20.3097 21
    endloop
  endfacet
  facet normal 0.368131 -0.929774 0
    outer loop
      vertex 56.532 20.4021 21
      vertex 56.2984 20.3097 18
      vertex 56.532 20.4021 18
    endloop
  endfacet
  facet normal -0.998026 0.0628033 0
    outer loop
      vertex 59.1342 18.2493 18
      vertex 59.15 18.5 21
      vertex 59.15 18.5 18
    endloop
  endfacet
  facet normal -0.998026 0.0628033 0
    outer loop
      vertex 59.15 18.5 21
      vertex 59.1342 18.2493 18
      vertex 59.1342 18.2493 21
    endloop
  endfacet
  facet normal -0.587785 0.809017 0
    outer loop
      vertex 58.4248 16.959 18
      vertex 58.2217 16.8113 21
      vertex 58.4248 16.959 21
    endloop
  endfacet
  facet normal -0.587785 0.809017 0
    outer loop
      vertex 58.2217 16.8113 21
      vertex 58.4248 16.959 18
      vertex 58.2217 16.8113 18
    endloop
  endfacet
  facet normal -0.770516 0.637421 0
    outer loop
      vertex 58.6079 17.1309 18
      vertex 58.768 17.3244 21
      vertex 58.768 17.3244 18
    endloop
  endfacet
  facet normal -0.770516 0.637421 0
    outer loop
      vertex 58.768 17.3244 21
      vertex 58.6079 17.1309 18
      vertex 58.6079 17.1309 21
    endloop
  endfacet
  facet normal -0.904831 0.425771 0
    outer loop
      vertex 58.9026 17.5365 18
      vertex 59.0096 17.7638 21
      vertex 59.0096 17.7638 18
    endloop
  endfacet
  facet normal -0.904831 0.425771 0
    outer loop
      vertex 59.0096 17.7638 21
      vertex 58.9026 17.5365 18
      vertex 58.9026 17.5365 21
    endloop
  endfacet
  facet normal -0.982288 0.187377 0
    outer loop
      vertex 59.0872 18.0026 18
      vertex 59.1342 18.2493 21
      vertex 59.1342 18.2493 18
    endloop
  endfacet
  facet normal -0.982288 0.187377 0
    outer loop
      vertex 59.1342 18.2493 21
      vertex 59.0872 18.0026 18
      vertex 59.0872 18.0026 21
    endloop
  endfacet
  facet normal 0.587785 0.809017 -0
    outer loop
      vertex 56.0783 16.8113 18
      vertex 55.8752 16.959 21
      vertex 56.0783 16.8113 21
    endloop
  endfacet
  facet normal 0.587785 0.809017 0
    outer loop
      vertex 55.8752 16.959 21
      vertex 56.0783 16.8113 18
      vertex 55.8752 16.959 18
    endloop
  endfacet
  facet normal 0.844324 0.535833 0
    outer loop
      vertex 55.532 17.3244 21
      vertex 55.3974 17.5365 18
      vertex 55.3974 17.5365 21
    endloop
  endfacet
  facet normal 0.844324 0.535833 0
    outer loop
      vertex 55.3974 17.5365 18
      vertex 55.532 17.3244 21
      vertex 55.532 17.3244 18
    endloop
  endfacet
  facet normal 0.684545 0.72897 -0
    outer loop
      vertex 55.8752 16.959 18
      vertex 55.6921 17.1309 21
      vertex 55.8752 16.959 21
    endloop
  endfacet
  facet normal 0.684545 0.72897 0
    outer loop
      vertex 55.6921 17.1309 21
      vertex 55.8752 16.959 18
      vertex 55.6921 17.1309 18
    endloop
  endfacet
  facet normal 0.998027 0.0627882 0
    outer loop
      vertex 55.1658 18.2493 21
      vertex 55.15 18.5 18
      vertex 55.15 18.5 21
    endloop
  endfacet
  facet normal 0.998027 0.0627882 0
    outer loop
      vertex 55.15 18.5 18
      vertex 55.1658 18.2493 21
      vertex 55.1658 18.2493 18
    endloop
  endfacet
  facet normal -0.844324 0.535833 0
    outer loop
      vertex 58.768 17.3244 18
      vertex 58.9026 17.5365 21
      vertex 58.9026 17.5365 18
    endloop
  endfacet
  facet normal -0.844324 0.535833 0
    outer loop
      vertex 58.9026 17.5365 21
      vertex 58.768 17.3244 18
      vertex 58.768 17.3244 21
    endloop
  endfacet
  facet normal 0.951056 0.309019 0
    outer loop
      vertex 55.2904 17.7638 21
      vertex 55.2128 18.0026 18
      vertex 55.2128 18.0026 21
    endloop
  endfacet
  facet normal 0.951056 0.309019 0
    outer loop
      vertex 55.2128 18.0026 18
      vertex 55.2904 17.7638 21
      vertex 55.2904 17.7638 18
    endloop
  endfacet
  facet normal 0.982288 0.187377 0
    outer loop
      vertex 55.2128 18.0026 21
      vertex 55.1658 18.2493 18
      vertex 55.1658 18.2493 21
    endloop
  endfacet
  facet normal 0.982288 0.187377 0
    outer loop
      vertex 55.1658 18.2493 18
      vertex 55.2128 18.0026 21
      vertex 55.2128 18.0026 18
    endloop
  endfacet
  facet normal 0.904831 0.425771 0
    outer loop
      vertex 55.3974 17.5365 21
      vertex 55.2904 17.7638 18
      vertex 55.2904 17.7638 21
    endloop
  endfacet
  facet normal 0.904831 0.425771 0
    outer loop
      vertex 55.2904 17.7638 18
      vertex 55.3974 17.5365 21
      vertex 55.3974 17.5365 18
    endloop
  endfacet
  facet normal -0.368124 0.929777 0
    outer loop
      vertex 58.0016 16.6903 18
      vertex 57.768 16.5979 21
      vertex 58.0016 16.6903 21
    endloop
  endfacet
  facet normal -0.368124 0.929777 0
    outer loop
      vertex 57.768 16.5979 21
      vertex 58.0016 16.6903 18
      vertex 57.768 16.5979 18
    endloop
  endfacet
  facet normal -0.684545 0.72897 0
    outer loop
      vertex 58.6079 17.1309 18
      vertex 58.4248 16.959 21
      vertex 58.6079 17.1309 21
    endloop
  endfacet
  facet normal -0.684545 0.72897 0
    outer loop
      vertex 58.4248 16.959 21
      vertex 58.6079 17.1309 18
      vertex 58.4248 16.959 18
    endloop
  endfacet
  facet normal 0 1 -0
    outer loop
      vertex 57.2756 16.5039 18
      vertex 57.0244 16.5039 21
      vertex 57.2756 16.5039 21
    endloop
  endfacet
  facet normal 0 1 0
    outer loop
      vertex 57.0244 16.5039 21
      vertex 57.2756 16.5039 18
      vertex 57.0244 16.5039 18
    endloop
  endfacet
  facet normal 0.481751 0.876308 -0
    outer loop
      vertex 56.2984 16.6903 18
      vertex 56.0783 16.8113 21
      vertex 56.2984 16.6903 21
    endloop
  endfacet
  facet normal 0.481751 0.876308 0
    outer loop
      vertex 56.0783 16.8113 21
      vertex 56.2984 16.6903 18
      vertex 56.0783 16.8113 18
    endloop
  endfacet
  facet normal 0.770516 0.637421 0
    outer loop
      vertex 55.6921 17.1309 21
      vertex 55.532 17.3244 18
      vertex 55.532 17.3244 21
    endloop
  endfacet
  facet normal 0.770516 0.637421 0
    outer loop
      vertex 55.532 17.3244 18
      vertex 55.6921 17.1309 21
      vertex 55.6921 17.1309 18
    endloop
  endfacet
  facet normal 0.125334 0.992115 -0
    outer loop
      vertex 57.0244 16.5039 18
      vertex 56.7752 16.5354 21
      vertex 57.0244 16.5039 21
    endloop
  endfacet
  facet normal 0.125334 0.992115 0
    outer loop
      vertex 56.7752 16.5354 21
      vertex 57.0244 16.5039 18
      vertex 56.7752 16.5354 18
    endloop
  endfacet
  facet normal 0.248685 0.968585 -0
    outer loop
      vertex 56.7752 16.5354 18
      vertex 56.532 16.5979 21
      vertex 56.7752 16.5354 21
    endloop
  endfacet
  facet normal 0.248685 0.968585 0
    outer loop
      vertex 56.532 16.5979 21
      vertex 56.7752 16.5354 18
      vertex 56.532 16.5979 18
    endloop
  endfacet
  facet normal 0.368124 0.929777 -0
    outer loop
      vertex 56.532 16.5979 18
      vertex 56.2984 16.6903 21
      vertex 56.532 16.5979 21
    endloop
  endfacet
  facet normal 0.368124 0.929777 0
    outer loop
      vertex 56.2984 16.6903 21
      vertex 56.532 16.5979 18
      vertex 56.2984 16.6903 18
    endloop
  endfacet
  facet normal 0 0 -1
    outer loop
      vertex 49.65 50.5 26.75
      vertex 55.9 53.5 26.75
      vertex 55.9 50.5 26.75
    endloop
  endfacet
  facet normal -0 0 -1
    outer loop
      vertex 55.9 53.5 26.75
      vertex 49.65 50.5 26.75
      vertex 49.65 53.5 26.75
    endloop
  endfacet
  facet normal -1 0 0
    outer loop
      vertex 55.9 50.5 24.25
      vertex 55.9 53.5 26.75
      vertex 55.9 53.5 24.25
    endloop
  endfacet
  facet normal -1 -0 0
    outer loop
      vertex 55.9 53.5 26.75
      vertex 55.9 50.5 24.25
      vertex 55.9 50.5 26.75
    endloop
  endfacet
  facet normal -0 0 1
    outer loop
      vertex 49.65 53.5 24.25
      vertex 55.9 50.5 24.25
      vertex 55.9 53.5 24.25
    endloop
  endfacet
  facet normal 0 0 1
    outer loop
      vertex 55.9 50.5 24.25
      vertex 49.65 53.5 24.25
      vertex 49.65 50.5 24.25
    endloop
  endfacet
endsolid OpenSCAD_Model
